<svg width="306" height="294" viewBox="0 0 306 294" fill="none" xmlns="http://www.w3.org/2000/svg">
<path d="M66.6561 285.45L97.619 248.897" stroke="#6A5829" stroke-width="14.6213" stroke-linecap="round"/>
<path d="M224.48 286.183L193.518 249.629" stroke="#6A5829" stroke-width="14.6213" stroke-linecap="round"/>
<path d="M162.668 110.69C168.583 88.2837 131.677 68.4063 96.2304 89.79C96.2304 89.79 122.468 146.148 160.411 115.516C160.411 115.516 160.522 115.113 161.434 113.465C162.346 111.818 162.668 110.69 162.668 110.69Z" fill="#3FE900"/>
<path d="M272.791 17.2469L292.298 27.3311L201.798 184.081L156.052 157.669L272.791 17.2469Z" fill="#302A1A"/>
<ellipse cx="279.772" cy="27.849" rx="22.71" ry="13.6615" transform="rotate(22.7733 279.772 27.849)" fill="#302A1A"/>
<path d="M177.065 101.916C154.03 99.3816 148.746 57.7978 181.441 32.4058C181.441 32.4058 224.602 77.1465 182.379 101.544C182.379 101.544 181.963 101.503 180.098 101.762C178.233 102.021 177.065 101.916 177.065 101.916Z" fill="#00B836"/>
<path d="M0 132.052H276.152V135.155C276.152 211.413 214.333 273.231 138.076 273.231C61.8188 273.231 0 211.413 0 135.155V132.052Z" fill="#7D6831"/>
<mask id="mask0" mask-type="alpha" maskUnits="userSpaceOnUse" x="0" y="132" width="277" height="142">
<path d="M0 132.052H276.152V135.155C276.152 211.413 214.333 273.231 138.076 273.231C61.8188 273.231 0 211.413 0 135.155V132.052Z" fill="#82734F"/>
</mask>
<g mask="url(#mask0)">
<rect x="-11.181" y="165.469" width="299.307" height="45.5842" fill="#675424"/>
<path opacity="0.45" d="M25.8024 204.173L50.2691 176.65L84.6085 204.173L116.802 176.65L149.853 204.173L177.754 176.65L205.225 204.173L235.272 176.65L257.164 204.173" stroke="#7D6831" stroke-width="11.181" stroke-linecap="round"/>
</g>
</svg>
