<svg width="1366" height="451" viewBox="0 0 1366 451" fill="none" xmlns="http://www.w3.org/2000/svg">
<g clip-path="url(#clip0)">
<path d="M354.59 371.432H19.751L174.607 171.689C180.972 163.494 193.369 163.494 199.713 171.689L354.59 371.432Z" fill="#257E7E"/>
<path d="M1245.96 371.432H801.978L1007.32 106.565C1015.74 95.6862 1032.17 95.6862 1040.62 106.565L1245.96 371.432Z" fill="#257E7E"/>
<path d="M1346.44 371.432H1039.29L1181.35 188.184C1187.19 180.654 1198.55 180.654 1204.4 188.184L1346.44 371.432Z" fill="#34A592"/>
<path d="M434.046 371.432H176.583L295.663 217.845C300.552 211.542 310.078 211.542 314.966 217.845L434.046 371.432Z" fill="#34A592"/>
<path d="M1071.65 371.433C1070.49 166.636 904.127 0.984253 699.059 0.984253C493.992 0.984253 327.633 166.636 326.468 371.433H1071.65Z" fill="#0F80CE"/>
<path d="M693.007 170.172L691.571 166.157C691.53 166.074 691.447 165.991 691.363 165.991L686.954 165.596C686.891 165.575 686.85 165.596 686.808 165.637L684.021 167.343L683.023 166.074L682.087 163.37L682.211 160.437L683.127 157.13C683.127 157.109 683.127 157.088 683.127 157.068L683.189 151.701L681.837 143.735C681.816 143.652 681.775 143.589 681.712 143.548L677.053 140.968L668.899 135.789L663.658 131.879L661.495 125.68L659.872 119.295L659.352 114.053C659.352 113.991 659.311 113.928 659.269 113.887L657.397 112.264C657.355 112.223 657.293 112.202 657.231 112.202H654.776C654.693 112.202 654.61 112.243 654.568 112.327L652.551 115.509C652.53 115.53 652.53 115.551 652.53 115.571L651.448 119.461L649.784 121.375L644.938 123.33L639.031 121.063L637.533 117.984L639.634 115.447C639.655 115.426 639.675 115.384 639.675 115.363L640.528 112.514C640.549 112.451 640.549 112.389 640.528 112.347L639.675 110.33C639.655 110.288 639.634 110.247 639.592 110.226L637.658 108.936C637.637 108.915 637.595 108.895 637.575 108.895L634.6 108.333L632.042 105.962L631.023 102.655C631.002 102.571 630.939 102.509 630.835 102.488L625.511 101.053C625.469 101.032 625.427 101.032 625.407 101.053L622.952 101.511C622.89 101.531 622.848 101.552 622.807 101.594L619.083 106.045L616.858 107.439C616.816 107.459 616.775 107.501 616.754 107.543L615.277 110.891L613.363 113.949L609.058 116.84C609.016 116.861 608.995 116.903 608.975 116.923L608.33 118.151C608.288 118.213 608.288 118.275 608.309 118.359L609.016 120.439C609.037 120.501 609.078 120.543 609.141 120.584L611.762 122.019L612.323 125.535C612.24 127.719 612.115 130.173 612.011 130.714C611.367 130.88 609.099 131.588 605.251 132.815L599.219 134.562C599.136 134.583 599.074 134.645 599.053 134.728L598.075 137.765C598.075 137.786 598.055 137.828 598.055 137.848L598.242 142.154L595.995 150.495L592.667 154.572L587.654 154.696L585.179 152.159L583.661 148.061L583.973 144.837L583.786 141.052L587.862 136.725C587.883 136.704 587.904 136.663 587.925 136.621L588.902 133.127C588.944 133.002 588.861 132.856 588.736 132.815L584.514 131.317C584.493 131.317 584.472 131.296 584.451 131.296L579.314 130.922L576.693 127.365L575.341 122.227C575.32 122.144 575.237 122.061 575.154 122.04L569.6 120.875L563.859 119.045L563.63 117.027L565.461 113.803C565.461 113.783 565.482 113.762 565.482 113.741L566.334 110.621L567.998 103.903L572.179 100.991L577.192 97.9538L588.424 93.2946L593.291 92.3378H596.64C596.682 92.3378 596.723 92.3378 596.744 92.317L601.008 90.2578L607.498 85.9314C607.518 85.9106 607.539 85.9106 607.539 85.8898L609.557 83.6226L613.55 82.541L617.274 84.2258C617.336 84.2466 617.399 84.2466 617.461 84.2466L622.911 82.5202C622.994 82.4994 623.056 82.437 623.077 82.3538L624.616 78.0274L628.173 75.573C628.235 75.5314 628.277 75.469 628.277 75.4066L628.797 72.557C628.818 72.453 628.755 72.349 628.672 72.2866L624.179 69.8738C624.117 69.8322 624.034 69.8322 623.971 69.853L619.479 71.6626C619.437 71.6834 619.375 71.725 619.354 71.7666L617.232 75.3234L612.011 77.0914L610.93 77.029C611.283 76.0098 611.72 74.9282 611.845 74.8034C612.115 74.6162 613.301 73.4306 613.447 73.3058C613.488 73.2642 613.509 73.2226 613.509 73.1602L613.758 71.517C613.779 71.3922 613.696 71.2674 613.571 71.2258L611.325 70.6434L609.91 68.8546L614.778 65.5474C614.819 65.5266 614.84 65.485 614.861 65.4642L615.735 63.821C615.776 63.7378 615.776 63.6546 615.735 63.5922L614.091 60.389C614.05 60.3265 614.008 60.285 613.925 60.2642L610.805 59.4945C610.743 59.4737 610.659 59.4945 610.618 59.5153L606.042 62.2817C605.979 62.3234 605.938 62.365 605.938 62.4274L603.296 71.205L597.202 73.493C597.16 73.5138 597.098 73.5554 597.077 73.597C596.702 74.1794 596.245 74.741 596.099 74.7826C595.87 74.8242 594.061 74.5954 592.418 74.3458L589.235 72.973L583.806 70.8514L582.725 68.1058C582.704 68.0642 582.683 68.0434 582.662 68.0226L581.456 66.8162C581.394 66.7538 581.31 66.733 581.248 66.733L579.085 66.8994C579.064 66.8994 579.022 66.8994 579.002 66.9202L576.298 68.1058L571.846 67.8562L569.912 66.6082L567.52 64.965L567.77 62.0738L568.581 61.0962C568.602 61.0754 568.602 61.0546 568.622 61.0338L570.182 57.3105C570.182 57.2897 570.203 57.2689 570.203 57.2481L570.723 53.5249C570.723 53.4833 570.723 53.4625 570.723 53.4209L569.766 50.1345C569.746 50.0929 569.725 50.0513 569.683 50.0097L566.314 47.2433C566.272 47.2225 566.23 47.2017 566.189 47.1809L562.57 46.7649L561.758 43.6241C561.717 42.6673 561.779 41.7521 561.883 41.6065C562.237 41.4193 567.146 37.9249 567.666 37.5505L570.515 36.1777C570.536 36.1777 570.557 36.1569 570.578 36.1361L573.594 33.4529C573.614 33.4321 573.656 33.3905 573.656 33.3489L574.613 30.8529C574.654 30.7697 574.634 30.6449 574.55 30.5825L572.47 28.5025C572.408 28.4401 572.304 28.3985 572.221 28.4401L569.954 29.1265L564.296 29.4593L562.57 29.0225L559.45 28.7729C559.408 28.7729 559.387 28.7729 559.346 28.7937L548.925 32.5169C529.643 41.0657 511.734 50.6961 492.952 63.197C492.889 63.2386 492.224 64.2994 492.203 64.3618L491.766 67.0866C491.745 67.1698 491.766 67.253 491.829 67.3154C491.891 67.3778 491.953 67.3986 492.037 67.3986L500.981 66.629L504.122 70.2482L495.968 79.6706L479.099 100.159L461.19 126.387L456.801 136.704L445.153 148.872L438.165 157.151L425.206 171.149C425.185 171.17 425.165 171.191 425.165 171.212L419.965 182.631L417.365 189.37C417.344 189.391 417.344 189.432 417.344 189.453V202.37L414.765 215.308L409.065 234.631L405.072 244.012L402.992 255.41C402.992 255.431 402.992 255.452 402.992 255.493L404.198 266.039L405.072 274.338L406.278 285.05C406.278 285.071 406.278 285.092 406.299 285.133L407.505 287.9C407.547 288.004 407.63 288.045 407.755 288.045L411.208 287.879C411.333 287.879 411.437 287.775 411.437 287.671L412.477 281.057L411.79 271.551L411.27 258.281L414.369 245.863L415.909 236.669L418.009 235.837L417.677 244.428L416.47 258.135L418.03 272.175L421.837 287.713L423.043 294.41L422.024 301.087L419.777 309.615L419.424 319.287C419.424 319.329 419.424 319.37 419.465 319.412L423.48 326.546L432.632 336.218L437.811 342.271C437.832 342.292 437.853 342.313 437.873 342.313L446.505 347.846C446.547 347.866 446.589 347.887 446.651 347.887H452.745C452.766 347.887 452.787 347.887 452.829 347.887L458.32 346.223L461.544 347.471L466.536 353.482L468.47 359.015C468.47 359.036 468.491 359.078 468.512 359.098L473.171 364.673C473.192 364.694 473.213 364.714 473.254 364.735L479.785 367.876L484.153 368.77L487.19 370.268L488.605 371.454H521.822L523.237 369.394C523.278 369.353 523.278 369.29 523.278 369.228L522.592 363.57L521.947 357.601C521.926 357.476 521.822 357.372 521.698 357.372H517.246L513.419 358.142L508.677 356.353L503.747 354.793C503.705 354.772 503.685 354.772 503.643 354.793L495.115 355.958L491.745 355.479V349.801L493.555 341.543L496.238 334.617L501.23 331.289C501.272 331.268 501.293 331.226 501.313 331.205L505.203 324.071C505.245 324.009 505.245 323.946 505.224 323.863L503.144 317.373C503.123 317.29 503.04 317.228 502.957 317.207L497.133 315.772C497.07 315.751 497.008 315.772 496.966 315.793L493.389 317.581L486.109 319.661L483.259 320.826C483.217 320.847 483.176 320.868 483.155 320.909L477.622 328.897L472.173 331.809L468.678 331.434L461.336 328.855L455.491 323.135L454.721 310.447L456.011 295.617L459.069 290.895L463.707 287.026C463.749 287.005 463.769 286.964 463.79 286.922L466.765 278.498L469.344 271.551L474.96 265.81L486.337 262.877L491.621 265.831L496.8 267.391C496.821 267.391 496.862 267.412 496.883 267.391L503.934 266.871L510.382 265.207L522.654 266.351L525.171 270.22L527.376 275.274C527.397 275.337 527.438 275.378 527.501 275.399L530.392 276.772L532.68 283.012L535.259 290.333L536.174 299.922C536.174 299.985 536.195 300.026 536.237 300.068L539.357 303.437C539.398 303.479 539.44 303.5 539.502 303.521L543.392 304.29C543.496 304.311 543.6 304.269 543.642 304.186L548.446 297.322C548.467 297.301 548.488 297.26 548.488 297.239L550.173 289.855C550.173 289.813 550.173 289.772 550.173 289.73L546.97 279.85L551.712 271.53C551.733 271.489 551.733 271.468 551.754 271.426L552.128 266.455L558.41 260.049L565.627 252.956L577.546 244.781C577.566 244.761 577.608 244.74 577.608 244.698L580.728 239.644C580.749 239.602 580.77 239.581 580.77 239.54L581.539 232.031L582.434 224.231L586.718 221.09L597.826 217.991C597.867 217.97 597.909 217.949 597.95 217.908L602.318 212.77L609.91 210.066C609.973 210.045 610.014 210.004 610.056 209.941L613.925 202.724L618.896 198.127L629.671 192.282L635.911 187.956L640.216 189.807L635.848 193.821C635.827 193.842 635.807 193.863 635.786 193.904L633.456 198.834C633.435 198.896 633.415 198.98 633.456 199.042L634.371 201.372C634.413 201.455 634.496 201.517 634.6 201.538L638.365 201.788C638.427 201.788 638.511 201.767 638.552 201.704L644.855 195.548L655.567 193.343L662.056 191.138C662.098 191.117 662.139 191.096 662.16 191.076L667.735 185.252C667.818 185.168 667.839 185.002 667.735 184.919L663.491 180.052L662.202 174.02C662.181 173.936 662.119 173.853 662.035 173.832L659.706 173.063C659.685 173.063 659.643 173.042 659.623 173.042H650.741L647.205 171.274L644.751 169.589C644.709 169.568 644.667 169.548 644.605 169.548H636.576C636.555 169.548 636.535 169.548 636.514 169.548L627.944 172.085L631.667 168.57L638.594 163.432L645.146 164.056L647.85 167.135L651.136 169.506C651.157 169.527 651.178 169.527 651.219 169.548L654.776 170.588L658.874 170.754C658.999 170.733 659.103 170.671 659.123 170.546L659.477 168.903C659.498 168.84 659.477 168.757 659.435 168.695L658.624 167.613C658.583 167.572 658.52 167.53 658.458 167.509L655.962 167.093L654.88 165.616L653.819 163.224L658.354 163.89L659.768 165.096C659.789 165.117 659.81 165.138 659.831 165.138L663.283 166.511C663.367 166.552 663.45 166.532 663.512 166.49L667.027 164.077L671.291 159.751L672.706 158.461L677.157 158.815L677.219 161.103L675.431 163.64L669.711 166.989C669.648 167.031 669.607 167.072 669.586 167.135L668.546 170.546L668.088 173.936L667.901 177.556C667.901 177.618 667.922 177.701 667.963 177.743L670.231 180.135C670.293 180.197 670.376 180.218 670.459 180.218L676.741 179.116C676.783 179.116 676.803 179.095 676.845 179.074L678.01 178.284H683.272L686.413 178.658L689.2 179.469L690.656 183.754C690.677 183.816 690.739 183.879 690.802 183.92L694.047 185.148C694.13 185.168 694.213 185.168 694.275 185.127C694.338 185.085 694.379 185.002 694.379 184.919L694.504 176.828L693.007 170.172Z" fill="#44D1A3"/>
<path d="M560.199 348.554L557.994 347.784L557.12 346.931C557.099 346.91 557.058 346.89 557.037 346.869C554.915 346.016 550.818 344.373 550.506 344.227C550.194 344.061 549.632 344.29 548.509 344.851C548.301 344.955 548.031 345.08 548.01 345.101C547.864 345.101 547.656 345.101 546.866 346.661C546.845 346.723 546.824 346.786 546.845 346.827L547.303 348.574C547.323 348.616 547.344 348.658 547.365 348.699L550.547 351.736C550.589 351.778 550.651 351.798 550.714 351.798H551.546L553.522 351.32L554.624 352.277C554.666 352.318 554.728 352.339 554.791 352.339H557.328C557.37 352.339 557.391 352.339 557.432 352.318L559.512 351.403C559.575 351.382 559.637 351.32 559.658 351.237L560.365 348.845C560.407 348.741 560.323 348.595 560.199 348.554Z" fill="#44D1A3"/>
<path d="M604.336 348.054L598.887 344.227C598.866 344.206 598.845 344.206 598.824 344.185L594.456 342.812L590.691 340.15C590.671 340.129 590.629 340.129 590.608 340.108L588.528 339.588C588.507 339.588 588.466 339.568 588.424 339.588L584.431 340.108L581.227 340.878C581.123 340.899 581.04 340.982 581.04 341.107L580.687 344.372L580.354 346.473L577.379 347.596L575.57 347.014L573.261 345.891C573.199 345.849 573.115 345.849 573.032 345.891L568.976 347.992C568.893 348.033 568.831 348.116 568.831 348.22V349.739C568.831 349.822 568.872 349.905 568.955 349.947L572.679 352.256C572.72 352.276 572.783 352.297 572.845 352.297L579.085 351.715L580.915 351.382L585.512 352.921C585.533 352.921 585.575 352.942 585.595 352.942C585.616 352.942 585.658 352.942 585.679 352.921L589.36 351.632L592.251 351.465C592.48 351.465 597.618 351.548 598.055 351.548C598.471 351.548 604.295 351.632 604.357 351.632L606.167 351.715C606.271 351.715 606.375 351.652 606.416 351.548L607.019 349.988C607.061 349.884 607.019 349.76 606.915 349.676L604.336 348.054Z" fill="#44D1A3"/>
<path d="M550.859 327.983L553.355 332.559L553.896 335.575L553.355 338.383C553.334 338.466 553.376 338.549 553.439 338.611L555.019 340.047C555.061 340.088 555.123 340.109 555.186 340.109C555.227 340.109 555.29 340.088 555.331 340.067L557.079 338.819H570.869C570.911 338.819 570.931 338.819 570.973 338.799L572.907 338.029C573.011 337.987 573.074 337.904 573.074 337.8V336.24C573.074 336.178 573.053 336.115 572.991 336.053L570.016 333.203C569.975 333.162 569.912 333.141 569.85 333.141H565.003L560.303 329.709L556.808 325.05L553.168 321.285C553.147 321.264 553.127 321.264 553.127 321.243C551.567 320.307 549.175 318.831 548.904 318.56C548.488 318.165 543.059 316.73 541.437 316.314L536.258 314.109C536.216 314.088 536.195 314.088 536.154 314.088H531.058L522.758 315.648C522.717 315.648 522.675 315.669 522.634 315.711L520.138 317.811L518.328 319.891C518.286 319.933 518.266 319.995 518.266 320.058V322.783C518.266 322.866 518.307 322.97 518.39 323.011L520.075 323.927C520.117 323.947 520.158 323.947 520.2 323.947H523.757L526.731 323.303C526.794 323.282 526.835 323.261 526.877 323.219L528.998 320.599L531.786 320.723L535.322 320.099L543.246 324.696L545.514 326.381C545.555 326.423 545.618 326.423 545.68 326.423L547.864 326.298L550.859 327.983Z" fill="#44D1A3"/>
<path d="M629.691 348.096C629.608 348.013 629.504 347.992 629.4 348.034L626.259 349.448H616.899C616.837 349.448 616.795 349.469 616.754 349.49L615.111 350.696C615.069 350.738 615.027 350.78 615.007 350.842L614.32 353.858C614.299 353.962 614.341 354.087 614.445 354.149L617.898 355.959C617.919 355.98 617.939 355.98 617.96 355.98L623.41 357.103C623.431 357.103 623.451 357.103 623.451 357.103C623.493 357.103 623.535 357.103 623.555 357.082L628.215 354.836C628.235 354.836 628.256 354.815 628.277 354.794L631.21 352.173C631.272 352.132 631.293 352.048 631.293 351.986V350.114C631.293 350.052 631.272 349.989 631.231 349.948L629.691 348.096Z" fill="#44D1A3"/>
<path d="M614.196 87.4084C614.175 87.3876 614.133 87.3668 614.092 87.3668L611.845 86.8468C611.783 86.826 611.72 86.8468 611.679 86.8676L609.183 88.1572C609.162 88.1572 609.141 88.178 609.12 88.1988L607.435 89.7172L604.378 90.6532C604.336 90.674 604.295 90.6948 604.274 90.7156L601.508 93.3988C601.466 93.4404 601.424 93.5028 601.424 93.586V95.9988C601.424 96.0612 601.445 96.1028 601.487 96.1652L603.213 98.3284C603.255 98.3908 603.338 98.4324 603.421 98.4324C603.463 98.4324 603.484 98.4324 603.525 98.4116L607.914 96.602L612.428 95.2292L616.858 96.082C616.962 96.1028 617.087 96.0404 617.128 95.9364L618.772 92.5668C618.813 92.5044 618.813 92.4212 618.772 92.3588L617.815 90.1956C617.794 90.154 617.773 90.1124 617.732 90.0916L614.196 87.4084Z" fill="#44D1A3"/>
<path d="M572.387 58.6634V61.5962C572.387 61.6378 572.408 61.7002 572.429 61.7418L573.552 63.4682C573.594 63.5306 573.656 63.5722 573.719 63.5722L577.858 64.3418C577.879 64.3418 577.899 64.3418 577.941 64.3418L581.768 63.9258L583.349 64.633C583.848 65.6522 584.389 66.8378 584.41 67.025C584.41 67.1498 584.41 67.5035 586.594 68.9595C586.635 68.9803 586.677 69.0011 586.739 69.0011C586.76 69.0011 586.781 69.0011 586.802 69.0011L589.818 68.2315C589.839 68.2315 589.88 68.2107 589.901 68.1899L591.544 67.0666C591.586 67.025 591.627 66.9834 591.648 66.9418L592.189 65.2154H594.851C594.935 65.2154 595.039 65.1738 595.08 65.0906C595.309 64.6538 595.725 63.8634 595.725 63.593C595.725 63.4682 595.871 62.657 595.975 61.9914C596.162 60.9514 596.245 60.4522 596.245 60.3066C596.245 60.1402 596.391 59.4122 596.474 58.9546L599.76 55.3146C602.589 53.921 603.775 53.3386 604.232 53.0682C604.274 53.0682 604.315 53.0682 604.357 53.0474L604.336 53.0058C604.565 52.8602 604.544 52.7978 604.503 52.7146C604.503 52.7146 604.503 52.6938 604.482 52.6938C604.461 52.5066 604.482 51.8202 604.503 51.2378C604.503 51.1754 604.482 51.0922 604.44 51.0506C604.399 51.009 604.315 50.9674 604.253 50.9674H601.32C601.299 50.9674 601.279 50.9674 601.237 50.9882L599.282 51.5914H597.847L596.827 50.801L597.285 49.0954L599.095 44.9562C599.136 44.873 599.115 44.769 599.053 44.6858L597.888 43.3546C595.101 41.3994 594.456 41.233 594.207 41.3162H591.939C591.919 41.3162 591.898 41.3162 591.877 41.3162L589.589 41.9402L587.925 42.7306L583.557 45.3722L579.21 45.8922C579.168 45.8922 579.127 45.913 579.085 45.9338L577.608 47.057C577.546 47.0986 577.504 47.161 577.504 47.2442L577.338 50.8634C577.338 50.9258 577.359 51.009 577.4 51.0506C577.442 51.0922 577.504 51.1338 577.587 51.1338H582.787L584.285 51.9658L583.682 54.3994L580.915 55.2938L575.819 56.2506C575.778 56.2506 575.757 56.2714 575.736 56.2922L572.45 58.4554C572.429 58.497 572.387 58.5802 572.387 58.6634Z" fill="#44D1A3"/>
<path d="M605.459 59.2456C605.501 59.2872 605.543 59.3288 605.584 59.3496L606.936 59.8072C606.957 59.8072 606.999 59.828 607.019 59.828C607.082 59.828 607.123 59.8072 607.165 59.7864L608.559 58.788L610.056 57.3528L610.992 56.292L611.928 55.876L614.32 55.9384L617.815 55.4392C617.898 55.4184 617.96 55.3768 618.002 55.3144L619.229 53.172C619.271 53.1096 619.271 53.0264 619.25 52.9432L618.792 51.8408C618.751 51.7576 618.667 51.6952 618.563 51.6744L614.903 51.5496L610.951 50.9672C610.888 50.9672 610.826 50.9672 610.763 51.0088C610.119 51.4664 607.997 53.0056 607.789 53.276C607.727 53.3592 607.269 53.796 606.895 54.1912C605.896 55.1688 605.522 55.564 605.439 55.7096C605.314 55.9592 604.523 57.5816 604.523 57.5816C604.482 57.6648 604.482 57.748 604.544 57.8312L605.459 59.2456Z" fill="#44D1A3"/>
<path d="M658.479 90.8612C658.499 90.9028 658.541 90.9444 658.603 90.9652L660.6 91.7972L662.202 94.3972C662.243 94.4804 662.327 94.5221 662.41 94.5221H664.927C664.989 94.5221 665.051 94.5012 665.093 94.4596L668.546 91.3396C668.608 91.298 668.629 91.2148 668.629 91.1524V87.7828C668.629 87.7204 668.608 87.6788 668.587 87.6372L666.757 85.2036L664.344 82.7076C664.323 82.6868 664.282 82.666 664.261 82.6452L660.247 81.0228L659.04 79.8996L658.541 77.6948V73.6388C658.541 73.5972 658.541 73.5556 658.52 73.514L656.96 70.498C656.939 70.4564 656.898 70.4148 656.835 70.394L653.944 69.042L652.093 66.6084L650.367 63.9252C650.346 63.9044 650.346 63.8836 650.325 63.8836L647.995 61.8036C647.954 61.762 647.912 61.7412 647.85 61.7412C647.683 61.7204 643.773 61.3044 643.253 61.3044C642.941 61.2836 641.09 60.1188 639.467 58.9956L633.935 56.3124C633.893 56.2916 633.831 56.2708 633.768 56.2916L627.383 57.5812C627.341 57.5812 627.32 57.602 627.279 57.6228L624.845 59.3908L622.287 61.5124L618.896 63.5924C618.834 63.634 618.792 63.6964 618.771 63.7588L618.272 66.0052C618.251 66.0884 618.272 66.1924 618.355 66.234L619.832 67.6068C619.874 67.6484 619.915 67.6692 619.957 67.6692C620.331 67.7524 622.162 68.106 622.432 68.106C622.723 68.106 623.223 67.7108 623.555 67.4196L625.927 67.586L628.88 68.6052L632.083 70.706L633.269 72.7236C633.29 72.7444 633.311 72.786 633.331 72.8068L636.181 74.97C636.223 74.9908 636.264 75.0116 636.306 75.0116L639.675 75.5108L641.755 77.674L643.211 80.8356L642.504 84.3716L637.346 88.6148C637.242 88.6772 634.829 90.0084 634.392 90.258C633.851 90.5908 633.976 91.7556 634.018 91.9428V95.5621C634.018 95.6453 634.059 95.7077 634.101 95.7493L636.451 97.7461L639.135 99.8261C639.155 99.8469 639.197 99.8677 639.218 99.8677L640.424 100.221C642.026 100.7 643.815 101.282 644.002 101.407C644.127 101.594 645.063 103.716 645.624 105.005C645.645 105.047 645.687 105.088 645.728 105.13L648.224 106.607C648.266 106.628 648.307 106.648 648.349 106.648C648.37 106.648 648.391 106.648 648.391 106.648L650.471 106.212C650.512 106.212 650.533 106.191 650.554 106.17L652.135 105.13L652.987 104.423C654.402 104.714 655.983 105.047 656.17 105.151C656.295 105.213 656.648 105.4 658.77 103.736C658.791 103.716 658.811 103.695 658.832 103.674L660.559 101.178C660.579 101.157 660.579 101.136 660.6 101.095L661.37 98.2453C661.391 98.1413 661.349 98.0373 661.266 97.9749L657.418 95.2293L655.151 92.1716C656.128 91.2772 657.459 90.1332 657.771 89.9044C657.938 90.0084 658.25 90.4244 658.479 90.8612Z" fill="#44D1A3"/>
<path d="M631.626 89.6551L630.336 86.9926C630.315 86.9302 630.274 86.8886 630.211 86.8678L628.069 85.8902C628.027 85.8694 628.007 85.8694 627.965 85.8694H625.823C625.781 85.8694 625.739 85.8694 625.719 85.8902L623.784 86.8678C623.701 86.9094 623.639 86.9926 623.639 87.0966V90.3831L624.221 93.2327C624.221 93.2743 624.263 93.3159 624.283 93.3575L626.051 95.2503L626.426 96.4983C626.426 96.5191 626.447 96.5399 626.468 96.5607L627.632 98.2871C627.674 98.3495 627.757 98.3911 627.84 98.3911H627.861C628.88 98.3079 630.107 98.2663 630.274 98.3287C630.336 98.3911 630.44 98.4119 630.523 98.3911C630.648 98.3495 630.898 98.2871 632.042 95.2087C632.063 95.1671 632.063 95.1047 632.042 95.0631C631.98 94.7927 631.397 92.4631 631.335 92.2759C631.314 92.0887 631.48 90.8614 631.668 89.7798C631.668 89.7382 631.647 89.6967 631.626 89.6551Z" fill="#44D1A3"/>
<path d="M632.832 83.2693L634.039 84.3924C634.08 84.434 634.143 84.4549 634.205 84.4549H636.14C636.181 84.4549 636.202 84.4548 636.244 84.434L637.221 83.9765L638.136 83.3733C638.178 83.3525 638.199 83.3108 638.22 83.29L639.135 81.5636C639.156 81.522 639.156 81.4804 639.156 81.4388V79.234C639.156 79.1508 639.114 79.0884 639.052 79.026L636.972 77.3828C636.909 77.3204 636.805 77.3204 636.722 77.3412L636.056 77.5908L634.684 78.0068L634.164 78.0484C634.101 78.0484 634.039 78.09 633.997 78.1316L631.584 80.8564C631.501 80.9396 631.501 81.0644 631.564 81.1476L632.77 83.1861C632.791 83.2277 632.812 83.2485 632.832 83.2693Z" fill="#44D1A3"/>
<path d="M751.6 61.7626C751.579 61.7418 751.538 61.721 751.517 61.7002L743.925 59.3706L744.175 53.5466C744.175 53.4842 744.154 53.4426 744.133 53.401L742.178 50.4266C742.157 50.4058 742.136 50.3642 742.095 50.3434L738.122 47.785L734.794 42.6473L731.903 37.8009L728.783 34.4313C728.762 34.3897 728.72 34.3689 728.679 34.3689L720.504 31.7689C720.483 31.7689 720.463 31.7481 720.421 31.7481H716.095L713.432 29.8553C713.391 29.8345 713.349 29.8137 713.287 29.8137H708.586L701.805 30.8537C694.941 32.9753 694.816 33.3289 694.775 33.4537C694.629 33.6617 693.256 34.2857 692.071 34.7433L690.427 35.2633L681.234 36.6985C681.192 36.6985 681.151 36.7193 681.109 36.7401L678.779 38.5497C678.759 38.5705 678.738 38.5913 678.717 38.6329L676.283 42.9801L673.267 44.4778L671.333 45.1226C671.312 45.1226 671.291 45.1434 671.27 45.1434L669.066 46.5786C669.045 46.5994 669.003 46.6202 668.983 46.6618L667.173 49.5114C667.131 49.5738 667.131 49.657 667.152 49.7194C667.485 50.8218 668.026 52.6106 668.088 52.881C668.067 53.089 668.275 53.1306 673.163 54.2954C673.205 54.2954 673.247 54.2954 673.267 54.2954L677.032 53.505L679.84 52.7354L682.773 53.1098L686.704 59.641L687.349 63.6762C687.349 63.7178 687.37 63.7386 687.391 63.7802L689.595 67.1498C689.616 67.1914 689.658 67.2122 689.679 67.233L692.882 68.9802L694.879 71.2682L695.773 76.8634V78.3818L693.984 79.2138L691.904 79.9834C691.842 80.0042 691.779 80.0666 691.759 80.129L689.221 86.993C689.2 87.0554 689.2 87.1178 689.221 87.1802L691.363 92.7338L693.984 97.7467L700.848 105.9L704.863 110.955C704.883 110.975 704.925 111.017 704.946 111.017L712.767 114.657L718.861 116.217C718.882 116.217 718.903 116.217 718.923 116.217C718.944 116.217 718.986 116.217 719.007 116.196L723.291 114.636C723.354 114.615 723.416 114.553 723.437 114.491L724.602 111.641C724.623 111.599 724.623 111.558 724.623 111.516L723.853 106.337L725.517 101.116L727.327 94.4186L731.258 88.9482L734.669 87.929C734.711 87.9082 734.752 87.9082 734.773 87.8666L738.288 84.5386L741.138 81.0026C741.159 80.9818 741.179 80.9402 741.179 80.9194L742.032 77.7786C743.239 77.6538 745.651 77.3834 746.026 76.9882C746.379 76.697 751.663 74.3882 754.887 73.0154C754.949 72.9946 754.991 72.953 755.011 72.8906L756.051 70.561C756.072 70.5194 756.072 70.4986 756.072 70.457V65.9226C756.072 65.8602 756.031 65.777 755.989 65.7354L751.6 61.7626Z" fill="#44D1A3"/>
<path d="M790.663 81.2725C790.642 81.2517 790.621 81.2309 790.601 81.2309L784.465 77.9861C784.402 77.9653 784.34 77.9445 784.277 77.9653L781.095 78.8389C781.074 78.8389 781.053 78.8597 781.033 78.8597L776.956 81.2101H769.884L765.391 82.2917C765.349 82.3125 765.287 82.3333 765.266 82.3749L763.706 84.1013C763.664 84.1429 763.644 84.1845 763.644 84.2261L763.394 85.9525C763.373 86.0357 763.415 86.1397 763.477 86.1813L765.1 87.4917C765.141 87.5333 765.204 87.5749 765.266 87.5541L769.176 87.4501C770.84 88.6565 773.482 90.6117 773.711 90.9653C774.064 91.4853 775.895 93.8149 775.978 93.9189C776.02 93.9813 776.103 94.0229 776.186 94.0229H787.252C787.335 94.0229 787.397 93.9813 787.46 93.9189L790.559 89.9461C790.58 89.9253 790.601 89.9045 790.601 89.8629L792.681 83.4773C792.701 83.3941 792.681 83.2901 792.618 83.2277L790.663 81.2725Z" fill="#44D1A3"/>
<path d="M770.3 35.242L776.269 36.282C776.29 36.282 776.29 36.282 776.311 36.282C776.373 36.282 776.415 36.2612 776.457 36.2196L778.141 34.93C778.183 34.8884 778.225 34.8468 778.225 34.8052L778.994 32.2052C779.015 32.1012 778.994 31.9972 778.911 31.9348L775.666 29.21C775.645 29.1892 775.604 29.1684 775.583 29.1684L773.212 28.4196L769.052 27.858L764.684 27.4836L762.895 25.5076L760.17 21.618C760.129 21.5764 760.087 21.5348 760.045 21.514L758.048 20.8484L752.869 20.0788C752.828 20.0788 752.765 20.0788 752.724 20.0996L750.269 21.2644C750.228 21.2852 750.186 21.3268 750.165 21.3684L749 23.3028C748.959 23.386 748.959 23.4692 749 23.5524L750.165 25.7572C750.165 25.778 750.186 25.778 750.186 25.7988L753.431 30.2084C753.452 30.2292 753.472 30.25 753.493 30.2708C755.303 31.5396 757.528 33.0372 757.924 33.0372C758.194 33.0372 762.396 33.4948 765.12 33.8068L770.3 35.242Z" fill="#44D1A3"/>
<path d="M634.579 45.4553L632.645 47.5354C632.603 47.577 632.583 47.6394 632.583 47.7018V50.3018C632.583 50.4058 632.645 50.5098 632.749 50.5306L635.286 51.4458H635.307L637.783 52.0698L641.506 55.3354C641.547 55.377 641.61 55.3978 641.672 55.3978H645.167C645.208 55.3978 645.229 55.3978 645.27 55.377C646.352 54.8986 648.869 53.7338 649.139 53.297C649.327 53.0058 652.467 49.5738 654.547 47.3482L659.435 42.8553L665.447 40.5465L669.669 39.6521H673.434C673.475 39.6521 673.517 39.6313 673.559 39.6105L676.408 37.9257C676.45 37.9049 676.471 37.8841 676.491 37.8425L678.28 34.9097L680.173 33.7865C680.256 33.7241 680.319 33.6201 680.298 33.5161L679.528 30.0217C679.507 29.8969 679.403 29.8137 679.279 29.8137H676.887L673.808 30.4585L669.503 30.7289L662.264 31.7689L657.647 31.9145L648.994 33.9945C648.952 33.9945 648.931 34.0153 648.91 34.0361L643.336 38.1753C643.315 38.1961 643.295 38.2169 643.274 38.2377L640.341 42.9593L634.704 45.393C634.642 45.4138 634.621 45.4345 634.579 45.4553Z" fill="#44D1A3"/>
<path d="M607.602 47.8264C607.643 47.8888 607.706 47.9304 607.789 47.9512L611.159 48.4712C611.179 48.4712 611.2 48.4712 611.221 48.4712L613.863 48.2008L615.963 47.5352L618.959 48.0344L621.704 49.5736C621.725 49.5944 621.767 49.5944 621.787 49.5944L623.867 49.948C623.888 49.948 623.888 49.948 623.909 49.948C623.951 49.948 623.992 49.948 624.034 49.9272L626.301 48.7L628.027 47.4728L629.587 46.1832L634.767 42.8344C634.808 42.8136 634.85 42.772 634.871 42.7304C635.391 41.5448 635.952 40.068 635.578 39.6728C635.245 39.3192 633.914 38.0712 633.851 38.0088C633.81 37.9672 633.768 37.9464 633.727 37.9464L629.171 36.9896H623.867L619.666 37.676L614.487 37.7592C613.634 37.7592 611.595 37.78 611.221 38.0712C610.867 38.3208 608.663 39.964 608.663 39.964C608.642 39.9848 608.621 40.0056 608.6 40.0264L606.312 43.3128C606.291 43.3544 606.271 43.396 606.271 43.4584V45.5384C606.271 45.58 606.291 45.6216 606.312 45.6632L607.602 47.8264Z" fill="#44D1A3"/>
<path d="M854.415 127.532L852.273 124.392L853.146 121.667C853.167 121.604 853.167 121.542 853.146 121.5L851.982 118.526C851.961 118.484 851.94 118.443 851.898 118.422L849.174 116.488C849.132 116.467 849.09 116.446 849.028 116.446H843.974C843.89 116.446 843.828 116.488 843.786 116.529L841.062 119.649C840.978 119.732 840.978 119.878 841.062 119.961C841.582 120.648 842.33 121.729 842.372 122.041C842.414 122.374 842.06 123.58 841.831 124.308L840.084 125.556C840.022 125.598 839.98 125.681 839.98 125.764V129.259C839.98 129.363 840.042 129.467 840.146 129.488L844.473 131.131L845.45 132.94L846.74 137.08C846.761 137.121 846.782 137.163 846.823 137.204C847.634 137.849 849.028 138.952 849.444 138.952H853.063C853.146 138.952 853.209 138.91 853.25 138.868L854.831 136.996L856.017 134.625L857.057 131.256C857.078 131.172 857.057 131.089 857.015 131.027L854.415 127.532Z" fill="#44D1A3"/>
<path d="M880.186 133.127C880.249 133.106 880.311 133.043 880.332 132.981L881.455 130.381C881.497 130.319 881.476 130.235 881.455 130.152L880.519 128.405L879.146 125.514L878.522 123.767L877.482 121.52C877.441 121.437 877.357 121.395 877.233 121.375L875.236 121.458C875.173 121.458 875.111 121.499 875.049 121.541L873.53 123.309L873.052 123.517L872.178 121.791L870.889 119.794C870.868 119.773 870.847 119.731 870.805 119.711L867.394 117.527L863.193 115.904L858.2 112.119C858.18 112.098 858.159 112.098 858.138 112.077L850.796 109.519L849.714 107.418L848.32 105.255C848.3 105.234 848.279 105.192 848.237 105.171L842.538 101.448C842.517 101.427 842.496 101.427 842.476 101.427L840.333 100.762L837.92 98.2242C837.858 98.141 837.733 98.1202 837.65 98.1618L836.007 98.765C835.986 98.765 835.965 98.7858 835.944 98.8066L834.218 100.179C834.176 100.221 834.156 100.263 834.135 100.304L832.575 105.671C832.554 105.775 832.575 105.879 832.679 105.941L836.423 108.645L839.127 109.997L840.645 112.264C840.687 112.327 840.749 112.368 840.812 112.368L846.344 113.408L851.233 114.427L853.313 115.509L855.434 118.4C855.455 118.421 855.476 118.442 855.497 118.463C856.017 118.795 858.034 119.399 858.45 119.523L860.697 121.354L861.445 122.851C860.218 123.767 860.218 124.037 860.218 124.141C860.218 124.411 860.634 125.659 860.759 126.034C860.759 126.075 860.78 126.096 860.8 126.117L862.88 128.447L865.169 131.171L865.501 132.336C865.543 132.44 865.626 132.523 865.751 132.523H867.165L867.581 135.207L868.351 137.536C868.372 137.599 868.393 137.64 868.455 137.661C868.517 137.703 869.869 138.618 870.389 138.888C870.597 138.992 870.93 139.034 871.284 139.034C871.887 139.034 872.511 138.93 872.615 138.909C872.719 138.888 872.802 138.805 872.823 138.722L873.239 136.808L874.633 135.269L880.186 133.127Z" fill="#44D1A3"/>
<path d="M1052.02 252.936C1039.47 216.223 1021.27 181.758 997.935 150.558C974.868 119.691 947.267 92.6713 915.921 70.2488C884.18 47.5352 849.132 30.2296 812.066 18.4359C811.983 18.4151 812.836 22.0967 812.836 22.0967C812.857 22.1383 812.877 22.2007 812.919 22.2215L819.013 27.2552L824.713 30.2712L835.716 36.1992L839.522 39.4856C839.543 39.5064 839.564 39.5064 839.585 39.5272L843.204 41.0664L851.462 45.1848C853.334 46.4952 855.372 48.0344 855.518 48.3464C855.622 48.6584 855.58 50.1352 855.518 51.1128H853.209C849.673 49.8648 844.327 47.9512 843.974 47.7016C843.454 47.3688 838.919 47.3272 837.172 47.3064V45.0808L836.486 41.9816C836.465 41.9192 836.444 41.8776 836.402 41.836L832.596 38.9032C832.533 38.8616 832.471 38.8408 832.388 38.8616L826.543 40.068L821.926 40.588L818.161 40.4216C818.057 40.4008 817.079 40.1928 816.518 40.5672C816.31 40.692 816.185 40.9 816.122 41.1288C815.956 41.9608 814.937 44.6856 814.916 44.7064C814.895 44.748 814.895 44.8104 814.916 44.8728L816.476 50.4056C816.497 50.4472 816.517 50.4888 816.559 50.5304L821.593 55.044L827.812 59.516L831.078 62.2616L834.884 66.2552L840.854 71.7256L841.186 74.9496L842.06 78.236L842.934 80.8569L845.014 84.9961C845.034 85.0377 845.076 85.0793 845.097 85.1001L847.884 86.8265L851.482 88.6985L854.582 91.1113L857.91 93.8985L862.236 96.3113C862.278 96.3321 862.319 96.3529 862.361 96.3529H864.774C864.836 96.3529 864.898 96.3321 864.94 96.2905L866.666 94.7305C866.729 94.6889 866.75 94.6057 866.75 94.5433V91.0905C866.75 91.0281 866.729 90.9865 866.687 90.9449C866.396 90.5705 866.126 90.0505 866.209 89.8841C866.23 89.8425 866.334 89.8009 866.479 89.8009C867.415 89.8009 871.596 91.6521 873.135 92.3801L877.607 93.9193L880.478 95.2713L881.642 97.4137L883.015 100.866C883.057 100.97 883.14 101.033 883.244 101.033H884.804C884.887 101.033 884.95 100.991 884.991 100.95L887.071 98.5369C887.113 98.4953 887.134 98.4329 887.134 98.3705V93.7113C887.134 93.6905 887.134 93.6489 887.113 93.6281L885.553 89.1353C885.532 89.0521 885.47 89.0105 885.386 88.9689L882.329 87.9497L877.566 83.7065L874.633 80.1081L873.239 78.028C873.198 77.9656 873.114 77.924 873.031 77.924H869.62L864.129 77.0713L860.239 75.0536L853.708 66.6296C853.687 66.6088 853.666 66.588 853.666 66.588L849.61 63.6344L846.054 61.7624L844.036 59.516L842.226 56.7704L842.934 55.6472L845.991 55.4808L852.98 61.4504L857.327 65.964L862.444 69.7704C866.583 72.3912 866.75 72.308 866.791 72.308C867.041 72.3704 869.079 73.4104 870.847 74.3464C870.889 74.3672 870.93 74.3672 870.972 74.3672L873.218 74.284C873.26 74.284 873.322 74.2632 873.364 74.2424C873.53 74.1384 874.05 73.7432 874.154 73.4312C874.238 73.1608 874.196 71.6424 874.154 70.9768L873.801 68.8136C873.78 68.7304 873.718 68.6472 873.634 68.6264L870.202 67.2952L869.641 65.548L869.329 62.8648L870.702 62.6568L872.74 64.2584L875.798 65.7144L878.21 68.46L878.377 72.1208L879.063 76.1768C879.063 76.2184 879.084 76.26 879.126 76.3016L881.289 78.9016C881.33 78.9432 881.393 78.9848 881.455 78.9848L884.887 79.4216L887.945 80.6905L891.169 82.2921L892.292 84.1641L890.94 84.8713L889.193 84.7881C889.047 84.7881 888.943 84.8713 888.922 84.9961L888.756 86.0361C888.735 86.0985 888.756 86.1609 888.798 86.2233L890.087 88.1993C890.108 88.2409 890.15 88.2617 890.191 88.2825L894.122 90.2377L898.074 93.1497L900.862 97.0185L899.468 98.5577L897.887 98.0169C897.825 97.9961 897.762 97.9961 897.7 98.0169L896.327 98.6201C896.265 98.6409 896.223 98.6825 896.202 98.7449L895.225 100.783L894.809 102.697L893.561 103.778H892.438C892.375 103.778 892.334 103.799 892.292 103.841L890.441 105.276L888.09 105.754L885.99 104.673L881.871 102.967L877.919 99.5353C877.898 99.5145 877.857 99.4937 877.836 99.4937L873.426 98.0169C873.385 97.9961 873.364 97.9961 873.322 97.9961L872.636 98.0793C872.553 98.1001 872.47 98.1417 872.428 98.2249L871.222 100.908C871.159 101.033 871.222 101.178 871.326 101.241L874.446 102.967L877.878 104.59L883.473 107.938L885.927 110.476L887.175 113.139L886.759 116.3V117.943C886.759 117.964 886.759 117.985 886.759 118.006L887.966 122.457C888.049 123.06 888.07 123.788 888.007 123.934C887.82 124.204 887.05 125.764 886.946 125.951L884.346 131.297C884.326 131.339 884.326 131.38 884.326 131.422L884.846 136.892L885.49 139.825L884.014 140.678L880.769 142.467L878.044 142.883C878.002 142.883 877.94 142.903 877.919 142.945L875.153 145.545C875.111 145.587 875.09 145.628 875.07 145.691L874.466 148.79C874.466 148.811 874.466 148.852 874.466 148.873C874.758 151.078 875.049 151.078 875.236 151.078C875.444 151.078 878.585 151.431 880.686 151.681H884.43L893.727 156.07L897.45 162.102C897.471 162.123 897.471 162.143 897.492 162.143L899.759 164.286L900.882 169.86L897.034 172.46L891.169 173.875H885.719C885.615 173.875 885.511 173.937 885.47 174.041L883.265 180.676L881.975 186.251C881.954 186.313 881.975 186.355 881.996 186.417L884.866 192.927L889.942 200.062L892.625 203.14L894.684 208.798C894.705 208.86 894.746 208.902 894.788 208.923L899.718 211.897C899.759 211.918 899.801 211.939 899.842 211.939H902.817C902.858 211.939 902.9 211.939 902.942 211.897L905.479 210.503H907.018L910.034 212.75L911.802 215.537L914.611 221.153L913.113 226.582L909.494 233.446C909.494 233.467 909.473 233.488 909.473 233.508L907.788 241.059C907.767 241.35 907.538 243.992 907.809 244.678C908.058 245.302 909.078 248.38 909.098 248.422C909.119 248.484 909.161 248.526 909.202 248.568L910.908 249.608L913.716 250.96L913.238 254.745L911.969 258.323L907.975 262.441L904.98 265.686C904.564 266.206 902.463 268.91 902.463 269.721C902.463 270.324 901.818 272.592 901.569 273.403L900.134 277.979L899.738 280.329L898.844 290.937L897.034 302.169L895.1 305.768C895.079 305.809 895.058 305.872 895.079 305.934L897.034 318.227C897.055 318.31 897.097 318.393 897.18 318.414L900.799 319.912L901.423 325.07C901.423 325.112 901.444 325.153 901.465 325.195L903.919 328.689C903.94 328.731 903.982 328.752 904.023 328.772L905.562 329.48V334.326C905.417 334.867 904.793 337.197 904.793 337.592C904.793 337.987 904.918 340.608 904.918 340.712C904.918 340.753 904.938 340.795 904.959 340.837L906.332 342.833L905.958 345.517L903.794 348.449C903.774 348.491 903.753 348.533 903.753 348.574L903.358 352.089C903.337 352.464 903.233 354.357 903.378 354.773C903.524 355.189 904.522 356.229 904.71 356.395L905.978 358.163L907.538 364.257L911.012 371.08V371.246C911.012 371.371 911.137 371.496 911.262 371.496H1071.55C1071.61 371.496 1071.67 371.475 1071.73 371.413C1071.78 371.371 1071.82 371.309 1071.82 371.225C1071.67 330.665 1064.99 290.896 1052.02 252.936ZM950.075 115.031L951.239 114.095H952.092L955.815 117.673L959.185 119.878C959.206 119.899 959.227 119.899 959.268 119.919L965.799 121.583L969.107 125.286L971.79 128.489L972.622 131.089L970.251 132.275L968.316 133.044C968.233 133.086 968.171 133.169 968.15 133.252L967.9 136.372V139.492C967.942 139.887 967.9 140.532 967.713 140.74C967.671 140.782 967.651 140.782 967.63 140.782C967.193 140.782 963.553 139.388 961.307 138.473C959.996 136.747 958.124 134.23 958.02 133.897C958.02 133.523 958.145 129.404 958.145 129.363C958.145 129.279 958.103 129.175 958.02 129.134L954.817 127.22L952.404 124.308L950.719 119.275L949.471 116.903L950.075 115.031ZM1010.39 194.175L1009.11 195.569H1006.15C1006.07 195.548 997.977 194.279 996.729 193.884C996.417 193.801 996.126 193.843 995.855 194.009C995.003 194.55 994.753 196.235 994.711 196.422C994.711 196.443 994.711 196.463 994.711 196.484L995.356 201.663C995.356 201.726 995.398 201.788 995.46 201.83L997.894 203.619C999.35 205.803 1000.89 208.278 1000.93 208.631C1000.93 209.068 1000.33 210.441 999.953 210.94C999.787 211.148 998.726 210.795 998.331 210.649C997.935 210.524 997.707 210.441 997.561 210.441C997.27 210.441 994.129 210.275 992.486 210.191L989.99 210.316L985.747 206.988L982.502 205.428C982.439 205.387 982.356 205.387 982.294 205.428L979.257 206.697L975.887 205.823L970.667 203.286L968.878 198.335C968.857 198.294 968.836 198.252 968.795 198.231L964.198 194.404L962.929 188.268C962.908 188.206 962.867 188.143 962.825 188.102L958.291 185.252C958.207 185.19 958.083 185.211 957.999 185.273L955.275 187.478C955.254 187.499 955.233 187.519 955.212 187.54L951.926 192.74H949.867C949.825 192.74 949.763 192.761 949.721 192.782L942.108 198.065L938.177 200.041L933.123 204.055C933.102 204.076 933.06 204.118 933.06 204.139L929.171 212.417C929.15 212.459 929.15 212.479 929.15 212.521V215.495H920.643L916.774 213.623L916.046 211.439V208.361L921.932 202.745L924.137 200.665C924.158 200.644 924.178 200.623 924.178 200.603L925.614 198.148C925.634 198.107 925.655 198.065 925.655 198.003L925.531 194.862L924.886 190.723C924.886 190.681 924.865 190.639 924.844 190.598L922.265 187.249L920.497 184.732L920.746 180.593L923.575 174.54C923.596 174.499 923.596 174.436 923.596 174.395L923.201 171.94C923.18 171.857 923.138 171.795 923.076 171.753L920.996 170.651L920.871 165.201L923.679 164.827L926.404 163.911C926.466 163.891 926.508 163.849 926.529 163.807L927.964 161.603C927.985 161.561 928.006 161.519 928.006 161.478L928.255 155.529L930.647 154.219L932.498 154.447L933.851 157.131L934.371 160.812V163.787C934.371 164.203 935.39 166.095 935.827 166.886C935.847 166.907 935.868 166.927 935.889 166.948L939.883 170.276L942.961 173.875L944.604 177.535L944.355 182.257C944.355 182.34 944.375 182.423 944.438 182.465C944.5 182.507 944.583 182.527 944.667 182.507L947.516 181.779C947.579 181.758 947.62 181.716 947.662 181.675L950.116 178.014C950.158 177.951 950.158 177.889 950.158 177.827L949.513 174.727C949.513 174.686 949.492 174.644 949.451 174.623L946.83 171.503L943.481 168.425L940.382 164.307L937.615 159.294L939.529 157.484L943.502 159.98C943.523 160.001 943.543 160.001 943.585 160.022L948.203 161.041L954.9 163.87C954.942 163.911 960.204 167.364 960.891 167.988C961.431 168.467 962.534 171.15 962.929 172.231L962.159 176.163L961.515 178.887C961.515 178.929 961.515 178.991 961.515 179.033L962.95 182.923C962.971 182.985 963.012 183.027 963.054 183.047L965.779 184.732C965.862 184.774 965.945 184.774 966.028 184.753L969.398 183.068C969.523 183.006 969.564 182.881 969.523 182.756C969.065 181.508 967.817 178.139 967.713 177.619C967.63 177.265 968.316 176.683 968.649 176.454C968.753 176.391 968.795 176.267 968.753 176.163L967.193 172.127L964.988 167.863C964.967 167.843 964.967 167.822 964.947 167.801L962.014 164.993C961.847 164.556 960.599 161.374 960.35 160.771C960.079 160.105 958.561 158.191 958.499 158.108C958.457 158.067 958.415 158.025 958.353 158.025L954.089 156.985L947.745 155.175C945.228 154.281 941.11 152.804 940.819 152.617C940.486 152.347 938.489 148.54 938.219 147.75C938.531 147.687 939.467 147.771 940.278 147.895H942.691L952.758 152.284C955.087 153.179 959.601 154.926 959.996 155.113C960.308 155.259 961.036 156.361 961.473 157.131L965.612 162.039L967.734 164.806L973.391 169.548L975.846 172.918C975.867 172.959 975.908 172.98 975.929 173.001L982.023 175.975C982.107 176.017 982.19 176.017 982.273 175.955C982.356 175.913 982.398 175.809 982.377 175.726L981.982 170.547C981.982 170.484 981.94 170.422 981.899 170.38L975.18 163.932C974.223 162.372 973.204 160.604 973.163 160.334C973.163 160.209 973.163 159.835 968.337 155.654L967.401 151.515H970.479L973.745 154.78L976.179 159.668C976.199 159.689 976.22 159.731 976.241 159.751L979.382 162.497L982.98 164.931L985.414 168.134C985.455 168.175 985.497 168.217 985.559 168.238L989.699 169.007C989.803 169.028 989.907 168.987 989.948 168.903L991.238 166.99L994.108 163.391L996.188 164.327L999.017 168.675L1003.3 174.124L1008.86 180.947L1010.37 185.523V194.175H1010.39Z" fill="#44D1A3"/>
<path d="M222.115 371.434H210.175L213.233 113.222H219.036L222.115 371.434Z" fill="#091841"/>
<path d="M213.711 106.42V108.168H218.558V106.42C218.558 105.568 218.807 104.736 219.286 104.028L223.05 98.4332C223.612 97.5804 223.862 96.5612 223.758 95.5628L218.786 52.0699C218.641 50.8427 217.622 49.9275 216.374 49.9275H215.916C214.689 49.9275 213.649 50.8427 213.503 52.0699L208.532 95.5628C208.407 96.582 208.657 97.6012 209.239 98.4332L213.004 104.028C213.462 104.736 213.711 105.568 213.711 106.42Z" fill="#0F80CE"/>
<path d="M221.657 111.787L220.139 110.934L217.767 115.156L219.286 116.009C220.035 116.425 220.617 117.049 221.012 117.819L224.028 123.83C224.486 124.745 225.255 125.452 226.191 125.848L266.543 142.841C267.687 143.32 268.998 142.862 269.601 141.801L269.83 141.406C270.433 140.324 270.142 138.972 269.143 138.265L233.659 112.577C232.827 111.974 231.828 111.704 230.809 111.787L224.091 112.307C223.238 112.39 222.406 112.203 221.657 111.787Z" fill="#0F80CE"/>
<path d="M210.57 111.787L212.089 110.934L214.46 115.157L212.942 116.009C212.193 116.425 211.61 117.049 211.215 117.819L208.199 123.83C207.742 124.745 206.972 125.453 206.036 125.848L165.684 142.842C164.54 143.32 163.23 142.862 162.626 141.802L162.398 141.406C161.794 140.325 162.086 138.973 163.084 138.266L198.548 112.598C199.38 111.995 200.378 111.725 201.398 111.808L208.116 112.349C208.969 112.39 209.822 112.203 210.57 111.787Z" fill="#0F80CE"/>
<path d="M220.367 110.497C220.95 112.827 219.535 115.198 217.185 115.78C214.855 116.363 212.484 114.948 211.902 112.619C211.319 110.289 212.734 107.918 215.084 107.336C217.414 106.732 219.785 108.147 220.367 110.497Z" fill="#091841"/>
<path d="M237.923 365.11H194.367V371.433H237.923V365.11Z" fill="#091841"/>
<path d="M363.493 371.433H350.035L353.488 80.7941H360.04L363.493 371.433Z" fill="#091841"/>
<path d="M354.028 73.1397V75.0949H359.478V73.1397C359.478 72.1829 359.769 71.2469 360.289 70.4565L364.532 64.1749C365.177 63.2181 365.447 62.0741 365.323 60.9509L359.707 12.0084C359.54 10.6356 358.375 9.59558 357.003 9.59558H356.503C355.11 9.59558 353.945 10.6356 353.799 12.0084L348.183 60.9509C348.059 62.0949 348.329 63.2389 348.974 64.1749L353.217 70.4565C353.758 71.2469 354.028 72.1829 354.028 73.1397Z" fill="#0F80CE"/>
<path d="M362.972 79.1722L361.267 78.2154L358.583 82.9578L360.289 83.9146C361.121 84.393 361.808 85.1002 362.224 85.953L365.635 92.7338C366.155 93.753 367.008 94.5642 368.068 95.001L413.516 114.116C414.785 114.657 416.262 114.158 416.948 112.951L417.198 112.515C417.884 111.308 417.552 109.79 416.428 108.979L376.492 80.0874C375.556 79.4218 374.433 79.089 373.289 79.193L365.718 79.7962C364.761 79.8586 363.804 79.6506 362.972 79.1722Z" fill="#0F80CE"/>
<path d="M350.492 79.1722L352.198 78.2154L354.881 82.9578L353.176 83.9146C352.344 84.393 351.657 85.1002 351.241 85.953L347.83 92.7338C347.31 93.753 346.457 94.5642 345.396 95.001L299.948 114.116C298.679 114.657 297.203 114.158 296.516 112.951L296.267 112.515C295.58 111.308 295.913 109.79 297.036 108.979L336.972 80.0874C337.908 79.4218 339.031 79.089 340.175 79.193L347.747 79.7962C348.683 79.8586 349.64 79.6506 350.492 79.1722Z" fill="#0F80CE"/>
<path d="M361.516 77.7161C362.182 80.3369 360.58 82.9993 357.939 83.6649C355.318 84.3305 352.635 82.7289 351.99 80.0873C351.324 77.4665 352.926 74.8041 355.567 74.1385C358.209 73.4937 360.871 75.0953 361.516 77.7161Z" fill="#091841"/>
<path d="M381.276 364.32H332.23V371.433H381.276V364.32Z" fill="#091841"/>
<path d="M1260.45 371.683H1246.99L1250.45 80.8361H1257L1260.45 371.683Z" fill="#091841"/>
<path d="M1250.99 73.1817V75.1369H1256.44V73.1817C1256.44 72.2249 1256.73 71.2889 1257.25 70.4985L1261.49 64.1961C1262.14 63.2393 1262.41 62.0953 1262.28 60.9513L1256.67 11.9672C1256.5 10.5944 1255.34 9.55438 1253.96 9.55438H1253.46C1252.07 9.55438 1250.91 10.5944 1250.76 11.9672L1245.14 60.9513C1245.02 62.0953 1245.29 63.2393 1245.93 64.1961L1250.18 70.4985C1250.72 71.2889 1250.99 72.2249 1250.99 73.1817Z" fill="#0F80CE"/>
<path d="M1259.93 79.2133L1258.23 78.2565L1255.54 82.9989L1257.25 83.9557C1258.08 84.4341 1258.77 85.1413 1259.18 85.9941L1262.59 92.7749C1263.11 93.7941 1263.97 94.6053 1265.03 95.0421L1310.48 114.178C1311.75 114.719 1313.22 114.22 1313.91 112.993L1314.16 112.556C1314.84 111.349 1314.51 109.831 1313.39 109.02L1273.45 80.1077C1272.52 79.4421 1271.39 79.1093 1270.25 79.2133L1262.68 79.8165C1261.72 79.8997 1260.76 79.6917 1259.93 79.2133Z" fill="#0F80CE"/>
<path d="M1247.45 79.2128L1249.16 78.256L1251.84 82.9984L1250.14 83.9552C1249.3 84.4337 1248.62 85.1409 1248.2 85.9937L1244.79 92.7745C1244.27 93.7937 1243.42 94.6049 1242.36 95.0417L1196.91 114.178C1195.64 114.719 1194.16 114.219 1193.48 112.992L1193.23 112.555C1192.54 111.349 1192.87 109.83 1194 109.019L1233.93 80.1072C1234.87 79.4416 1235.99 79.1088 1237.14 79.2128L1244.71 79.816C1245.66 79.8992 1246.6 79.6912 1247.45 79.2128Z" fill="#0F80CE"/>
<path d="M1254.12 83.8981C1256.83 83.7053 1258.86 81.3568 1258.67 78.6525C1258.48 75.9483 1256.13 73.9123 1253.42 74.105C1250.72 74.2978 1248.68 76.6463 1248.88 79.3506C1249.07 82.0549 1251.42 84.0908 1254.12 83.8981Z" fill="#091841"/>
<path d="M1278.24 364.57H1229.19V371.704H1278.24V364.57Z" fill="#091841"/>
<path d="M932.744 371.381H937.695V350.103H932.744V371.381Z" fill="#091841"/>
<path d="M882.204 359.015H977.322C979.818 359.015 982.377 356.998 983.001 354.522L997.02 299.298C997.665 296.761 996.126 294.722 993.609 294.722H897.533C894.996 294.722 892.458 296.781 891.855 299.298L878.751 354.522C878.127 356.998 879.687 359.015 882.204 359.015Z" fill="white"/>
<path d="M946.871 315.75H934.058C933.85 315.022 933.414 314.44 932.748 314.086L936.305 299.506H952.591L948.993 314.086C948.161 314.44 947.433 315.022 946.871 315.75Z" fill="#091841"/>
<path d="M927.465 315.75H914.527C914.34 315.064 913.924 314.502 913.321 314.149L916.857 299.506H933.143L929.586 314.086C928.775 314.44 928.026 315.022 927.465 315.75Z" fill="#091841"/>
<path d="M966.236 315.75H953.444C953.257 315.022 952.799 314.44 952.134 314.086L955.732 299.506H972.018L968.378 314.066C967.546 314.419 966.798 315.022 966.236 315.75Z" fill="#091841"/>
<path d="M952.799 318.891H965.321C965.467 319.744 965.987 320.409 966.715 320.804L963.595 333.264C962.7 333.617 961.91 334.262 961.348 335.053H948.723C948.556 334.283 948.078 333.659 947.391 333.284L950.47 320.804C951.406 320.388 952.238 319.723 952.799 318.891Z" fill="#091841"/>
<path d="M913.924 318.891H926.591C926.737 319.723 927.236 320.388 927.964 320.784L924.927 333.264C924.054 333.638 923.284 334.241 922.722 335.032H909.951C909.785 334.304 909.327 333.701 908.703 333.326L911.74 320.721C912.614 320.326 913.383 319.681 913.924 318.891Z" fill="#091841"/>
<path d="M971.54 314.107L975.201 299.506H991.487L987.39 315.75H972.83C972.622 315.043 972.185 314.461 971.54 314.107Z" fill="#091841"/>
<path d="M933.414 318.891H945.977C946.123 319.723 946.622 320.388 947.35 320.784L944.271 333.264C943.398 333.638 942.628 334.241 942.066 335.032H929.42C929.233 334.262 928.775 333.638 928.068 333.264L931.126 320.784C932.02 320.388 932.852 319.723 933.414 318.891Z" fill="#091841"/>
<path d="M903.961 339.962L900.529 354.189H884.388L888.215 338.152H902.526C902.713 338.963 903.212 339.608 903.961 339.962Z" fill="#091841"/>
<path d="M913.695 299.506L910.201 314.024C909.327 314.357 908.537 314.981 907.954 315.75H893.54L897.409 299.506H913.695Z" fill="#091841"/>
<path d="M909.202 338.152H921.953C922.14 338.922 922.597 339.546 923.305 339.92L919.831 354.21H903.69L907.143 339.878C907.933 339.483 908.661 338.88 909.202 338.152Z" fill="#091841"/>
<path d="M908.578 320.846L905.604 333.201C904.689 333.555 903.857 334.221 903.274 335.032H888.964L892.812 318.891H907.102C907.247 319.764 907.788 320.472 908.578 320.846Z" fill="#091841"/>
<path d="M967.255 338.152H981.711L977.655 354.189H961.514L965.092 339.899C965.945 339.525 966.714 338.922 967.255 338.152Z" fill="#091841"/>
<path d="M928.629 338.152H941.276C941.442 338.922 941.921 339.546 942.607 339.92L939.071 354.21H922.93L926.425 339.92C927.298 339.546 928.089 338.922 928.629 338.152Z" fill="#091841"/>
<path d="M966.735 333.284L969.876 320.763C970.77 320.368 971.602 319.723 972.164 318.891H986.599L982.522 335.032H968.066C967.879 334.262 967.401 333.659 966.735 333.284Z" fill="#091841"/>
<path d="M947.973 338.152H960.578C960.745 338.942 961.244 339.566 961.93 339.92L958.373 354.189H942.233L945.769 339.899C946.621 339.546 947.412 338.922 947.973 338.152Z" fill="#091841"/>
<path d="M912.007 371.383H958.412V369.22H912.007V371.383Z" fill="#091841"/>
<path d="M174.67 350.113H169.719V371.391H174.67V350.113Z" fill="#091841"/>
<path d="M225.235 359.016H130.116C127.62 359.016 125.062 356.998 124.438 354.523L110.418 299.299C109.773 296.761 111.313 294.723 113.829 294.723H209.905C212.442 294.723 214.98 296.782 215.583 299.299L228.687 354.523C229.291 356.998 227.731 359.016 225.235 359.016Z" fill="white"/>
<path d="M160.546 315.751H173.359C173.567 315.023 174.004 314.441 174.67 314.087L171.113 299.506H154.826L158.425 314.087C159.257 314.441 160.006 315.023 160.546 315.751Z" fill="#091841"/>
<path d="M179.953 315.751H192.89C193.078 315.065 193.514 314.503 194.097 314.149L190.561 299.506H174.274L177.831 314.087C178.663 314.441 179.391 315.023 179.953 315.751Z" fill="#091841"/>
<path d="M141.182 315.751H153.974C154.161 315.023 154.618 314.441 155.284 314.087L151.686 299.506H135.399L139.039 314.066C139.871 314.42 140.62 315.023 141.182 315.751Z" fill="#091841"/>
<path d="M154.618 318.891H142.097C141.951 319.744 141.431 320.41 140.703 320.805L143.823 333.264C144.718 333.618 145.508 334.263 146.07 335.053H158.695C158.862 334.283 159.34 333.659 160.026 333.285L156.948 320.805C156.012 320.389 155.18 319.723 154.618 318.891Z" fill="#091841"/>
<path d="M193.515 318.891H180.847C180.702 319.723 180.202 320.389 179.474 320.784L182.511 333.264C183.385 333.639 184.154 334.242 184.716 335.032H197.487C197.654 334.304 198.091 333.701 198.735 333.327L195.699 320.722C194.825 320.327 194.035 319.682 193.515 318.891Z" fill="#091841"/>
<path d="M135.878 314.108L132.217 299.507H115.93L120.028 315.751H134.588C134.796 315.044 135.254 314.462 135.878 314.108Z" fill="#091841"/>
<path d="M174.004 318.891H161.441C161.295 319.723 160.796 320.389 160.068 320.784L163.147 333.264C164.02 333.639 164.79 334.242 165.351 335.032H177.998C178.185 334.263 178.643 333.639 179.35 333.264L176.292 320.784C175.398 320.389 174.566 319.723 174.004 318.891Z" fill="#091841"/>
<path d="M203.457 339.962L206.889 354.189H223.03L219.203 338.153H204.892C204.726 338.964 204.206 339.609 203.457 339.962Z" fill="#091841"/>
<path d="M193.723 299.506L197.217 314.025C198.091 314.357 198.881 314.981 199.463 315.751H213.878L210.009 299.506H193.723Z" fill="#091841"/>
<path d="M198.236 338.153H185.486C185.298 338.922 184.841 339.546 184.134 339.921L187.607 354.21H203.748L200.295 339.879C199.484 339.484 198.756 338.881 198.236 338.153Z" fill="#091841"/>
<path d="M198.86 320.847L201.834 333.202C202.75 333.555 203.582 334.221 204.164 335.032H218.474L214.626 318.891H200.337C200.17 319.765 199.65 320.472 198.86 320.847Z" fill="#091841"/>
<path d="M140.162 338.153H125.706L129.762 354.189H145.903L142.326 339.9C141.494 339.525 140.724 338.922 140.162 338.153Z" fill="#091841"/>
<path d="M178.788 338.153H166.142C165.975 338.922 165.497 339.546 164.81 339.921L168.326 354.21H184.466L180.972 339.921C180.119 339.546 179.35 338.922 178.788 338.153Z" fill="#091841"/>
<path d="M140.682 333.285L137.542 320.763C136.647 320.368 135.815 319.723 135.254 318.891H120.818L124.895 335.032H139.351C139.559 334.263 140.017 333.659 140.682 333.285Z" fill="#091841"/>
<path d="M159.465 338.153H146.86C146.694 338.943 146.194 339.567 145.508 339.921L149.065 354.189H165.206L161.67 339.9C160.796 339.546 160.026 338.922 159.465 338.153Z" fill="#091841"/>
<path d="M195.407 369.228H149.002V371.391H195.407V369.228Z" fill="#091841"/>
<path d="M1099.13 344.954C1099.13 344.954 1099.11 344.975 1099.13 344.954C1098.82 340.815 1097.42 335.948 1092.95 332.1C1083.92 324.342 1074.62 327.482 1068.05 327.878C1061.48 328.273 1059.09 327.254 1053.37 326.858C1047.65 326.463 1044.63 329.687 1043.61 330.561C1041.24 331.497 1040.18 327.649 1037.79 328.065C1036.58 328.314 1035.56 330.977 1035.56 330.977C1035.56 330.977 1034.44 329.417 1032.48 330.145C1030.13 331.185 1031.36 335.116 1031.36 335.116C1026.39 337.591 1026.87 343.041 1026.87 343.041L1023.98 346.847C1025.41 351.881 1034.54 350.446 1034.54 350.446L1041.51 350.55C1043.3 351.278 1044.15 352.858 1044.49 354.938L1039.45 366.586C1034.46 368.583 1033.34 370.143 1034.54 371.433H1044.42L1056.13 357.559L1061.79 367.439C1058.67 368.77 1057.92 370.102 1059.11 371.433H1068.41L1068.11 357.33L1080.62 356.186L1078.91 366.399C1074.02 368.167 1072.92 369.831 1073.77 371.433H1082.45L1090.33 360.159L1095.3 367.439C1092.18 368.77 1091.43 370.102 1092.62 371.433H1101.91L1099.13 344.954Z" fill="#091841"/>
<path d="M771.319 213.103H636.867L584.43 255.784V371.433H733.005V258.343L771.319 213.103Z" fill="#35BA97"/>
<path d="M835.445 252.394L796.008 219.905C792.951 217.097 790.226 217.055 787.127 219.905H774.855L735.418 252.394C733.878 253.663 733.005 255.556 733.005 257.553V364.798C733.005 368.479 735.938 371.454 739.578 371.454H831.285C834.904 371.454 837.858 368.479 837.858 364.798V257.553C837.858 255.556 836.963 253.642 835.445 252.394Z" fill="#81EABD"/>
<path d="M611.574 285.613H602.09V328.191H611.574V285.613Z" fill="#81EABD"/>
<path d="M641.401 285.613H614.008V328.191H641.401V285.613Z" fill="#81EABD"/>
<path d="M644.002 328.191H599.49V332.705H644.002V328.191Z" fill="#257E7E"/>
<path d="M685.56 285.613H676.076V328.191H685.56V285.613Z" fill="#81EABD"/>
<path d="M715.388 285.613H687.994V328.191H715.388V285.613Z" fill="#81EABD"/>
<path d="M717.987 328.191H673.475V332.705H717.987V328.191Z" fill="#257E7E"/>
<path d="M808.197 295.367H771.381V371.412H808.197V295.367Z" fill="#091841"/>
<path d="M815.061 363.445H764.517V371.432H815.061V363.445Z" fill="#35BA97"/>
<path d="M815.061 295.367H764.517V291.374L789.789 275.649L815.061 291.374V295.367Z" fill="#35BA97"/>
<path d="M839.938 250.21L796.715 215.016C795.197 213.768 793.283 213.103 791.328 213.103H786.627H781.781H773.44H768.594H751.6H750.103H683.251H681.754H678.426H676.928H670.106H668.608H665.28H663.782H646.789H642.088H637.242H628.901H624.054C622.099 213.103 620.185 213.768 618.667 215.016L575.445 250.21C573.157 252.082 574.467 255.784 577.421 255.784H582.267H590.608H595.454H663.762H665.259H668.587H670.085H676.907H678.405H681.733H683.23H693.714H721.586H726.432H733.213H734.752H739.598C741.803 255.784 743.946 255.015 745.651 253.642L787.085 219.904L788.229 218.968C790.85 217.117 793.283 217.45 795.967 219.904L835.403 252.394C836.485 253.268 837.213 254.474 837.567 255.805H837.92C840.915 255.784 842.247 252.082 839.938 250.21Z" fill="#091841"/>
<path d="M709.771 203.368H692.008V227.476H709.771V203.368Z" fill="#35BA97"/>
<path d="M709.771 227.476L716.115 222.192V203.368H709.771V227.476Z" fill="#81EABD"/>
<path d="M717.072 199.915H690.885V203.368H717.072V199.915Z" fill="#091841"/>
<path d="M753.514 351.568H573.323V354.771H753.514V351.568Z" fill="#DCFFEF"/>
<path d="M753.514 364.236H573.323V367.439H753.514V364.236Z" fill="#DCFFEF"/>
<path d="M579.355 371.412H575.861C575.257 371.412 574.779 370.934 574.779 370.331V348.303C574.779 348.095 574.841 347.908 574.945 347.742L576.693 344.871C577.109 344.185 578.128 344.185 578.544 344.871L580.291 347.742C580.395 347.908 580.457 348.116 580.457 348.303V370.331C580.437 370.934 579.958 371.412 579.355 371.412Z" fill="white"/>
<path d="M588.881 371.412H585.387C584.784 371.412 584.305 370.934 584.305 370.331V348.303C584.305 348.095 584.368 347.908 584.472 347.742L586.219 344.871C586.635 344.185 587.654 344.185 588.07 344.871L589.817 347.742C589.921 347.908 589.984 348.116 589.984 348.303V370.331C589.963 370.934 589.485 371.412 588.881 371.412Z" fill="white"/>
<path d="M598.408 371.412H594.914C594.31 371.412 593.832 370.934 593.832 370.331V348.303C593.832 348.095 593.894 347.908 593.998 347.742L595.746 344.871C596.162 344.185 597.181 344.185 597.597 344.871L599.344 347.742C599.448 347.908 599.51 348.116 599.51 348.303V370.331C599.49 370.934 599.011 371.412 598.408 371.412Z" fill="white"/>
<path d="M607.934 371.412H604.44C603.837 371.412 603.358 370.934 603.358 370.331V348.303C603.358 348.095 603.421 347.908 603.525 347.742L605.272 344.871C605.688 344.185 606.707 344.185 607.123 344.871L608.87 347.742C608.974 347.908 609.037 348.116 609.037 348.303V370.331C609.016 370.934 608.538 371.412 607.934 371.412Z" fill="white"/>
<path d="M617.461 371.412H613.966C613.363 371.412 612.885 370.934 612.885 370.331V348.303C612.885 348.095 612.947 347.908 613.051 347.742L614.798 344.871C615.214 344.185 616.234 344.185 616.65 344.871L618.397 347.742C618.501 347.908 618.563 348.116 618.563 348.303V370.331C618.542 370.934 618.043 371.412 617.461 371.412Z" fill="white"/>
<path d="M626.987 371.412H623.493C622.89 371.412 622.411 370.934 622.411 370.331V348.303C622.411 348.095 622.474 347.908 622.578 347.742L624.325 344.871C624.741 344.185 625.76 344.185 626.176 344.871L627.923 347.742C628.027 347.908 628.09 348.116 628.09 348.303V370.331C628.069 370.934 627.57 371.412 626.987 371.412Z" fill="white"/>
<path d="M636.514 371.412H633.019C632.416 371.412 631.938 370.934 631.938 370.331V348.303C631.938 348.095 632 347.908 632.104 347.742L633.851 344.871C634.267 344.185 635.286 344.185 635.702 344.871L637.45 347.742C637.554 347.908 637.616 348.116 637.616 348.303V370.331C637.595 370.934 637.096 371.412 636.514 371.412Z" fill="white"/>
<path d="M646.019 371.412H642.525C641.922 371.412 641.443 370.934 641.443 370.331V348.303C641.443 348.095 641.506 347.908 641.61 347.742L643.357 344.871C643.773 344.185 644.792 344.185 645.208 344.871L646.955 347.742C647.059 347.908 647.122 348.116 647.122 348.303V370.331C647.122 370.934 646.622 371.412 646.019 371.412Z" fill="white"/>
<path d="M655.546 371.412H652.051C651.448 371.412 650.97 370.934 650.97 370.331V348.303C650.97 348.095 651.032 347.908 651.136 347.742L652.883 344.871C653.299 344.185 654.319 344.185 654.735 344.871L656.482 347.742C656.586 347.908 656.648 348.116 656.648 348.303V370.331C656.627 370.934 656.149 371.412 655.546 371.412Z" fill="white"/>
<path d="M665.072 371.412H661.578C660.974 371.412 660.496 370.934 660.496 370.331V348.303C660.496 348.095 660.559 347.908 660.663 347.742L662.41 344.871C662.826 344.185 663.845 344.185 664.261 344.871L666.008 347.742C666.112 347.908 666.175 348.116 666.175 348.303V370.331C666.154 370.934 665.675 371.412 665.072 371.412Z" fill="white"/>
<path d="M674.598 371.412H671.104C670.501 371.412 670.022 370.934 670.022 370.331V348.303C670.022 348.095 670.085 347.908 670.189 347.742L671.936 344.871C672.352 344.185 673.371 344.185 673.787 344.871L675.534 347.742C675.638 347.908 675.701 348.116 675.701 348.303V370.331C675.68 370.934 675.202 371.412 674.598 371.412Z" fill="white"/>
<path d="M684.125 371.412H680.63C680.027 371.412 679.549 370.934 679.549 370.331V348.303C679.549 348.095 679.611 347.908 679.715 347.742L681.462 344.871C681.878 344.185 682.898 344.185 683.314 344.871L685.061 347.742C685.165 347.908 685.227 348.116 685.227 348.303V370.331C685.206 370.934 684.728 371.412 684.125 371.412Z" fill="white"/>
<path d="M693.651 371.412H690.157C689.554 371.412 689.075 370.934 689.075 370.331V348.303C689.075 348.095 689.138 347.908 689.242 347.742L690.989 344.871C691.405 344.185 692.424 344.185 692.84 344.871L694.587 347.742C694.691 347.908 694.754 348.116 694.754 348.303V370.331C694.733 370.934 694.254 371.412 693.651 371.412Z" fill="white"/>
<path d="M703.178 371.412H699.683C699.08 371.412 698.602 370.934 698.602 370.331V348.303C698.602 348.095 698.664 347.908 698.768 347.742L700.515 344.871C700.931 344.185 701.951 344.185 702.367 344.871L704.114 347.742C704.218 347.908 704.28 348.116 704.28 348.303V370.331C704.259 370.934 703.781 371.412 703.178 371.412Z" fill="white"/>
<path d="M712.704 371.412H709.21C708.607 371.412 708.128 370.934 708.128 370.331V348.303C708.128 348.095 708.191 347.908 708.295 347.742L710.042 344.871C710.458 344.185 711.477 344.185 711.893 344.871L713.64 347.742C713.744 347.908 713.807 348.116 713.807 348.303V370.331C713.786 370.934 713.307 371.412 712.704 371.412Z" fill="white"/>
<path d="M722.231 371.412H718.736C718.133 371.412 717.655 370.934 717.655 370.331V348.303C717.655 348.095 717.717 347.908 717.821 347.742L719.568 344.871C719.984 344.185 721.003 344.185 721.419 344.871L723.167 347.742C723.271 347.908 723.333 348.116 723.333 348.303V370.331C723.312 370.934 722.834 371.412 722.231 371.412Z" fill="white"/>
<path d="M722.231 371.412H718.736C718.133 371.412 717.655 370.934 717.655 370.331V348.303C717.655 348.095 717.717 347.908 717.821 347.742L719.568 344.871C719.984 344.185 721.003 344.185 721.419 344.871L723.167 347.742C723.271 347.908 723.333 348.116 723.333 348.303V370.331C723.312 370.934 722.834 371.412 722.231 371.412Z" fill="white"/>
<path d="M731.757 371.412H728.263C727.659 371.412 727.181 370.934 727.181 370.331V348.303C727.181 348.095 727.243 347.908 727.347 347.742L729.095 344.871C729.511 344.185 730.53 344.185 730.946 344.871L732.693 347.742C732.797 347.908 732.859 348.116 732.859 348.303V370.331C732.839 370.934 732.36 371.412 731.757 371.412Z" fill="white"/>
<path d="M741.283 371.412H737.789C737.186 371.412 736.708 370.934 736.708 370.331V348.303C736.708 348.095 736.77 347.908 736.874 347.742L738.621 344.871C739.037 344.185 740.056 344.185 740.472 344.871L742.22 347.742C742.324 347.908 742.386 348.116 742.386 348.303V370.331C742.365 370.934 741.866 371.412 741.283 371.412Z" fill="white"/>
<path d="M750.81 371.412H747.315C746.712 371.412 746.234 370.934 746.234 370.331V348.303C746.234 348.095 746.296 347.908 746.4 347.742L748.148 344.871C748.564 344.185 749.583 344.185 749.999 344.871L751.746 347.742C751.85 347.908 751.912 348.116 751.912 348.303V370.331C751.892 370.934 751.392 371.412 750.81 371.412Z" fill="white"/>
<path d="M861.695 351.568H824.4V354.771H861.695V351.568Z" fill="#DCFFEF"/>
<path d="M861.695 364.236H824.4V367.439H861.695V364.236Z" fill="#DCFFEF"/>
<path d="M830.432 371.412H826.938C826.335 371.412 825.856 370.934 825.856 370.33V348.303C825.856 348.095 825.919 347.908 826.023 347.742L827.77 344.871C828.186 344.185 829.205 344.185 829.621 344.871L831.368 347.742C831.472 347.908 831.535 348.116 831.535 348.303V370.33C831.514 370.934 831.015 371.412 830.432 371.412Z" fill="white"/>
<path d="M839.959 371.412H836.464C835.861 371.412 835.383 370.934 835.383 370.33V348.303C835.383 348.095 835.445 347.908 835.549 347.742L837.296 344.871C837.712 344.185 838.731 344.185 839.147 344.871L840.895 347.742C840.999 347.908 841.061 348.116 841.061 348.303V370.33C841.04 370.934 840.541 371.412 839.959 371.412Z" fill="white"/>
<path d="M849.485 371.412H845.991C845.387 371.412 844.909 370.934 844.909 370.33V348.303C844.909 348.095 844.971 347.908 845.075 347.742L846.823 344.871C847.239 344.185 848.258 344.185 848.674 344.871L850.421 347.742C850.525 347.908 850.587 348.116 850.587 348.303V370.33C850.567 370.934 850.067 371.412 849.485 371.412Z" fill="white"/>
<path d="M858.991 371.412H855.496C854.893 371.412 854.415 370.934 854.415 370.33V348.303C854.415 348.095 854.477 347.908 854.581 347.742L856.328 344.871C856.744 344.185 857.763 344.185 858.179 344.871L859.927 347.742C860.031 347.908 860.093 348.116 860.093 348.303V370.33C860.093 370.934 859.594 371.412 858.991 371.412Z" fill="white"/>
<path d="M58.7717 352.672H47.4149V371.434H58.7717V352.672Z" fill="#091841"/>
<path d="M51.2629 259.737L27.5924 287.693C25.2004 290.521 27.3428 294.723 31.1908 294.723H78.5317C82.3797 294.723 84.5221 290.521 82.1301 287.693L58.4597 259.737C56.6085 257.574 53.1141 257.574 51.2629 259.737Z" fill="#81EABD"/>
<path d="M50.535 284.011L21.7062 318.061C18.815 321.472 21.3942 326.526 26.0326 326.526H83.6903C88.3287 326.526 90.9079 321.472 88.0167 318.061L59.1878 284.011C56.9622 281.39 52.7398 281.39 50.535 284.011Z" fill="#81EABD"/>
<path d="M50.2853 309.034L14.5301 351.258C11.4725 354.877 14.1973 360.202 19.1061 360.202H90.6166C95.5254 360.202 98.2502 354.857 95.1926 351.258L59.4374 309.034C57.087 306.247 52.6357 306.247 50.2853 309.034Z" fill="#81EABD"/>
<path d="M1159.03 350.238H1146.2V371.433H1159.03V350.238Z" fill="#091841"/>
<path d="M1150.52 245.302L1123.8 277.417C1121.09 280.683 1123.5 285.488 1127.85 285.488H1181.33C1185.68 285.488 1188.09 280.683 1185.39 277.417L1158.66 245.302C1156.58 242.806 1152.6 242.806 1150.52 245.302Z" fill="#44CFA3"/>
<path d="M1149.71 273.153L1117.16 312.257C1113.9 316.188 1116.81 321.971 1122.05 321.971H1187.17C1192.42 321.971 1195.33 316.167 1192.06 312.257L1159.51 273.153C1156.97 270.158 1152.21 270.158 1149.71 273.153Z" fill="#44CFA3"/>
<path d="M1149.42 301.878L1109.03 350.384C1105.58 354.523 1108.65 360.659 1114.19 360.659H1194.95C1200.49 360.659 1203.59 354.523 1200.11 350.384L1159.72 301.878C1157.12 298.717 1152.06 298.717 1149.42 301.878Z" fill="#44CFA3"/>
<path d="M1207.16 350.238H1196.03V371.433H1207.16V350.238Z" fill="#091841"/>
<path d="M1198.74 275.774L1179.89 299.403C1177.98 301.795 1179.69 305.331 1182.74 305.331H1220.43C1223.49 305.331 1225.2 301.795 1223.28 299.403L1204.44 275.774C1203 273.944 1200.19 273.944 1198.74 275.774Z" fill="#81EABD"/>
<path d="M1198.16 296.283L1175.21 325.049C1172.91 327.941 1174.96 332.205 1178.67 332.205H1224.55C1228.23 332.205 1230.29 327.941 1228 325.049L1205.06 296.283C1203.27 294.078 1199.92 294.078 1198.16 296.283Z" fill="#81EABD"/>
<path d="M1197.95 317.415L1169.49 353.108C1167.06 356.166 1169.22 360.679 1173.13 360.679H1230.06C1233.97 360.679 1236.14 356.166 1233.7 353.108L1205.25 317.415C1203.38 315.086 1199.82 315.086 1197.95 317.415Z" fill="#81EABD"/>
<path d="M1322.83 342.501H1315.97V371.683H1322.83V342.501Z" fill="#091841"/>
<path d="M1352.43 315.357C1352.43 333.598 1337.64 348.408 1319.38 348.408C1301.12 348.408 1286.33 333.619 1286.33 315.357C1286.33 297.115 1301.12 247.923 1319.38 247.923C1337.64 247.923 1352.43 297.115 1352.43 315.357Z" fill="#44CFA3"/>
<path d="M1322.81 332.517L1321.46 278.583H1318.03L1317.3 293.704L1307.75 285.717L1306.23 288.13L1317.51 301.671L1316.47 332.517H1322.81Z" fill="#34A592"/>
<path d="M314.342 342.313H307.478V371.454H314.342V342.313Z" fill="#091841"/>
<path d="M343.961 315.211C343.961 333.432 329.172 348.2 310.91 348.2C292.668 348.2 277.859 333.432 277.859 315.211C277.859 296.99 292.647 247.923 310.91 247.923C329.151 247.923 343.961 297.011 343.961 315.211Z" fill="#44CFA3"/>
<path d="M313.614 332.537L312.241 278.707H308.83L308.081 293.808L298.555 285.821L297.015 288.213L308.31 301.733L307.249 332.537H313.614Z" fill="#34A592"/>
<path d="M1371.23 342.501H1364.37V371.683H1371.23V342.501Z" fill="#091841"/>
<path d="M1367.78 348.408C1385.79 348.408 1400.4 333.806 1400.4 315.794C1400.4 297.781 1385.79 283.179 1367.78 283.179C1349.77 283.179 1335.17 297.781 1335.17 315.794C1335.17 333.806 1349.77 348.408 1367.78 348.408Z" fill="#34A592"/>
<path d="M1365.04 333.91H1370.17L1369.32 300.36H1365.91L1365.16 315.481L1355.63 307.494L1354.09 309.907L1365.39 323.448L1365.04 333.91Z" fill="#257E7E"/>
<path d="M16.2356 346.723H10.266V372.099H16.2356V346.723Z" fill="#091841"/>
<path d="M33.2878 343.557C44.3592 332.486 44.3592 314.536 33.2878 303.464C22.2163 292.393 4.26599 292.393 -6.80545 303.464C-17.8769 314.536 -17.8769 332.486 -6.80544 343.557C4.266 354.629 22.2163 354.629 33.2878 343.557Z" fill="#34A592"/>
<path d="M10.8485 339.256H15.3205L14.5925 310.073H11.6181L10.9733 323.24L2.6741 316.272L1.3429 318.373L11.1605 330.146L10.8485 339.256Z" fill="#257E7E"/>
<path d="M438.747 348.99H425.144V371.454H438.747V348.99Z" fill="#091841"/>
<path d="M429.741 237.814L401.411 271.822C398.541 275.275 401.099 280.371 405.717 280.371H462.355C466.952 280.371 469.531 275.275 466.661 271.822L438.331 237.814C436.126 235.172 431.945 235.172 429.741 237.814Z" fill="#81EABD"/>
<path d="M428.867 267.33L394.38 308.742C390.928 312.902 394.006 319.038 399.56 319.038H468.533C474.086 319.038 477.164 312.902 473.712 308.742L439.225 267.33C436.563 264.147 431.508 264.147 428.867 267.33Z" fill="#81EABD"/>
<path d="M428.555 297.76L385.769 349.136C382.108 353.524 385.374 360.035 391.239 360.035H476.79C482.656 360.035 485.921 353.545 482.26 349.136L439.475 297.76C436.708 294.411 431.363 294.411 428.555 297.76Z" fill="#81EABD"/>
<path d="M507.22 353.483H496.342V371.434H507.22V353.483Z" fill="#091841"/>
<path d="M499.358 290.397L483.404 309.783C481.782 311.759 483.238 314.65 485.817 314.65H517.725C520.325 314.65 521.76 311.738 520.137 309.783L504.184 290.397C502.977 288.878 500.606 288.878 499.358 290.397Z" fill="#35BA97"/>
<path d="M498.88 307.224L479.453 330.832C477.497 333.203 479.245 336.697 482.365 336.697H521.24C524.36 336.697 526.107 333.203 524.152 330.832L504.725 307.224C503.206 305.414 500.357 305.414 498.88 307.224Z" fill="#35BA97"/>
<path d="M498.693 324.572L474.585 353.858C472.526 356.354 474.357 360.077 477.664 360.077H525.878C529.185 360.077 531.016 356.375 528.957 353.858L504.849 324.572C503.289 322.658 500.273 322.658 498.693 324.572Z" fill="#35BA97"/>
</g>
<g clip-path="url(#clip1)">
<path d="M1399.73 371.225H-14.3403C-21.6204 371.225 -27.59 377.195 -27.59 384.475C-27.59 391.755 -21.6204 397.724 -14.3403 397.724H177.54C185.215 399.534 188.418 404.796 188.418 410.974C188.418 417.151 185.215 422.435 177.54 424.223H92.7799C85.479 424.223 79.5302 430.193 79.5302 437.473C79.5302 444.774 85.4998 450.723 92.7799 450.723H1334.52C1341.82 450.723 1347.77 444.753 1347.77 437.473C1347.77 430.172 1341.8 424.223 1334.52 424.223H1290.2C1282.63 422.414 1279.73 417.151 1279.73 410.974C1279.73 404.796 1282.63 399.513 1290.2 397.724H1399.73C1407.03 397.724 1412.98 391.755 1412.98 384.475C1412.98 377.195 1407.03 371.225 1399.73 371.225Z" fill="#B9EFD7"/>
</g>
<defs>
<clipPath id="clip0">
<rect width="1415.51" height="371.135" fill="white" transform="translate(-15.1099 0.984314)"/>
</clipPath>
<clipPath id="clip1">
<rect width="1440.59" height="79.5602" fill="white" transform="translate(-27.59 371.225)"/>
</clipPath>
</defs>
</svg>
