<svg width="1246" height="346" viewBox="0 0 1246 346" fill="none" xmlns="http://www.w3.org/2000/svg">
<path d="M116.545 104.066L101.469 36.5893C99.7775 29.0131 98.9215 21.2728 98.9215 13.5113V10.1547H19.2327V13.5113C19.2327 21.2728 18.3766 29.0131 16.6856 36.5893L1.60923 104.066C-0.266731 112.463 -0.50453 121.151 0.906405 129.637L2.17995 137.288V328.668C2.17995 338.107 9.8159 345.758 19.238 345.758H28.7869H89.3726H98.9215C108.344 345.758 115.98 338.107 115.98 328.668V137.288L117.253 129.637C118.659 121.145 118.421 112.463 116.545 104.066Z" fill="#EBBD1B"/>
<g opacity="0.4">
<path d="M22.4297 78.5144C22.0862 78.5144 21.7375 78.4774 21.3834 78.4032C18.6725 77.8262 16.9392 75.1578 17.5099 72.4418L22.3346 49.6126C22.9106 46.8966 25.5739 45.1601 28.2848 45.7319C30.9957 46.3089 32.729 48.9773 32.1583 51.6933L27.3336 74.5225C26.8369 76.8891 24.7496 78.5144 22.4297 78.5144Z" fill="#F7FEF9"/>
</g>
<g opacity="0.4">
<path d="M15.8241 316.268C13.0498 316.268 10.8039 314.018 10.8039 311.238V136.573L9.41412 128.218C8.17757 120.79 8.38366 113.304 10.0271 105.955L12.1197 96.5844C12.7274 93.8737 15.4066 92.1689 18.1175 92.7725C20.8231 93.3813 22.5247 96.0708 21.9223 98.7815L19.8297 108.153C18.4716 114.23 18.3025 120.425 19.3224 126.566L20.8496 135.741V311.244C20.8443 314.018 18.5931 316.268 15.8241 316.268Z" fill="#F7FEF9"/>
</g>
<path opacity="0.2" d="M116.545 104.066L101.468 36.5893C99.7774 29.0131 98.9213 21.2728 98.9213 13.5113V10.1547H82.5502V13.5113C82.5502 21.2728 83.4063 29.0131 85.0973 36.5893L100.174 104.06C102.05 112.457 102.287 121.145 100.877 129.632L99.603 137.282V328.662C99.603 338.102 91.967 345.753 82.5449 345.753H89.3671H98.916C108.338 345.753 115.974 338.102 115.974 328.662V137.288L117.248 129.637C118.659 121.145 118.421 112.463 116.545 104.066Z" fill="#464646"/>
<path d="M115.863 166.845H2.53186V278.835H115.863V166.845Z" fill="#00B836"/>
<path d="M23.927 224.592C23.927 205.104 39.7254 189.306 59.2137 189.306C78.702 189.306 94.5004 205.104 94.5004 224.592V225.453H23.927V224.592Z" fill="#00B836"/>
<path d="M23.927 225.455C23.0914 205.744 39.1681 189.307 58.897 189.307C78.3866 189.307 94.5004 205.107 94.5004 224.596V225.455H23.927Z" fill="white"/>
<path d="M65.499 219.985C67.0104 214.247 57.5785 209.158 48.5196 214.633C48.5196 214.633 55.2252 229.064 64.9222 221.22C64.9222 221.22 64.9505 221.117 65.1836 220.695C65.4167 220.273 65.499 219.985 65.499 219.985Z" fill="#3FE900"/>
<path d="M93.6413 196.059L98.6263 198.641L75.4995 238.776L63.8086 232.013L93.6413 196.059Z" fill="#302A1A"/>
<ellipse rx="5.80546" ry="3.49711" transform="matrix(0.921775 0.387726 -0.386446 0.922312 95.4255 198.774)" fill="#302A1A"/>
<path d="M69.1778 217.739C63.291 217.09 61.9406 206.443 70.2961 199.941C70.2961 199.941 81.3265 211.397 70.5359 217.644C70.5359 217.644 70.4296 217.634 69.953 217.7C69.4764 217.766 69.1778 217.739 69.1778 217.739Z" fill="#C5C70E"/>
<path d="M23.927 225.454H94.5004V226.314C94.5004 245.803 78.702 261.601 59.2137 261.601C39.7254 261.601 23.927 245.803 23.927 226.314V225.454Z" fill="#302A1A"/>
<path d="M32.9946 200.174C32.1391 200.918 31.3312 202.588 30.2946 204.026C29.4076 205.668 28.3112 208.205 27.6191 209.946C26.2289 213.429 25.2519 217.082 24.6736 220.791C24.1129 224.502 23.9487 228.273 24.2404 231.992C24.5396 235.709 25.2767 239.367 26.4148 242.864L27.3041 242.491C26.1526 239.087 25.4017 235.513 25.0585 231.875C24.7084 228.237 24.8043 224.531 25.2932 220.867C25.7997 217.203 26.7015 213.579 28.0181 210.108C28.6734 208.372 29.4219 206.67 30.2739 205.026C32.5137 201.501 32.688 201.084 32.9946 200.174Z" fill="#3FE900"/>
<path d="M29.0167 205.969C27.455 205.029 25.6316 200.38 29.2967 196.036C32.0081 198.859 30.8122 203.919 29.0167 205.969Z" fill="#3FE900"/>
<path d="M29.4518 206.383C31.0684 207.3 36.0451 206.573 37.9481 201.102C34.1045 200.112 30.3161 203.742 29.4518 206.383Z" fill="#3FE900"/>
<path d="M25.9673 213.572C24.2562 212.932 21.6723 208.706 24.606 203.796C27.7736 206.075 27.4175 211.243 25.9673 213.572Z" fill="#3FE900"/>
<path d="M26.4221 213.998C28.1369 214.698 32.998 213.357 34.2451 207.734C30.308 207.243 26.9702 211.291 26.4221 213.998Z" fill="#3FE900"/>
<path d="M24.0991 222.614C22.2812 222.307 18.9709 218.656 21.0451 213.302C24.5998 214.94 25.1416 220.063 24.0991 222.614Z" fill="#3FE900"/>
<path d="M24.9776 222.87C26.7929 223.202 31.313 220.926 31.479 215.232C27.5211 215.549 25.0059 220.139 24.9776 222.87Z" fill="#3FE900"/>
<path d="M24.1012 231.21C22.2317 231.309 18.1943 228.478 19.1632 222.814C23.032 223.631 24.6171 228.5 24.1012 231.21Z" fill="#3FE900"/>
<path d="M25.03 231.334C26.875 231.279 30.8711 228.138 29.9381 222.589C26.1164 223.716 24.5322 228.683 25.03 231.334Z" fill="#3FE900"/>
<path d="M25.9095 240.392C24.0636 240.839 19.5433 238.818 19.5138 233.079C23.5128 233.156 25.9476 237.636 25.9095 240.392Z" fill="#3FE900"/>
<path d="M26.8341 240.152C28.6298 239.674 31.8755 235.722 29.7805 230.587C26.2766 232.555 25.7822 237.711 26.8341 240.152Z" fill="#3FE900"/>
<path d="M31.9751 201.725C31.3045 199.963 32.5968 194.97 37.9985 193.695C38.4669 197.74 34.5756 201.166 31.9751 201.725Z" fill="#3FE900"/>
<path d="M91.5548 235.781C82.2517 267.885 38.5586 268.949 25.5409 237.171C24.43 229.65 24.2519 214.415 30.1996 203.804" stroke="url(#paint0_linear)" stroke-width="2.38352"/>
<path d="M91.5546 235.782C84.4719 260.223 57.4561 266.674 39.2192 254.337C33.502 250.47 28.6476 244.756 25.5406 237.172" stroke="url(#paint1_linear)" stroke-width="2.38352"/>
<path d="M112.758 173.067H2.53186V179.289H112.758V173.067Z" fill="white"/>
<path d="M114.311 267.946H4.08411V272.613H114.311V267.946Z" fill="white"/>
<path d="M106.901 20.7478H12.0724V7.39022C12.0724 3.44064 15.2642 0.242859 19.2063 0.242859H100.428C104.005 0.242859 106.901 3.14416 106.901 6.72843V20.7478Z" fill="#2DAD23"/>
<path d="M342.114 104.066L327.038 36.5894C325.347 29.0132 324.49 21.2729 324.49 13.5113V10.1547H244.802V13.5113C244.802 21.2729 243.946 29.0132 242.255 36.5894L227.178 104.066C225.302 112.463 225.064 121.151 226.475 129.637L227.749 137.288V328.668C227.749 338.108 235.385 345.758 244.807 345.758H254.356H314.942H324.49C333.913 345.758 341.548 338.108 341.548 328.668V137.288L342.822 129.637C344.228 121.145 343.99 112.463 342.114 104.066Z" fill="#EBBD1B"/>
<g opacity="0.4">
<path d="M247.999 78.5145C247.655 78.5145 247.306 78.4774 246.952 78.4033C244.241 77.8262 242.508 75.1579 243.079 72.4419L247.904 49.6127C248.48 46.8967 251.143 45.1601 253.854 45.7319C256.565 46.309 258.298 48.9773 257.727 51.6933L252.903 74.5225C252.406 76.8891 250.319 78.5145 247.999 78.5145Z" fill="#F7FEF9"/>
</g>
<g opacity="0.4">
<path d="M241.393 316.268C238.619 316.268 236.373 314.018 236.373 311.238V136.573L234.983 128.218C233.747 120.79 233.953 113.304 235.596 105.955L237.689 96.5844C238.297 93.8737 240.976 92.1689 243.687 92.7725C246.392 93.3814 248.094 96.0709 247.492 98.7816L245.399 108.153C244.041 114.23 243.872 120.425 244.892 126.566L246.419 135.741V311.244C246.413 314.018 244.162 316.268 241.393 316.268Z" fill="#F7FEF9"/>
</g>
<path opacity="0.2" d="M342.114 104.066L327.038 36.5894C325.347 29.0132 324.491 21.2729 324.491 13.5113V10.1547H308.12V13.5113C308.12 21.2729 308.976 29.0132 310.667 36.5894L325.743 104.06C327.619 112.457 327.857 121.145 326.446 129.632L325.172 137.283V328.662C325.172 338.102 317.536 345.753 308.114 345.753H314.936H324.485C333.907 345.753 341.543 338.102 341.543 328.662V137.288L342.817 129.637C344.228 121.145 343.99 112.463 342.114 104.066Z" fill="#464646"/>
<path d="M341.432 166.845H228.101V278.835H341.432V166.845Z" fill="#00B836"/>
<path d="M249.497 224.592C249.497 205.104 265.295 189.306 284.783 189.306C304.272 189.306 320.07 205.104 320.07 224.592V225.453H249.497V224.592Z" fill="#00B836"/>
<path d="M249.496 225.455C248.661 205.744 264.737 189.307 284.466 189.307C303.956 189.307 320.07 205.107 320.07 224.596V225.455H249.496Z" fill="white"/>
<path d="M291.068 219.985C292.58 214.247 283.148 209.158 274.089 214.633C274.089 214.633 280.794 229.064 290.491 221.22C290.491 221.22 290.52 221.117 290.753 220.695C290.986 220.273 291.068 219.985 291.068 219.985Z" fill="#3FE900"/>
<path d="M319.211 196.059L324.196 198.641L301.069 238.776L289.378 232.013L319.211 196.059Z" fill="#302A1A"/>
<ellipse rx="5.80546" ry="3.49711" transform="matrix(0.921775 0.387726 -0.386446 0.922312 320.995 198.774)" fill="#302A1A"/>
<path d="M294.747 217.739C288.86 217.09 287.51 206.443 295.865 199.941C295.865 199.941 306.896 211.397 296.105 217.644C296.105 217.644 295.999 217.634 295.522 217.7C295.046 217.766 294.747 217.739 294.747 217.739Z" fill="#C5C70E"/>
<path d="M249.497 225.454H320.07V226.315C320.07 245.803 304.272 261.601 284.783 261.601C265.295 261.601 249.497 245.803 249.497 226.315V225.454Z" fill="#302A1A"/>
<path d="M258.564 200.174C257.708 200.918 256.9 202.588 255.864 204.026C254.977 205.668 253.88 208.205 253.188 209.946C251.798 213.429 250.821 217.082 250.243 220.791C249.682 224.502 249.518 228.273 249.81 231.992C250.109 235.709 250.846 239.367 251.984 242.864L252.873 242.491C251.722 239.087 250.971 235.513 250.628 231.875C250.278 228.237 250.373 224.531 250.862 220.867C251.369 217.203 252.271 213.579 253.587 210.108C254.243 208.372 254.991 206.67 255.843 205.026C258.083 201.501 258.257 201.084 258.564 200.174Z" fill="#3FE900"/>
<path d="M254.586 205.969C253.024 205.029 251.201 200.38 254.866 196.036C257.577 198.859 256.381 203.919 254.586 205.969Z" fill="#3FE900"/>
<path d="M255.021 206.383C256.638 207.3 261.614 206.573 263.517 201.102C259.674 200.112 255.885 203.742 255.021 206.383Z" fill="#3FE900"/>
<path d="M251.537 213.572C249.826 212.932 247.242 208.706 250.175 203.796C253.343 206.075 252.987 211.243 251.537 213.572Z" fill="#3FE900"/>
<path d="M251.991 213.998C253.706 214.698 258.567 213.357 259.814 207.734C255.877 207.243 252.539 211.291 251.991 213.998Z" fill="#3FE900"/>
<path d="M249.668 222.614C247.85 222.307 244.54 218.656 246.614 213.302C250.169 214.94 250.711 220.063 249.668 222.614Z" fill="#3FE900"/>
<path d="M250.547 222.87C252.362 223.202 256.882 220.926 257.048 215.232C253.09 215.549 250.575 220.139 250.547 222.87Z" fill="#3FE900"/>
<path d="M249.67 231.21C247.801 231.309 243.763 228.478 244.732 222.814C248.601 223.631 250.186 228.5 249.67 231.21Z" fill="#3FE900"/>
<path d="M250.599 231.334C252.444 231.279 256.44 228.138 255.507 222.589C251.685 223.716 250.101 228.683 250.599 231.334Z" fill="#3FE900"/>
<path d="M251.479 240.392C249.633 240.839 245.112 238.818 245.083 233.079C249.082 233.156 251.517 237.636 251.479 240.392Z" fill="#3FE900"/>
<path d="M252.403 240.152C254.199 239.674 257.445 235.722 255.35 230.587C251.846 232.555 251.351 237.711 252.403 240.152Z" fill="#3FE900"/>
<path d="M257.544 201.725C256.874 199.963 258.166 194.97 263.568 193.695C264.036 197.74 260.145 201.166 257.544 201.725Z" fill="#3FE900"/>
<path d="M317.124 235.781C307.821 267.885 264.128 268.949 251.11 237.171C249.999 229.65 249.821 214.415 255.769 203.804" stroke="url(#paint2_linear)" stroke-width="2.38352"/>
<path d="M317.124 235.782C310.041 260.223 283.025 266.674 264.788 254.338C259.071 250.47 254.217 244.756 251.11 237.172" stroke="url(#paint3_linear)" stroke-width="2.38352"/>
<path d="M338.327 173.067H228.101V179.289H338.327V173.067Z" fill="white"/>
<path d="M339.88 267.947H229.653V272.613H339.88V267.947Z" fill="white"/>
<path d="M332.47 20.7479H237.641V7.39028C237.641 3.4407 240.833 0.242912 244.775 0.242912H325.996C329.574 0.242912 332.47 3.14421 332.47 6.72848V20.7479Z" fill="#2DAD23"/>
<path d="M567.683 104.066L552.606 36.5893C550.915 29.0131 550.059 21.2728 550.059 13.5113V10.1547H470.371V13.5113C470.371 21.2728 469.515 29.0131 467.824 36.5893L452.747 104.066C450.871 112.463 450.633 121.151 452.044 129.637L453.318 137.288V328.668C453.318 338.107 460.954 345.758 470.376 345.758H479.925H540.51H550.059C559.481 345.758 567.117 338.107 567.117 328.668V137.288L568.391 129.637C569.797 121.145 569.559 112.463 567.683 104.066Z" fill="#EBBD1B"/>
<g opacity="0.4">
<path d="M473.568 78.5144C473.224 78.5144 472.875 78.4774 472.521 78.4032C469.81 77.8262 468.077 75.1578 468.648 72.4418L473.472 49.6126C474.048 46.8966 476.712 45.1601 479.423 45.7319C482.134 46.3089 483.867 48.9773 483.296 51.6933L478.471 74.5225C477.975 76.8891 475.887 78.5144 473.568 78.5144Z" fill="#F7FEF9"/>
</g>
<g opacity="0.4">
<path d="M466.962 316.268C464.188 316.268 461.942 314.018 461.942 311.238V136.573L460.552 128.218C459.316 120.79 459.522 113.304 461.165 105.955L463.258 96.5844C463.866 93.8737 466.545 92.1689 469.256 92.7725C471.961 93.3813 473.663 96.0708 473.061 98.7815L470.968 108.153C469.61 114.23 469.441 120.425 470.461 126.566L471.988 135.741V311.244C471.983 314.018 469.731 316.268 466.962 316.268Z" fill="#F7FEF9"/>
</g>
<path opacity="0.2" d="M567.683 104.066L552.606 36.5893C550.915 29.0131 550.059 21.2728 550.059 13.5113V10.1547H533.688V13.5113C533.688 21.2728 534.544 29.0131 536.235 36.5893L551.312 104.06C553.188 112.457 553.425 121.145 552.014 129.632L550.741 137.282V328.662C550.741 338.102 543.105 345.753 533.683 345.753H540.505H550.054C559.476 345.753 567.112 338.102 567.112 328.662V137.288L568.386 129.637C569.796 121.145 569.559 112.463 567.683 104.066Z" fill="#464646"/>
<path d="M567.001 166.845H453.669V278.835H567.001V166.845Z" fill="#00B836"/>
<path d="M475.065 224.592C475.065 205.104 490.863 189.306 510.352 189.306C529.84 189.306 545.638 205.104 545.638 224.592V225.453H475.065V224.592Z" fill="#00B836"/>
<path d="M475.065 225.455C474.229 205.744 490.306 189.307 510.035 189.307C529.525 189.307 545.638 205.107 545.638 224.596V225.455H475.065Z" fill="white"/>
<path d="M516.637 219.985C518.148 214.247 508.717 209.158 499.658 214.633C499.658 214.633 506.363 229.064 516.06 221.22C516.06 221.22 516.089 221.117 516.322 220.695C516.555 220.273 516.637 219.985 516.637 219.985Z" fill="#3FE900"/>
<path d="M544.779 196.059L549.764 198.641L526.638 238.776L514.947 232.013L544.779 196.059Z" fill="#302A1A"/>
<ellipse rx="5.80546" ry="3.49711" transform="matrix(0.921775 0.387726 -0.386446 0.922312 546.563 198.774)" fill="#302A1A"/>
<path d="M520.316 217.739C514.429 217.09 513.078 206.443 521.434 199.941C521.434 199.941 532.464 211.397 521.674 217.644C521.674 217.644 521.567 217.634 521.091 217.7C520.614 217.766 520.316 217.739 520.316 217.739Z" fill="#C5C70E"/>
<path d="M475.065 225.454H545.638V226.315C545.638 245.803 529.84 261.601 510.352 261.601C490.863 261.601 475.065 245.803 475.065 226.315V225.454Z" fill="#302A1A"/>
<path d="M484.133 200.174C483.277 200.918 482.469 202.588 481.433 204.026C480.546 205.668 479.449 208.205 478.757 209.946C477.367 213.429 476.39 217.082 475.812 220.791C475.251 224.502 475.087 228.273 475.379 231.992C475.678 235.709 476.415 239.367 477.553 242.864L478.442 242.491C477.291 239.087 476.54 235.513 476.197 231.875C475.847 228.237 475.942 224.531 476.431 220.867C476.938 217.203 477.84 213.579 479.156 210.108C479.812 208.372 480.56 206.67 481.412 205.026C483.652 201.501 483.826 201.084 484.133 200.174Z" fill="#3FE900"/>
<path d="M480.155 205.969C478.594 205.029 476.77 200.38 480.435 196.036C483.147 198.859 481.951 203.919 480.155 205.969Z" fill="#3FE900"/>
<path d="M480.59 206.383C482.207 207.3 487.183 206.573 489.086 201.102C485.243 200.112 481.454 203.742 480.59 206.383Z" fill="#3FE900"/>
<path d="M477.106 213.572C475.395 212.932 472.811 208.706 475.745 203.796C478.912 206.075 478.556 211.243 477.106 213.572Z" fill="#3FE900"/>
<path d="M477.56 213.998C479.275 214.698 484.136 213.357 485.383 207.734C481.446 207.243 478.108 211.291 477.56 213.998Z" fill="#3FE900"/>
<path d="M475.238 222.614C473.42 222.307 470.109 218.656 472.184 213.302C475.738 214.94 476.28 220.063 475.238 222.614Z" fill="#3FE900"/>
<path d="M476.116 222.87C477.931 223.202 482.452 220.926 482.618 215.232C478.66 215.549 476.144 220.139 476.116 222.87Z" fill="#3FE900"/>
<path d="M475.24 231.21C473.37 231.309 469.333 228.478 470.302 222.814C474.171 223.631 475.756 228.5 475.24 231.21Z" fill="#3FE900"/>
<path d="M476.168 231.334C478.013 231.279 482.009 228.138 481.076 222.589C477.255 223.716 475.67 228.683 476.168 231.334Z" fill="#3FE900"/>
<path d="M477.048 240.392C475.202 240.839 470.682 238.817 470.652 233.079C474.651 233.156 477.086 237.636 477.048 240.392Z" fill="#3FE900"/>
<path d="M477.973 240.152C479.768 239.674 483.014 235.722 480.919 230.587C477.415 232.555 476.921 237.711 477.973 240.152Z" fill="#3FE900"/>
<path d="M483.114 201.725C482.443 199.963 483.735 194.97 489.137 193.695C489.605 197.74 485.714 201.166 483.114 201.725Z" fill="#3FE900"/>
<path d="M542.693 235.781C533.39 267.885 489.696 268.949 476.679 237.171C475.568 229.65 475.39 214.415 481.337 203.804" stroke="url(#paint4_linear)" stroke-width="2.38352"/>
<path d="M542.692 235.782C535.61 260.223 508.594 266.674 490.357 254.337C484.64 250.47 479.785 244.756 476.678 237.172" stroke="url(#paint5_linear)" stroke-width="2.38352"/>
<path d="M563.896 173.067H453.669V179.289H563.896V173.067Z" fill="white"/>
<path d="M565.449 267.946H455.222V272.613H565.449V267.946Z" fill="white"/>
<path d="M558.039 20.7478H463.21V7.39022C463.21 3.44064 466.402 0.242859 470.344 0.242859H551.565C555.143 0.242859 558.039 3.14416 558.039 6.72843V20.7478Z" fill="#2DAD23"/>
<path d="M793.252 104.066L778.176 36.5894C776.485 29.0132 775.629 21.2729 775.629 13.5114V10.1547H695.94V13.5114C695.94 21.2729 695.084 29.0132 693.393 36.5894L678.316 104.066C676.44 112.463 676.203 121.151 677.613 129.637L678.887 137.288V328.668C678.887 338.108 686.523 345.758 695.945 345.758H705.494H766.08H775.629C785.051 345.758 792.687 338.108 792.687 328.668V137.288L793.96 129.637C795.366 121.145 795.128 112.463 793.252 104.066Z" fill="#EBBD1B"/>
<g opacity="0.4">
<path d="M699.137 78.5145C698.793 78.5145 698.444 78.4774 698.09 78.4033C695.379 77.8262 693.646 75.1579 694.217 72.4419L699.042 49.6127C699.618 46.8967 702.281 45.1601 704.992 45.7319C707.703 46.309 709.436 48.9773 708.865 51.6933L704.041 74.5226C703.544 76.8891 701.456 78.5145 699.137 78.5145Z" fill="#F7FEF9"/>
</g>
<g opacity="0.4">
<path d="M692.531 316.268C689.757 316.268 687.511 314.018 687.511 311.238V136.573L686.121 128.218C684.885 120.79 685.091 113.304 686.734 105.955L688.827 96.5845C689.435 93.8737 692.114 92.169 694.825 92.7725C697.53 93.3814 699.232 96.0709 698.629 98.7816L696.537 108.153C695.179 114.23 695.01 120.425 696.03 126.566L697.557 135.741V311.244C697.551 314.018 695.3 316.268 692.531 316.268Z" fill="#F7FEF9"/>
</g>
<path opacity="0.2" d="M793.252 104.066L778.176 36.5894C776.485 29.0132 775.629 21.2729 775.629 13.5114V10.1547H759.257V13.5114C759.257 21.2729 760.114 29.0132 761.805 36.5894L776.881 104.061C778.757 112.457 778.995 121.145 777.584 129.632L776.31 137.283V328.662C776.31 338.102 768.674 345.753 759.252 345.753H766.074H775.623C785.045 345.753 792.681 338.102 792.681 328.662V137.288L793.955 129.637C795.366 121.145 795.128 112.463 793.252 104.066Z" fill="#464646"/>
<path d="M792.57 166.845H679.239V278.835H792.57V166.845Z" fill="#00B836"/>
<path d="M700.634 224.593C700.634 205.104 716.432 189.306 735.921 189.306C755.409 189.306 771.207 205.104 771.207 224.593V225.453H700.634V224.593Z" fill="#00B836"/>
<path d="M700.633 225.455C699.798 205.744 715.875 189.307 735.603 189.307C755.093 189.307 771.207 205.107 771.207 224.596V225.455H700.633Z" fill="white"/>
<path d="M742.206 219.985C743.717 214.247 734.285 209.158 725.226 214.633C725.226 214.633 731.932 229.064 741.629 221.22C741.629 221.22 741.657 221.117 741.89 220.695C742.123 220.273 742.206 219.985 742.206 219.985Z" fill="#3FE900"/>
<path d="M770.348 196.059L775.333 198.641L752.206 238.776L740.516 232.014L770.348 196.059Z" fill="#302A1A"/>
<ellipse rx="5.80546" ry="3.49711" transform="matrix(0.921775 0.387726 -0.386446 0.922312 772.132 198.774)" fill="#302A1A"/>
<path d="M745.884 217.739C739.997 217.09 738.647 206.443 747.003 199.941C747.003 199.941 758.033 211.397 747.242 217.644C747.242 217.644 747.136 217.634 746.659 217.7C746.183 217.766 745.884 217.739 745.884 217.739Z" fill="#C5C70E"/>
<path d="M700.634 225.454H771.207V226.315C771.207 245.803 755.409 261.601 735.921 261.601C716.432 261.601 700.634 245.803 700.634 226.315V225.454Z" fill="#302A1A"/>
<path d="M709.701 200.174C708.845 200.918 708.037 202.588 707.001 204.026C706.114 205.668 705.017 208.205 704.325 209.946C702.935 213.429 701.958 217.082 701.38 220.791C700.819 224.502 700.655 228.273 700.946 231.992C701.246 235.709 701.983 239.367 703.121 242.864L704.01 242.491C702.859 239.087 702.108 235.513 701.765 231.875C701.414 228.237 701.51 224.531 701.999 220.867C702.506 217.203 703.408 213.579 704.724 210.108C705.379 208.372 706.128 206.67 706.98 205.026C709.22 201.501 709.394 201.084 709.701 200.174Z" fill="#3FE900"/>
<path d="M705.723 205.969C704.161 205.029 702.338 200.38 706.003 196.036C708.714 198.859 707.518 203.919 705.723 205.969Z" fill="#3FE900"/>
<path d="M706.158 206.383C707.774 207.3 712.751 206.573 714.654 201.102C710.811 200.112 707.022 203.742 706.158 206.383Z" fill="#3FE900"/>
<path d="M702.674 213.572C700.963 212.932 698.379 208.706 701.313 203.796C704.48 206.075 704.124 211.243 702.674 213.572Z" fill="#3FE900"/>
<path d="M703.128 213.998C704.843 214.698 709.704 213.357 710.951 207.734C707.014 207.243 703.676 211.291 703.128 213.998Z" fill="#3FE900"/>
<path d="M700.805 222.614C698.987 222.307 695.677 218.656 697.751 213.302C701.306 214.94 701.848 220.063 700.805 222.614Z" fill="#3FE900"/>
<path d="M701.684 222.87C703.499 223.202 708.019 220.926 708.185 215.232C704.227 215.549 701.712 220.139 701.684 222.87Z" fill="#3FE900"/>
<path d="M700.808 231.21C698.938 231.309 694.901 228.478 695.87 222.814C699.738 223.631 701.324 228.5 700.808 231.21Z" fill="#3FE900"/>
<path d="M701.736 231.334C703.581 231.279 707.577 228.138 706.644 222.589C702.822 223.716 701.238 228.683 701.736 231.334Z" fill="#3FE900"/>
<path d="M702.616 240.392C700.77 240.839 696.249 238.818 696.22 233.079C700.219 233.156 702.654 237.636 702.616 240.392Z" fill="#3FE900"/>
<path d="M703.541 240.152C705.336 239.674 708.582 235.722 706.487 230.587C702.983 232.555 702.489 237.711 703.541 240.152Z" fill="#3FE900"/>
<path d="M708.681 201.725C708.011 199.963 709.303 194.97 714.705 193.695C715.173 197.74 711.282 201.166 708.681 201.725Z" fill="#3FE900"/>
<path d="M768.261 235.781C758.958 267.885 715.265 268.949 702.247 237.171C701.136 229.65 700.958 214.415 706.906 203.804" stroke="url(#paint6_linear)" stroke-width="2.38352"/>
<path d="M768.261 235.782C761.179 260.224 734.163 266.674 715.926 254.338C710.209 250.47 705.354 244.756 702.247 237.172" stroke="url(#paint7_linear)" stroke-width="2.38352"/>
<path d="M789.465 173.067H679.239V179.289H789.465V173.067Z" fill="white"/>
<path d="M791.017 267.947H680.791V272.613H791.017V267.947Z" fill="white"/>
<path d="M783.608 20.7479H688.779V7.39028C688.779 3.4407 691.971 0.24292 695.913 0.24292H777.134C780.712 0.24292 783.608 3.14422 783.608 6.72849V20.7479Z" fill="#2DAD23"/>
<path d="M1018.82 104.066L1003.74 36.5894C1002.05 29.0132 1001.2 21.2728 1001.2 13.5113V10.1547H921.509V13.5113C921.509 21.2728 920.653 29.0132 918.962 36.5894L903.885 104.066C902.009 112.463 901.771 121.151 903.182 129.637L904.456 137.288V328.668C904.456 338.108 912.092 345.758 921.514 345.758H931.063H991.648H1001.2C1010.62 345.758 1018.26 338.108 1018.26 328.668V137.288L1019.53 129.637C1020.93 121.145 1020.7 112.463 1018.82 104.066Z" fill="#EBBD1B"/>
<g opacity="0.4">
<path d="M924.705 78.5145C924.362 78.5145 924.013 78.4774 923.659 78.4033C920.948 77.8262 919.215 75.1578 919.786 72.4418L924.61 49.6126C925.186 46.8966 927.85 45.1601 930.561 45.7319C933.271 46.309 935.005 48.9773 934.434 51.6933L929.609 74.5225C929.113 76.8891 927.025 78.5145 924.705 78.5145Z" fill="#F7FEF9"/>
</g>
<g opacity="0.4">
<path d="M918.1 316.268C915.326 316.268 913.08 314.018 913.08 311.238V136.573L911.69 128.218C910.454 120.79 910.66 113.304 912.303 105.955L914.396 96.5844C915.004 93.8737 917.683 92.1689 920.394 92.7725C923.099 93.3813 924.801 96.0709 924.199 98.7816L922.106 108.153C920.748 114.23 920.579 120.425 921.599 126.566L923.126 135.741V311.244C923.121 314.018 920.869 316.268 918.1 316.268Z" fill="#F7FEF9"/>
</g>
<path opacity="0.2" d="M1018.82 104.066L1003.74 36.5894C1002.05 29.0132 1001.2 21.2728 1001.2 13.5113V10.1547H984.826V13.5113C984.826 21.2728 985.682 29.0132 987.373 36.5894L1002.45 104.06C1004.33 112.457 1004.56 121.145 1003.15 129.632L1001.88 137.282V328.662C1001.88 338.102 994.243 345.753 984.821 345.753H991.643H1001.19C1010.61 345.753 1018.25 338.102 1018.25 328.662V137.288L1019.52 129.637C1020.93 121.145 1020.7 112.463 1018.82 104.066Z" fill="#464646"/>
<path d="M1018.14 166.845H904.807V278.835H1018.14V166.845Z" fill="#00B836"/>
<path d="M926.203 224.592C926.203 205.104 942.001 189.306 961.489 189.306C980.978 189.306 996.776 205.104 996.776 224.592V225.453H926.203V224.592Z" fill="#00B836"/>
<path d="M926.203 225.455C925.367 205.744 941.444 189.307 961.173 189.307C980.662 189.307 996.776 205.107 996.776 224.596V225.455H926.203Z" fill="white"/>
<path d="M967.775 219.985C969.286 214.247 959.854 209.158 950.795 214.633C950.795 214.633 957.501 229.064 967.198 221.22C967.198 221.22 967.226 221.117 967.459 220.695C967.692 220.273 967.775 219.985 967.775 219.985Z" fill="#3FE900"/>
<path d="M995.917 196.059L1000.9 198.641L977.775 238.776L966.084 232.014L995.917 196.059Z" fill="#302A1A"/>
<ellipse rx="5.80546" ry="3.49711" transform="matrix(0.921775 0.387726 -0.386446 0.922312 997.701 198.774)" fill="#302A1A"/>
<path d="M971.453 217.739C965.567 217.09 964.216 206.443 972.572 199.941C972.572 199.941 983.602 211.397 972.811 217.644C972.811 217.644 972.705 217.634 972.229 217.7C971.752 217.766 971.453 217.739 971.453 217.739Z" fill="#C5C70E"/>
<path d="M926.203 225.454H996.776V226.315C996.776 245.803 980.978 261.601 961.489 261.601C942.001 261.601 926.203 245.803 926.203 226.315V225.454Z" fill="#302A1A"/>
<path d="M935.27 200.174C934.415 200.918 933.607 202.588 932.57 204.026C931.683 205.668 930.587 208.205 929.895 209.946C928.504 213.429 927.528 217.082 926.949 220.791C926.389 224.502 926.224 228.273 926.516 231.992C926.815 235.709 927.552 239.367 928.69 242.864L929.58 242.491C928.428 239.087 927.677 235.513 927.334 231.875C926.984 228.237 927.08 224.531 927.569 220.867C928.075 217.204 928.977 213.579 930.294 210.108C930.949 208.372 931.697 206.67 932.549 205.026C934.789 201.501 934.964 201.084 935.27 200.174Z" fill="#3FE900"/>
<path d="M931.293 205.969C929.731 205.029 927.908 200.38 931.573 196.036C934.284 198.859 933.088 203.919 931.293 205.969Z" fill="#3FE900"/>
<path d="M931.728 206.383C933.344 207.3 938.321 206.573 940.224 201.102C936.38 200.112 932.592 203.742 931.728 206.383Z" fill="#3FE900"/>
<path d="M928.243 213.572C926.532 212.932 923.948 208.706 926.882 203.796C930.05 206.075 929.694 211.243 928.243 213.572Z" fill="#3FE900"/>
<path d="M928.698 213.998C930.413 214.698 935.274 213.357 936.521 207.734C932.584 207.243 929.246 211.291 928.698 213.998Z" fill="#3FE900"/>
<path d="M926.375 222.614C924.557 222.307 921.247 218.656 923.321 213.302C926.876 214.94 927.417 220.063 926.375 222.614Z" fill="#3FE900"/>
<path d="M927.254 222.87C929.069 223.202 933.589 220.926 933.755 215.232C929.797 215.549 927.282 220.139 927.254 222.87Z" fill="#3FE900"/>
<path d="M926.377 231.21C924.507 231.309 920.47 228.478 921.439 222.814C925.308 223.631 926.893 228.5 926.377 231.21Z" fill="#3FE900"/>
<path d="M927.306 231.334C929.151 231.279 933.147 228.138 932.214 222.589C928.392 223.716 926.808 228.683 927.306 231.334Z" fill="#3FE900"/>
<path d="M928.186 240.392C926.34 240.839 921.819 238.818 921.79 233.079C925.789 233.156 928.224 237.636 928.186 240.392Z" fill="#3FE900"/>
<path d="M929.11 240.152C930.906 239.674 934.151 235.722 932.056 230.587C928.553 232.555 928.058 237.711 929.11 240.152Z" fill="#3FE900"/>
<path d="M934.251 201.725C933.58 199.963 934.872 194.97 940.274 193.695C940.743 197.74 936.851 201.166 934.251 201.725Z" fill="#3FE900"/>
<path d="M993.831 235.781C984.527 267.885 940.834 268.949 927.817 237.171C926.706 229.65 926.528 214.415 932.475 203.804" stroke="url(#paint8_linear)" stroke-width="2.38352"/>
<path d="M993.83 235.782C986.748 260.223 959.732 266.674 941.495 254.338C935.778 250.47 930.923 244.756 927.816 237.172" stroke="url(#paint9_linear)" stroke-width="2.38352"/>
<path d="M1015.03 173.067H904.807V179.289H1015.03V173.067Z" fill="white"/>
<path d="M1016.59 267.946H906.36V272.613H1016.59V267.946Z" fill="white"/>
<path d="M1009.18 20.7479H914.348V7.39025C914.348 3.44067 917.54 0.242889 921.482 0.242889H1002.7C1006.28 0.242889 1009.18 3.14419 1009.18 6.72846V20.7479Z" fill="#2DAD23"/>
<path d="M1244.39 104.066L1229.31 36.5894C1227.62 29.0132 1226.77 21.2729 1226.77 13.5114V10.1547H1147.08V13.5114C1147.08 21.2729 1146.22 29.0132 1144.53 36.5894L1129.45 104.066C1127.58 112.463 1127.34 121.151 1128.75 129.637L1130.02 137.288V328.668C1130.02 338.108 1137.66 345.758 1147.08 345.758H1156.63H1217.22H1226.77C1236.19 345.758 1243.82 338.108 1243.82 328.668V137.288L1245.1 129.637C1246.5 121.145 1246.27 112.463 1244.39 104.066Z" fill="#EBBD1B"/>
<g opacity="0.4">
<path d="M1150.27 78.5145C1149.93 78.5145 1149.58 78.4774 1149.23 78.4033C1146.52 77.8262 1144.78 75.1579 1145.35 72.4419L1150.18 49.6127C1150.76 46.8967 1153.42 45.1601 1156.13 45.7319C1158.84 46.309 1160.57 48.9773 1160 51.6933L1155.18 74.5226C1154.68 76.8891 1152.59 78.5145 1150.27 78.5145Z" fill="#F7FEF9"/>
</g>
<g opacity="0.4">
<path d="M1143.67 316.268C1140.89 316.268 1138.65 314.018 1138.65 311.238V136.573L1137.26 128.218C1136.02 120.79 1136.23 113.304 1137.87 105.955L1139.96 96.5845C1140.57 93.8737 1143.25 92.169 1145.96 92.7725C1148.67 93.3814 1150.37 96.0709 1149.77 98.7816L1147.67 108.153C1146.32 114.23 1146.15 120.425 1147.17 126.566L1148.69 135.741V311.244C1148.69 314.018 1146.44 316.268 1143.67 316.268Z" fill="#F7FEF9"/>
</g>
<path opacity="0.2" d="M1244.39 104.066L1229.31 36.5894C1227.62 29.0132 1226.77 21.2729 1226.77 13.5114V10.1547H1210.4V13.5114C1210.4 21.2729 1211.25 29.0132 1212.94 36.5894L1228.02 104.061C1229.89 112.457 1230.13 121.145 1228.72 129.632L1227.45 137.283V328.662C1227.45 338.102 1219.81 345.753 1210.39 345.753H1217.21H1226.76C1236.18 345.753 1243.82 338.102 1243.82 328.662V137.288L1245.09 129.637C1246.5 121.145 1246.27 112.463 1244.39 104.066Z" fill="#464646"/>
<path d="M1243.71 166.845H1130.38V278.835H1243.71V166.845Z" fill="#00B836"/>
<path d="M1151.77 224.593C1151.77 205.104 1167.57 189.306 1187.06 189.306C1206.55 189.306 1222.34 205.104 1222.34 224.593V225.453H1151.77V224.593Z" fill="#00B836"/>
<path d="M1151.77 225.455C1150.94 205.744 1167.01 189.307 1186.74 189.307C1206.23 189.307 1222.34 205.107 1222.34 224.596V225.455H1151.77Z" fill="white"/>
<path d="M1193.34 219.985C1194.86 214.247 1185.42 209.158 1176.36 214.633C1176.36 214.633 1183.07 229.064 1192.77 221.22C1192.77 221.22 1192.8 221.117 1193.03 220.695C1193.26 220.273 1193.34 219.985 1193.34 219.985Z" fill="#3FE900"/>
<path d="M1221.49 196.059L1226.47 198.641L1203.34 238.776L1191.65 232.014L1221.49 196.059Z" fill="#302A1A"/>
<ellipse rx="5.80546" ry="3.49711" transform="matrix(0.921775 0.387726 -0.386446 0.922312 1223.27 198.774)" fill="#302A1A"/>
<path d="M1197.02 217.739C1191.14 217.09 1189.78 206.443 1198.14 199.941C1198.14 199.941 1209.17 211.397 1198.38 217.644C1198.38 217.644 1198.27 217.634 1197.8 217.7C1197.32 217.766 1197.02 217.739 1197.02 217.739Z" fill="#C5C70E"/>
<path d="M1151.77 225.454H1222.34V226.315C1222.34 245.803 1206.55 261.601 1187.06 261.601C1167.57 261.601 1151.77 245.803 1151.77 226.315V225.454Z" fill="#302A1A"/>
<path d="M1160.84 200.174C1159.98 200.918 1159.18 202.588 1158.14 204.026C1157.25 205.668 1156.16 208.205 1155.46 209.946C1154.07 213.429 1153.1 217.082 1152.52 220.791C1151.96 224.502 1151.79 228.273 1152.08 231.992C1152.38 235.709 1153.12 239.367 1154.26 242.864L1155.15 242.491C1154 239.087 1153.25 235.513 1152.9 231.875C1152.55 228.237 1152.65 224.531 1153.14 220.867C1153.64 217.203 1154.55 213.579 1155.86 210.108C1156.52 208.372 1157.27 206.67 1158.12 205.026C1160.36 201.501 1160.53 201.084 1160.84 200.174Z" fill="#3FE900"/>
<path d="M1156.86 205.969C1155.3 205.029 1153.48 200.38 1157.14 196.036C1159.85 198.859 1158.66 203.919 1156.86 205.969Z" fill="#3FE900"/>
<path d="M1157.3 206.383C1158.91 207.3 1163.89 206.573 1165.79 201.102C1161.95 200.112 1158.16 203.742 1157.3 206.383Z" fill="#3FE900"/>
<path d="M1153.81 213.572C1152.1 212.932 1149.52 208.706 1152.45 203.796C1155.62 206.075 1155.26 211.243 1153.81 213.572Z" fill="#3FE900"/>
<path d="M1154.27 213.998C1155.98 214.698 1160.84 213.357 1162.09 207.734C1158.15 207.243 1154.81 211.291 1154.27 213.998Z" fill="#3FE900"/>
<path d="M1151.94 222.614C1150.13 222.307 1146.82 218.656 1148.89 213.302C1152.44 214.94 1152.99 220.063 1151.94 222.614Z" fill="#3FE900"/>
<path d="M1152.82 222.87C1154.64 223.202 1159.16 220.926 1159.32 215.232C1155.37 215.549 1152.85 220.139 1152.82 222.87Z" fill="#3FE900"/>
<path d="M1151.95 231.21C1150.08 231.309 1146.04 228.478 1147.01 222.814C1150.88 223.631 1152.46 228.5 1151.95 231.21Z" fill="#3FE900"/>
<path d="M1152.87 231.334C1154.72 231.279 1158.72 228.138 1157.78 222.589C1153.96 223.716 1152.38 228.683 1152.87 231.334Z" fill="#3FE900"/>
<path d="M1153.75 240.392C1151.91 240.839 1147.39 238.818 1147.36 233.079C1151.36 233.156 1153.79 237.636 1153.75 240.392Z" fill="#3FE900"/>
<path d="M1154.68 240.152C1156.47 239.674 1159.72 235.722 1157.63 230.587C1154.12 232.556 1153.63 237.711 1154.68 240.152Z" fill="#3FE900"/>
<path d="M1159.82 201.725C1159.15 199.963 1160.44 194.97 1165.84 193.695C1166.31 197.74 1162.42 201.166 1159.82 201.725Z" fill="#3FE900"/>
<path d="M1219.4 235.781C1210.1 267.885 1166.4 268.949 1153.39 237.171C1152.27 229.65 1152.1 214.415 1158.04 203.804" stroke="url(#paint10_linear)" stroke-width="2.38352"/>
<path d="M1219.4 235.782C1212.32 260.223 1185.3 266.674 1167.06 254.338C1161.35 250.47 1156.49 244.756 1153.39 237.172" stroke="url(#paint11_linear)" stroke-width="2.38352"/>
<path d="M1240.6 173.067H1130.38V179.289H1240.6V173.067Z" fill="white"/>
<path d="M1242.15 267.947H1131.93V272.613H1242.15V267.947Z" fill="white"/>
<path d="M1234.75 20.7479H1139.92V7.39028C1139.92 3.4407 1143.11 0.24292 1147.05 0.24292H1228.27C1231.85 0.24292 1234.75 3.14422 1234.75 6.72849V20.7479Z" fill="#2DAD23"/>
<path d="M509.309 179.002C506.414 110.84 562.128 54 630.351 54C697.872 54 753.818 108.737 753.818 176.258V179.002H509.309Z" fill="#00B836"/>
<path d="M509.309 179.002H753.818V181.749C753.818 249.268 699.083 304.004 631.563 304.004C564.044 304.004 509.309 249.268 509.309 181.749V179.002Z" fill="#302A1A"/>
<path d="M653.082 107.991H610.457V157.628H560.728V200.252H610.457V249.889H653.082V200.252H702.81V157.628H653.082V107.991Z" fill="#F7FEF9"/>
<defs>
<linearGradient id="paint0_linear" x1="86.5327" y1="236.443" x2="28.7782" y2="239.411" gradientUnits="userSpaceOnUse">
<stop stop-color="#302A1A"/>
<stop offset="0.304637" stop-color="#3FE900"/>
</linearGradient>
<linearGradient id="paint1_linear" x1="86.5325" y1="236.444" x2="28.778" y2="239.412" gradientUnits="userSpaceOnUse">
<stop stop-color="#302A1A"/>
<stop offset="0.304637" stop-color="#3FE900"/>
</linearGradient>
<linearGradient id="paint2_linear" x1="312.102" y1="236.443" x2="254.347" y2="239.411" gradientUnits="userSpaceOnUse">
<stop stop-color="#302A1A"/>
<stop offset="0.304637" stop-color="#3FE900"/>
</linearGradient>
<linearGradient id="paint3_linear" x1="312.102" y1="236.444" x2="254.347" y2="239.412" gradientUnits="userSpaceOnUse">
<stop stop-color="#302A1A"/>
<stop offset="0.304637" stop-color="#3FE900"/>
</linearGradient>
<linearGradient id="paint4_linear" x1="537.67" y1="236.443" x2="479.916" y2="239.411" gradientUnits="userSpaceOnUse">
<stop stop-color="#302A1A"/>
<stop offset="0.304637" stop-color="#3FE900"/>
</linearGradient>
<linearGradient id="paint5_linear" x1="537.67" y1="236.444" x2="479.916" y2="239.412" gradientUnits="userSpaceOnUse">
<stop stop-color="#302A1A"/>
<stop offset="0.304637" stop-color="#3FE900"/>
</linearGradient>
<linearGradient id="paint6_linear" x1="763.239" y1="236.443" x2="705.485" y2="239.411" gradientUnits="userSpaceOnUse">
<stop stop-color="#302A1A"/>
<stop offset="0.304637" stop-color="#3FE900"/>
</linearGradient>
<linearGradient id="paint7_linear" x1="763.239" y1="236.444" x2="705.485" y2="239.412" gradientUnits="userSpaceOnUse">
<stop stop-color="#302A1A"/>
<stop offset="0.304637" stop-color="#3FE900"/>
</linearGradient>
<linearGradient id="paint8_linear" x1="988.808" y1="236.443" x2="931.054" y2="239.411" gradientUnits="userSpaceOnUse">
<stop stop-color="#302A1A"/>
<stop offset="0.304637" stop-color="#3FE900"/>
</linearGradient>
<linearGradient id="paint9_linear" x1="988.808" y1="236.444" x2="931.054" y2="239.412" gradientUnits="userSpaceOnUse">
<stop stop-color="#302A1A"/>
<stop offset="0.304637" stop-color="#3FE900"/>
</linearGradient>
<linearGradient id="paint10_linear" x1="1214.38" y1="236.443" x2="1156.62" y2="239.411" gradientUnits="userSpaceOnUse">
<stop stop-color="#302A1A"/>
<stop offset="0.304637" stop-color="#3FE900"/>
</linearGradient>
<linearGradient id="paint11_linear" x1="1214.38" y1="236.444" x2="1156.62" y2="239.412" gradientUnits="userSpaceOnUse">
<stop stop-color="#302A1A"/>
<stop offset="0.304637" stop-color="#3FE900"/>
</linearGradient>
</defs>
</svg>
