<svg width="432" height="648" viewBox="0 0 432 648" fill="none" xmlns="http://www.w3.org/2000/svg">
<path d="M432 518C432 479.34 400.66 448 362 448H284V578C284 616.66 315.34 648 354 648H362C400.66 648 432 616.66 432 578V518Z" fill="#00B836"/>
<path d="M289.5 130C289.5 165.622 260.622 194.5 225 194.5H152.5V70C152.5 34.3776 181.378 5.5 217 5.5H225C260.622 5.5 289.5 34.3776 289.5 70V130Z" stroke="#00B836" stroke-width="11"/>
<path d="M247 356.189C247 331.784 227.216 312 202.811 312H153V398.351C153 422.756 172.784 442.541 197.189 442.541H202.811C227.216 442.541 247 422.756 247 398.351V356.189Z" stroke="#302A1A" stroke-width="10"/>
<path d="M103.5 291.811C103.5 318.701 81.7011 340.5 54.8108 340.5H0.5V249.649C0.5 222.758 22.2989 200.959 49.1892 200.959H54.8108C81.7011 200.959 103.5 222.758 103.5 249.649V291.811Z" fill="#302A1A" stroke="black"/>
</svg>
