<svg width="127" height="193" viewBox="0 0 127 193" fill="none" xmlns="http://www.w3.org/2000/svg">
<path d="M144.621 48.3122C138.329 42.0195 130.858 37.0278 122.636 33.6222C114.414 30.2166 105.602 28.4638 96.7031 28.4638C87.8038 28.4638 78.9917 30.2166 70.7699 33.6222C62.548 37.0278 55.0775 42.0195 48.7848 48.3122C42.492 54.6049 37.5004 62.0754 34.0948 70.2973C30.6892 78.5191 28.9363 87.3312 28.9363 96.2305C28.9363 105.13 30.6892 113.942 34.0948 122.164C37.5004 130.386 42.492 137.856 48.7848 144.149L144.621 48.3122Z" fill="#00B836"/>
<path d="M48.7849 144.149C55.0776 150.441 62.5482 155.433 70.77 158.839C78.9918 162.244 87.8039 163.997 96.7032 163.997C105.602 163.997 114.415 162.244 122.636 158.839C130.858 155.433 138.329 150.441 144.621 144.149C150.914 137.856 155.906 130.385 159.311 122.164C162.717 113.942 164.47 105.13 164.47 96.2305C164.47 87.3312 162.717 78.5191 159.311 70.2973C155.906 62.0754 150.914 54.6049 144.621 48.3122L48.7849 144.149Z" fill="#302A1A"/>
</svg>
