<svg width="408" height="401" viewBox="0 0 408 401" fill="none" xmlns="http://www.w3.org/2000/svg">
<circle cx="190.066" cy="210.237" r="190.066" fill="#D8F3E7"/>
<path d="M403.719 253.466H205.328L165.139 318.512H55.3062" stroke="#00B836" stroke-width="8.00235" stroke-linecap="round"/>
<g clip-path="url(#clip0)">
<path d="M112.014 142.497L118.528 145.664C130.344 151.409 144.58 146.488 150.325 134.672L194.504 43.8075C200.249 31.9913 195.327 17.7552 183.511 12.0101L176.997 8.84287C165.181 3.09782 150.945 8.01922 145.2 19.8354L101.022 110.699C95.2759 122.516 100.198 136.752 112.014 142.497Z" fill="#23286B"/>
<path d="M114.43 142.704C114.569 142.704 114.689 142.599 114.705 142.457C114.721 142.306 114.612 142.169 114.46 142.152C112.29 141.911 110.185 141.3 108.203 140.337C108.065 140.269 107.899 140.327 107.833 140.464C107.766 140.601 107.823 140.768 107.961 140.834C110 141.826 112.166 142.454 114.399 142.702C114.41 142.703 114.42 142.704 114.43 142.704ZM121.027 142.3C121.048 142.3 121.069 142.298 121.091 142.293C123.288 141.773 125.364 140.891 127.26 139.669C127.388 139.587 127.426 139.415 127.342 139.287C127.26 139.159 127.087 139.12 126.96 139.205C125.117 140.392 123.099 141.25 120.963 141.755C120.815 141.789 120.723 141.939 120.758 142.088C120.788 142.214 120.902 142.3 121.027 142.3ZM128.465 138.756C128.524 138.756 128.584 138.737 128.634 138.698C130.419 137.319 131.94 135.654 133.157 133.751C133.24 133.622 133.202 133.45 133.073 133.369C132.946 133.286 132.773 133.323 132.692 133.452C131.509 135.302 130.03 136.92 128.297 138.261C128.175 138.354 128.153 138.528 128.247 138.649C128.3 138.719 128.382 138.756 128.465 138.756ZM135.944 127.967C136.046 127.967 136.144 127.909 136.192 127.811L139.096 121.838C139.163 121.7 139.106 121.534 138.969 121.468C138.831 121.4 138.666 121.458 138.599 121.595L135.695 127.569C135.628 127.706 135.685 127.872 135.822 127.938C135.862 127.958 135.903 127.967 135.944 127.967ZM141.753 116.019C141.856 116.019 141.954 115.962 142.001 115.864L142.728 114.37C142.795 114.233 142.737 114.067 142.6 114.001C142.463 113.932 142.296 113.991 142.23 114.128L141.504 115.621C141.437 115.759 141.494 115.925 141.632 115.991C141.67 116.011 141.712 116.019 141.753 116.019ZM145.383 108.552C145.486 108.552 145.584 108.495 145.632 108.397L148.536 102.423C148.603 102.286 148.546 102.12 148.409 102.053C148.273 101.985 148.106 102.043 148.039 102.181L145.135 108.154C145.068 108.292 145.125 108.458 145.262 108.524C145.301 108.543 145.343 108.552 145.383 108.552ZM151.192 96.605C151.294 96.605 151.393 96.5475 151.441 96.4495L154.345 90.4758C154.412 90.3386 154.355 90.1725 154.218 90.1061C154.08 90.0385 153.914 90.0961 153.848 90.2334L150.944 96.207C150.877 96.3443 150.934 96.5104 151.071 96.5768C151.11 96.5962 151.152 96.605 151.192 96.605ZM154.823 89.138C154.925 89.138 155.024 89.0804 155.071 88.9824L157.976 83.0088C158.042 82.8715 157.985 82.7054 157.848 82.639C157.711 82.5715 157.544 82.629 157.478 82.7663L154.574 88.74C154.507 88.8772 154.564 89.0433 154.701 89.1097C154.74 89.1291 154.782 89.138 154.823 89.138ZM160.631 77.1906C160.734 77.1906 160.832 77.1331 160.88 77.0351L163.784 71.0614C163.851 70.9242 163.794 70.7581 163.657 70.6917C163.52 70.6242 163.353 70.6817 163.287 70.819L160.383 76.7927C160.316 76.9299 160.373 77.096 160.51 77.1624C160.549 77.1818 160.591 77.1906 160.631 77.1906ZM166.441 65.2433C166.544 65.2433 166.642 65.1858 166.689 65.0878L167.415 63.5944C167.482 63.4565 167.425 63.291 167.288 63.2246C167.15 63.1565 166.984 63.2152 166.918 63.3519L166.192 64.8453C166.125 64.9826 166.182 65.1487 166.319 65.2151C166.359 65.2345 166.4 65.2433 166.441 65.2433ZM170.071 57.7757C170.174 57.7757 170.272 57.7181 170.32 57.6202L171.541 55.1088C172.111 53.9359 172.567 52.706 172.894 51.4533C172.932 51.3055 172.844 51.1544 172.696 51.1162C172.55 51.0736 172.397 51.1655 172.359 51.3138C172.041 52.531 171.598 53.7267 171.044 54.8669L169.823 57.3783C169.756 57.5155 169.813 57.6816 169.95 57.748C169.989 57.7674 170.03 57.7757 170.071 57.7757ZM173.175 45.0734C173.184 45.0734 173.191 45.0728 173.2 45.0723C173.352 45.059 173.465 44.9239 173.451 44.7723C173.252 42.5266 172.674 40.3468 171.734 38.2921C171.67 38.1526 171.504 38.0934 171.367 38.1554C171.228 38.2191 171.167 38.3835 171.23 38.5224C172.144 40.5195 172.705 42.639 172.9 44.821C172.912 44.9654 173.033 45.0734 173.175 45.0734ZM136.687 37.65C136.787 37.65 136.882 37.5964 136.932 37.5028C137.964 35.5594 139.307 33.8268 140.922 32.3539C141.035 32.2509 141.043 32.076 140.94 31.9631C140.836 31.8502 140.661 31.8413 140.549 31.9454C138.887 33.461 137.506 35.2433 136.443 37.2432C136.371 37.3777 136.422 37.5454 136.557 37.6174C136.599 37.6401 136.644 37.65 136.687 37.65ZM170.728 37.2056C170.775 37.2056 170.821 37.1939 170.864 37.1701C170.997 37.0949 171.044 36.926 170.969 36.7926C169.856 34.8237 168.428 33.0785 166.724 31.6055C166.609 31.5053 166.434 31.5181 166.334 31.6338C166.234 31.7495 166.246 31.9238 166.362 32.024C168.018 33.456 169.406 35.1514 170.487 37.065C170.538 37.1552 170.632 37.2056 170.728 37.2056ZM146.307 28.8711C146.342 28.8711 146.379 28.8639 146.413 28.8495C146.913 28.6397 147.43 28.4482 147.948 28.2811C148.093 28.234 148.173 28.0785 148.126 27.9323C148.078 27.7873 147.924 27.7076 147.777 27.7547C147.244 27.9274 146.713 28.1239 146.199 28.3397C146.058 28.3984 145.991 28.5606 146.05 28.7017C146.096 28.8069 146.199 28.8711 146.307 28.8711ZM160.882 28.6807C160.993 28.6807 161.097 28.6143 161.14 28.5047C161.196 28.3624 161.126 28.2019 160.983 28.1465C158.876 27.3229 156.666 26.8718 154.414 26.8059C154.276 26.8109 154.133 26.9216 154.129 27.0744C154.125 27.2271 154.245 27.355 154.398 27.3594C156.586 27.4231 158.734 27.8615 160.781 28.6624C160.815 28.6746 160.849 28.6807 160.882 28.6807Z" fill="#D6D7D8"/>
<path d="M221.832 52.3928C226.355 57.4006 231.293 63.7274 232.784 67.5583C233.62 69.7077 231.752 76.8753 231.076 82.3712C230.408 85.2518 217.27 89.1696 216.174 76.1673C215.943 73.4285 214.278 69.7149 216.286 67.7415C218.488 65.5761 221.699 67.6032 224.161 65.7217C221.864 61.2697 220.358 58.5464 219.193 53.7716C218.723 52.0269 220.938 51.8924 221.832 52.3928Z" fill="#F2A19C"/>
<path d="M214.927 111.813C215.677 110.539 216.453 109.266 217.232 107.987C221.286 101.333 225.478 94.4525 227 86.2619C228.99 75.5589 228.034 59.9113 221.236 50.8462C217.46 45.813 197.123 28.2762 196.26 27.5322L193.37 30.8872C199.153 35.8689 214.797 49.6434 217.693 53.5037C223.424 61.1446 224.522 75.3597 222.646 85.4527C221.272 92.8445 217.296 99.3716 213.451 105.684C212.66 106.982 211.873 108.273 211.111 109.566L214.927 111.813Z" fill="#23286B"/>
<path d="M240.009 31.4711C240.622 31.7047 244.998 32.0949 245.619 31.8408C247.598 31.031 245.103 27.6905 244.488 26.2242C243.324 23.4455 241.597 15.3972 237.684 16.1085C237.593 18.1189 238.343 30.8351 240.009 31.4711Z" fill="#FFBEB6"/>
<path d="M94.7721 275.114C92.6006 287.768 82.2547 299.928 84.4256 313.711C101.213 314.481 139.175 314.481 157.346 314.2C157.661 292.499 131.65 304.106 126.111 289.476C125.266 287.247 126.89 281.454 126.007 280.287C124.674 278.524 117.83 278.767 115.663 278.414C108.927 277.315 101.781 275.138 94.7721 275.114Z" fill="url(#paint0_linear)"/>
<path d="M211.212 211.845C209.04 224.499 198.694 236.66 200.865 250.443C217.653 251.213 255.614 251.213 273.786 250.932C274.101 229.231 248.09 240.837 242.55 226.208C241.706 223.979 243.33 218.186 242.447 217.019C241.113 215.256 234.27 215.499 232.102 215.145C225.367 214.047 218.221 211.87 211.212 211.845Z" fill="#D62929"/>
<path d="M210.624 126.784C227.531 128.6 261.853 115.172 268.697 139.438C271.75 150.259 263.942 166.551 260.792 177.084C256.938 189.971 252.564 203.081 247.454 215.376C246.55 217.553 244.026 221.308 243.774 223.795C242.925 224.31 212.479 223.73 206.76 224.236C207.026 215.563 207.812 211.14 212.03 199.191C214.136 193.226 220.026 190.528 221.205 184.235C222.325 178.256 219.75 171.312 227.283 167.119C208.958 177.763 174.688 191.518 155.089 175.463C143.882 166.282 141.38 149.508 150.207 138.016C158.635 127.043 171.31 126.112 184.614 126.784C193.292 127.223 201.142 128.172 210.026 127.277C210.679 128.187 211.347 125.679 210.624 126.784Z" fill="#151A4F"/>
<path d="M198.673 150.686C187.442 165.287 181.73 177.12 172.506 192.869C165.578 204.697 159.737 216.997 153.875 229.247C148.649 240.168 143.838 251.28 139.448 262.617C136.246 270.886 131.295 281.894 127.97 291.027C117.122 291.355 98.6866 291.127 89.1139 291.178C88.9445 285.053 88.05 279.688 90.2713 273.71C93.9285 263.866 96.6934 262.99 100.818 256.133C107.576 244.903 99.1709 249.151 116.424 220.984C128.921 200.582 134.767 161.441 135.423 154.904C136.217 146.986 137.683 140.688 145.949 140.317C152.559 140.02 160.125 141.786 167.038 140.842C181.141 138.916 202.976 128.373 216.95 128.19C214.235 133.695 205.703 141.547 198.673 150.686Z" fill="url(#paint1_linear)"/>
<path d="M233.822 40.318C230.36 46.6929 219.253 50.8671 214.685 57.8365C212.227 56.4062 201.363 46.9437 201.228 43.8329C201.035 39.4041 213.45 31.5197 216.914 28.9502C222.13 34.2308 225.617 38.8345 233.233 41.0575C234.866 40.8881 233.023 40.2543 233.822 40.318Z" fill="#F2A19C"/>
<path d="M228.901 12.1991C248.584 17.8229 248.945 47.8766 223.98 43.8309C206.956 41.0716 200.402 2.99673 221.168 10.0902C221.708 10.7295 229.51 11.479 228.901 12.1991Z" fill="#FFBEB6"/>
<path d="M208.524 41.9554C224.961 49.1064 222.856 59.9151 222.731 78.2988C222.657 89.0677 222.093 126.713 222.093 126.713C222.093 126.713 203.776 133.979 200.095 135.92C194.281 138.989 187.74 141.473 181.802 143.672C169.946 148.061 159.229 151.618 146.653 152.248C141.916 152.485 136.72 153.662 131.997 151.969C128.445 130.064 145.411 103.322 154.877 84.4673C160.615 73.0398 166.88 63.2318 176.139 54.5498C180.975 50.0153 193.8 42.5316 196.22 41.7738C197.685 41.315 200.195 40.2384 202.553 40.3264C204.269 40.3911 206.212 40.9502 208.524 41.9554Z" fill="url(#paint2_linear)"/>
<path d="M244.367 31.8823C239.9 31.5673 233.862 31.4954 228.521 31.4085C225.444 31.3586 222.798 29.2049 222.139 26.1998C221.289 22.319 220.614 18.436 219.64 14.5547C217.74 15.0584 219.9 16.2928 218.115 16.9847C220.172 26.6227 217.894 43.6381 227.496 48.963C231.796 51.3481 239.766 52.4629 242.728 48.7676C245.12 45.7819 243.725 31.4068 244.367 31.8823Z" fill="#23286B"/>
<path d="M217.571 18.7942C216.992 17.091 214.582 15.6463 212.866 16.2569C210.864 16.9687 210.917 19.0505 211.198 20.7847C211.687 23.8175 215.099 28.1643 218.453 28.4112C217.999 31.1672 214.42 35.7997 211.369 34.1784C208.13 32.4569 207.91 27.6064 207.623 24.5797C207.29 21.0653 207.714 16.6377 210.876 14.3112C213.775 12.1774 218.318 14.48 217.54 18.3132C217.491 18.4732 217.621 18.6337 217.571 18.7942Z" fill="#23286B"/>
<path d="M246.071 20.3802H206.705V11.7407C206.705 5.64143 211.649 0.696777 217.748 0.696777H226.388C237.259 0.696777 246.071 9.50947 246.071 20.3802Z" fill="url(#paint3_linear)"/>
<path d="M207.408 21.3598H258.726C259.184 21.3598 259.556 20.9878 259.556 20.5295C259.556 20.0712 259.184 19.6992 258.726 19.6992H207.408C206.949 19.6992 206.577 20.0712 206.577 20.5295C206.577 20.9878 206.949 21.3598 207.408 21.3598Z" fill="#E94A47"/>
<path d="M237.024 40.87H237.929C239.777 40.87 241.276 39.3711 241.276 37.5223V36.1866C241.276 35.575 240.781 35.0796 240.169 35.0796H234.784C234.172 35.0796 233.676 35.575 233.676 36.1866V37.5223C233.676 39.3711 235.175 40.87 237.024 40.87Z" fill="#FFBEB6"/>
<path d="M201.341 51.8991C189.142 37.4232 171.701 55.3381 159.829 62.9225C150.782 68.7014 123.483 82.643 126.622 95.0719C130.896 111.997 153.878 103.344 163.98 99.0385C178.608 92.8041 192.366 86.0771 199.908 70.9918C202.301 66.2055 205.607 56.9616 201.341 51.8991Z" fill="url(#paint4_linear)"/>
<path d="M204.014 34.5088C201.68 38.0458 200.095 40.5123 200.095 40.5123C200.095 40.5123 218.014 60.1542 222.001 57.3633C223.293 56.4594 224.996 55.2156 226.46 54.1357C227.971 53.0209 227.915 50.7448 226.351 49.7064C223.354 47.7165 218.97 44.7551 216.385 42.7746C213.54 40.5954 210.461 36.9011 208.321 34.2852C207.177 32.8875 205.008 33.0015 204.014 34.5088Z" fill="#89B3F4"/>
<path d="M131.262 140.136C142.05 137.213 151.42 131.205 168.392 116.327C191.547 96.0281 209.259 78.555 209.259 54.0664C209.259 47.6771 196.853 26.4178 187.518 20.9307L185.274 24.7478C193.292 29.4611 204.83 49.5397 204.83 54.0664C204.83 76.6957 187.773 93.4476 165.472 112.996C149.077 127.369 140.152 133.139 130.104 135.863L131.262 140.136Z" fill="#23286B"/>
<path d="M197.477 68.9984C199.204 66.6758 200.325 58.5861 203.012 59.5885C206.877 61.0304 203.267 71.6587 201.351 73.4267C204.047 72.5886 208.501 70.6978 211.341 70.3125C215.245 70.0501 211.18 76.8054 210.072 80.4996C209.043 83.9315 208.953 88.3652 206.887 91.4163C203.71 96.1052 191.049 93.5374 185.299 93.3536C185.062 88.6697 184.686 82.9484 185.853 78.4084C187.619 71.5319 188.208 79.6333 192.495 74.8105C194.709 72.3196 196.09 70.8627 197.477 68.9984Z" fill="#FFBEB6"/>
<path d="M131.243 82.8184C133.908 80.679 136.805 80.322 142.393 79.3428C148.235 78.3193 191.111 74.2576 191.111 74.2576L191.252 111.809C191.252 111.809 165.167 111.829 152.356 111.468C143.86 111.229 138.495 110.607 132.265 104.248C127.465 99.3478 122.019 90.2224 131.243 82.8184Z" fill="url(#paint5_linear)"/>
<path d="M230.018 66.2995C228.017 67.3672 221.222 67.7741 217.247 70.2201C215.501 71.2945 216.642 75.8595 219.126 78.2092C222.468 81.3698 221.378 86.0394 222.886 86.3327C229.986 85.0923 231.345 85.3259 232.801 76.2502C233.128 74.2105 234.152 70.6978 233.46 68.6387C232.362 65.3735 231.747 65.3192 230.018 66.2995Z" fill="#FFBEB6"/>
<path opacity="0.75" d="M125.788 265.738C125.796 265.642 125.883 265.57 125.979 265.578C126.076 265.587 126.148 265.673 126.14 265.769C126.132 265.866 126.045 265.938 125.948 265.929C125.852 265.919 125.78 265.835 125.788 265.738ZM130.085 266.156C130.098 266.056 130.183 265.984 130.284 265.986C130.381 266 130.449 266.089 130.437 266.186C130.434 266.278 130.359 266.351 130.266 266.348C130.259 266.349 130.253 266.347 130.245 266.346C130.148 266.338 130.077 266.252 130.085 266.156ZM134.357 249.834C134.292 249.758 134.302 249.644 134.378 249.58C134.445 249.519 134.55 249.524 134.61 249.592C134.616 249.596 134.621 249.604 134.624 249.611C134.688 249.683 134.682 249.791 134.611 249.856C134.536 249.92 134.422 249.91 134.357 249.834ZM129.024 274.506C128.996 274.415 129.046 274.319 129.137 274.289C129.228 274.262 129.324 274.311 129.354 274.402C129.384 274.493 129.332 274.59 129.241 274.619C129.157 274.651 129.061 274.608 129.029 274.523C129.027 274.517 129.025 274.512 129.024 274.506ZM130.537 258.167C130.452 258.115 130.421 258.008 130.463 257.919C130.511 257.83 130.622 257.797 130.712 257.845C130.801 257.893 130.835 258.004 130.786 258.094C130.733 258.178 130.626 258.209 130.537 258.167ZM134.352 260.194C134.267 260.146 134.239 260.037 134.287 259.952C134.324 259.867 134.425 259.827 134.512 259.865C134.516 259.867 134.521 259.869 134.526 259.872C134.612 259.922 134.645 260.03 134.599 260.12C134.547 260.204 134.44 260.235 134.352 260.194ZM113.75 285.95C113.682 285.779 113.766 285.584 113.939 285.516C113.941 285.515 113.946 285.514 113.95 285.512C114.12 285.446 114.312 285.532 114.378 285.702C114.378 285.702 114.378 285.703 114.379 285.704C114.446 285.876 114.362 286.07 114.19 286.138C114.187 286.14 114.183 286.14 114.179 286.142C114.009 286.208 113.816 286.123 113.75 285.953C113.749 285.952 113.749 285.952 113.749 285.952L113.75 285.95ZM121.395 283.047C121.328 282.872 121.414 282.675 121.591 282.606C121.767 282.537 121.963 282.625 122.032 282.802C122.032 282.802 122.034 282.805 122.034 282.808C122.1 282.978 122.015 283.171 121.845 283.235C121.845 283.235 121.843 283.235 121.843 283.235C121.665 283.302 121.47 283.218 121.395 283.047ZM107.246 254.632C107.077 254.552 107.002 254.352 107.079 254.182C107.147 254.015 107.336 253.934 107.503 254.001C107.509 254.004 107.514 254.005 107.519 254.009C107.688 254.088 107.763 254.289 107.686 254.459C107.612 254.628 107.415 254.705 107.246 254.632ZM122.194 261.33C122.025 261.254 121.949 261.059 122.023 260.89C122.023 260.89 122.027 260.883 122.029 260.88C122.098 260.713 122.286 260.633 122.453 260.7C122.459 260.702 122.465 260.703 122.47 260.707C122.638 260.79 122.715 260.989 122.647 261.164C122.565 261.332 122.365 261.406 122.194 261.33ZM129.661 264.68C129.491 264.603 129.416 264.4 129.494 264.23C129.572 264.059 129.774 263.985 129.944 264.063C130.114 264.137 130.192 264.334 130.119 264.503C130.046 264.676 129.847 264.758 129.673 264.684C129.669 264.683 129.665 264.681 129.661 264.68ZM106.971 272.109C106.981 271.924 107.141 271.783 107.327 271.795C107.512 271.806 107.653 271.964 107.642 272.15C107.631 272.332 107.478 272.471 107.296 272.464C107.109 272.453 106.964 272.295 106.971 272.109ZM115.157 272.349C115.168 272.164 115.327 272.024 115.513 272.035C115.699 272.046 115.839 272.205 115.829 272.391C115.818 272.572 115.664 272.711 115.482 272.704C115.296 272.694 115.152 272.536 115.157 272.349ZM123.336 272.583C123.347 272.393 123.51 272.249 123.7 272.261C123.883 272.271 124.026 272.423 124.025 272.605C124.024 272.795 123.869 272.948 123.68 272.947C123.49 272.947 123.336 272.792 123.336 272.602C123.335 272.594 123.335 272.589 123.336 272.583ZM119.617 243.693C119.492 243.555 119.499 243.341 119.637 243.213C119.768 243.086 119.978 243.092 120.104 243.223C120.104 243.223 120.105 243.224 120.106 243.226C120.237 243.348 120.244 243.553 120.122 243.684C120.116 243.69 120.11 243.696 120.103 243.703C119.964 243.826 119.752 243.82 119.617 243.693ZM130.874 255.586C130.747 255.459 130.747 255.255 130.874 255.128C130.878 255.124 130.881 255.12 130.886 255.118C131.017 254.986 131.229 254.986 131.362 255.116C131.366 255.12 131.37 255.123 131.374 255.127C131.502 255.266 131.494 255.479 131.357 255.607C131.22 255.734 131.004 255.726 130.878 255.589C130.875 255.588 130.874 255.586 130.874 255.586ZM106.958 280.129C106.948 279.964 107.072 279.821 107.236 279.808C107.401 279.796 107.546 279.921 107.559 280.086C107.571 280.253 107.446 280.395 107.28 280.408C107.115 280.419 106.972 280.295 106.958 280.129ZM114.25 279.645C114.239 279.48 114.364 279.337 114.528 279.324C114.693 279.306 114.841 279.427 114.859 279.591C114.876 279.756 114.756 279.905 114.59 279.921C114.584 279.922 114.577 279.922 114.571 279.923C114.41 279.939 114.266 279.818 114.25 279.657C114.25 279.654 114.251 279.65 114.25 279.645ZM121.643 279.353C121.582 279.308 121.545 279.237 121.543 279.16C121.532 278.994 121.657 278.851 121.821 278.838C121.991 278.825 122.139 278.95 122.153 279.121V279.124C122.161 279.224 122.118 279.322 122.039 279.386L122.031 279.396C121.988 279.433 121.932 279.451 121.874 279.445C121.785 279.456 121.698 279.421 121.643 279.353ZM116.894 251.239C116.77 251.122 116.759 250.931 116.868 250.801C116.974 250.679 117.157 250.666 117.28 250.77C117.283 250.774 117.286 250.777 117.29 250.78C117.417 250.887 117.434 251.077 117.327 251.203C117.326 251.204 117.324 251.205 117.324 251.205C117.21 251.327 117.023 251.342 116.894 251.239ZM127.91 260.85C127.782 260.743 127.765 260.553 127.872 260.426C127.872 260.426 127.875 260.423 127.876 260.421C127.974 260.299 128.154 260.281 128.276 260.38C128.284 260.385 128.291 260.392 128.298 260.399C128.425 260.506 128.442 260.696 128.335 260.823C128.334 260.825 128.332 260.826 128.331 260.827C128.218 260.945 128.033 260.954 127.91 260.85ZM133.403 265.651C133.28 265.536 133.273 265.344 133.387 265.221C133.498 265.102 133.685 265.091 133.809 265.199C133.929 265.312 133.945 265.497 133.843 265.627C133.726 265.75 133.533 265.761 133.403 265.651ZM112.446 266.608C112.29 266.55 112.209 266.378 112.263 266.221C112.316 266.065 112.484 265.98 112.64 266.033C112.797 266.089 112.885 266.257 112.84 266.417C112.782 266.576 112.607 266.663 112.446 266.608ZM119.378 268.943C119.224 268.897 119.136 268.736 119.182 268.582C119.183 268.578 119.186 268.571 119.187 268.566C119.239 268.41 119.407 268.325 119.564 268.378C119.72 268.433 119.808 268.602 119.763 268.762C119.706 268.916 119.534 268.997 119.378 268.943ZM126.302 271.286C126.146 271.232 126.064 271.063 126.117 270.907C126.17 270.754 126.335 270.67 126.491 270.72C126.648 270.771 126.734 270.938 126.685 271.097C126.634 271.254 126.467 271.339 126.309 271.29C126.307 271.287 126.305 271.287 126.302 271.286ZM133.745 251.828C133.672 251.678 133.73 251.496 133.88 251.418C134.033 251.348 134.215 251.413 134.286 251.568C134.353 251.714 134.297 251.887 134.156 251.963C134.012 252.041 133.831 251.988 133.752 251.845C133.75 251.838 133.747 251.833 133.745 251.828ZM125.642 270.402C125.558 270.354 125.529 270.246 125.578 270.161C125.626 270.077 125.735 270.048 125.819 270.096C125.903 270.144 125.932 270.253 125.884 270.338C125.836 270.423 125.727 270.451 125.642 270.402ZM129.368 272.573C129.285 272.517 129.261 272.408 129.311 272.321C129.359 272.237 129.468 272.209 129.552 272.257C129.635 272.3 129.667 272.403 129.623 272.486C129.621 272.491 129.619 272.494 129.616 272.499C129.57 272.587 129.461 272.62 129.371 272.575C129.37 272.574 129.369 272.574 129.368 272.573ZM124.85 279.456C124.868 279.362 124.954 279.298 125.051 279.304C125.145 279.314 125.216 279.4 125.205 279.496C125.205 279.499 125.204 279.502 125.204 279.506C125.196 279.599 125.114 279.668 125.02 279.661C125.014 279.66 125.009 279.66 125.004 279.658C124.905 279.643 124.836 279.553 124.85 279.456ZM133.05 265.274C132.989 265.196 133.003 265.087 133.08 265.028C133.158 264.967 133.267 264.981 133.327 265.059C133.389 265.127 133.383 265.231 133.316 265.292C133.312 265.297 133.304 265.302 133.298 265.306C133.224 265.366 133.113 265.354 133.054 265.28C133.051 265.278 133.051 265.276 133.05 265.274ZM117.934 288.95C117.925 288.844 118.005 288.748 118.112 288.74C118.114 288.74 118.115 288.739 118.118 288.738C118.228 288.726 118.325 288.804 118.339 288.913C118.339 288.918 118.339 288.924 118.34 288.929C118.35 289.035 118.269 289.13 118.163 289.139C118.161 289.139 118.159 289.14 118.156 289.14C118.042 289.146 117.945 289.062 117.934 288.95ZM124.411 269.417C124.328 269.353 124.313 269.234 124.376 269.153C124.381 269.146 124.386 269.14 124.393 269.135C124.466 269.052 124.593 269.043 124.676 269.116C124.756 269.192 124.769 269.316 124.704 269.407C124.627 269.49 124.496 269.496 124.411 269.417C124.412 269.419 124.412 269.419 124.411 269.417ZM128.144 272.625C128.059 272.548 128.053 272.418 128.132 272.334H128.133C128.206 272.251 128.332 272.242 128.415 272.315C128.496 272.391 128.508 272.515 128.443 272.605C128.365 272.688 128.235 272.696 128.144 272.625ZM121.643 279.353C121.639 279.324 121.64 279.294 121.646 279.266C121.679 279.161 121.792 279.103 121.897 279.137C121.899 279.138 121.9 279.138 121.904 279.139C122.007 279.174 122.065 279.281 122.038 279.386L122.031 279.396C121.998 279.5 121.885 279.558 121.78 279.525C121.778 279.524 121.775 279.523 121.773 279.523C121.697 279.5 121.646 279.432 121.643 279.353ZM133.775 265.039C133.724 264.94 133.764 264.818 133.863 264.767C133.866 264.767 133.868 264.765 133.869 264.765C133.967 264.717 134.086 264.756 134.135 264.854C134.189 264.946 134.161 265.064 134.068 265.12C134.064 265.123 134.061 265.124 134.056 265.127C133.955 265.179 133.83 265.141 133.775 265.039ZM100.043 276.597C99.8641 276.527 99.7711 276.329 99.8325 276.144C99.8956 275.963 100.093 275.866 100.274 275.928C100.455 275.997 100.549 276.197 100.485 276.381C100.423 276.563 100.226 276.66 100.043 276.597ZM108.017 279.376C107.835 279.313 107.738 279.116 107.799 278.934C107.861 278.752 108.06 278.655 108.241 278.717C108.423 278.78 108.52 278.977 108.459 279.159C108.397 279.34 108.2 279.436 108.017 279.376ZM115.984 282.163C115.803 282.093 115.709 281.893 115.772 281.71C115.841 281.532 116.043 281.443 116.221 281.512C116.398 281.58 116.489 281.782 116.421 281.96C116.355 282.134 116.16 282.225 115.984 282.163ZM127.152 257.547C127.072 257.373 127.141 257.168 127.312 257.081C127.486 256.996 127.694 257.067 127.779 257.241C127.865 257.414 127.793 257.623 127.619 257.707C127.446 257.789 127.239 257.718 127.152 257.547ZM130.826 265.138C130.744 264.965 130.814 264.758 130.986 264.672C131.165 264.591 131.374 264.666 131.463 264.84C131.542 265.019 131.459 265.226 131.283 265.304C131.11 265.377 130.91 265.305 130.826 265.138ZM117.981 269.646C117.836 269.515 117.824 269.293 117.953 269.148H117.953C118.079 269.009 118.295 268.998 118.434 269.124C118.579 269.248 118.596 269.467 118.471 269.611C118.347 269.758 118.129 269.773 117.983 269.648L117.98 269.647L117.981 269.646ZM124.28 275.258C124.136 275.136 124.118 274.92 124.24 274.776C124.241 274.774 124.244 274.772 124.245 274.771C124.37 274.622 124.592 274.603 124.742 274.728C124.891 274.853 124.911 275.075 124.785 275.225C124.66 275.373 124.437 275.393 124.288 275.267C124.285 275.264 124.281 275.261 124.28 275.258ZM113.373 272.577C113.224 272.452 113.205 272.231 113.329 272.082C113.451 271.94 113.666 271.918 113.816 272.032C113.963 272.16 113.986 272.379 113.869 272.535C113.742 272.678 113.524 272.697 113.373 272.577ZM119.878 277.906C119.729 277.78 119.71 277.559 119.834 277.411C119.954 277.263 120.173 277.24 120.321 277.361C120.469 277.481 120.492 277.7 120.372 277.847C120.25 277.994 120.032 278.021 119.878 277.906ZM110.807 287.297C110.626 287.239 110.526 287.047 110.58 286.866C110.58 286.866 110.58 286.865 110.581 286.865C110.634 286.68 110.826 286.573 111.01 286.625C111.194 286.684 111.298 286.879 111.245 287.065C111.185 287.245 110.992 287.347 110.807 287.297ZM118.864 289.732C118.68 289.681 118.574 289.487 118.625 289.304C118.677 289.119 118.869 289.014 119.054 289.066C119.055 289.066 119.058 289.067 119.063 289.069C119.245 289.13 119.349 289.323 119.298 289.509C119.242 289.69 119.048 289.789 118.868 289.734C118.866 289.732 118.866 289.732 118.864 289.732ZM122.721 259.679C122.634 259.506 122.701 259.295 122.872 259.205C123.04 259.117 123.248 259.181 123.337 259.349C123.432 259.51 123.378 259.718 123.217 259.813C123.212 259.816 123.209 259.818 123.203 259.82C123.035 259.916 122.823 259.857 122.727 259.689C122.724 259.686 122.723 259.682 122.721 259.679ZM126.695 267.085C126.608 266.912 126.675 266.7 126.846 266.611C127.014 266.523 127.222 266.586 127.311 266.755C127.406 266.916 127.352 267.124 127.191 267.218C127.186 267.221 127.183 267.224 127.177 267.226C127.009 267.321 126.795 267.262 126.701 267.094C126.699 267.091 126.697 267.088 126.695 267.085ZM119.754 273.941C119.665 273.827 119.684 273.662 119.798 273.572C119.909 273.485 120.068 273.502 120.16 273.608C120.25 273.713 120.24 273.872 120.137 273.963C120.131 273.969 120.123 273.975 120.116 273.98C120.005 274.067 119.844 274.049 119.754 273.941ZM123.709 278.882C123.618 278.767 123.64 278.6 123.754 278.511C123.868 278.422 124.035 278.442 124.125 278.556C124.216 278.668 124.199 278.832 124.088 278.922C124.085 278.924 124.084 278.925 124.081 278.928C123.965 279.014 123.801 278.994 123.709 278.882ZM113.977 286.072C113.853 286 113.808 285.841 113.878 285.716C113.955 285.596 114.107 285.552 114.235 285.617C114.36 285.687 114.406 285.845 114.336 285.971H114.335C114.271 286.095 114.119 286.145 113.995 286.082C113.987 286.078 113.982 286.075 113.977 286.072ZM119.534 289.141C119.407 289.068 119.36 288.908 119.425 288.777C119.495 288.651 119.654 288.606 119.779 288.676C119.779 288.676 119.779 288.676 119.781 288.676C119.906 288.74 119.955 288.891 119.892 289.016C119.892 289.016 119.889 289.021 119.887 289.024C119.822 289.154 119.666 289.206 119.536 289.143C119.537 289.143 119.535 289.141 119.534 289.141Z" fill="white"/>
</g>
<defs>
<linearGradient id="paint0_linear" x1="157.349" y1="294.743" x2="84.1278" y2="294.743" gradientUnits="userSpaceOnUse">
<stop stop-color="#E94A47"/>
<stop offset="1" stop-color="#D62929"/>
</linearGradient>
<linearGradient id="paint1_linear" x1="132.567" y1="218.425" x2="191.241" y2="130.23" gradientUnits="userSpaceOnUse">
<stop stop-color="#23286B"/>
<stop offset="1" stop-color="#151A4F"/>
</linearGradient>
<linearGradient id="paint2_linear" x1="222.882" y1="96.5946" x2="131.515" y2="96.5946" gradientUnits="userSpaceOnUse">
<stop stop-color="#A1C3FC"/>
<stop offset="1" stop-color="#89B3F4"/>
</linearGradient>
<linearGradient id="paint3_linear" x1="246.072" y1="10.5385" x2="206.705" y2="10.5385" gradientUnits="userSpaceOnUse">
<stop stop-color="#E94A47"/>
<stop offset="1" stop-color="#D62929"/>
</linearGradient>
<linearGradient id="paint4_linear" x1="203.401" y1="75.7625" x2="126.372" y2="75.7625" gradientUnits="userSpaceOnUse">
<stop stop-color="#A1C3FC"/>
<stop offset="1" stop-color="#89B3F4"/>
</linearGradient>
<linearGradient id="paint5_linear" x1="158.744" y1="107.385" x2="158.744" y2="80.2794" gradientUnits="userSpaceOnUse">
<stop stop-color="#A1C3FC"/>
<stop offset="1" stop-color="#89B3F4"/>
</linearGradient>
<clipPath id="clip0">
<rect width="189.661" height="313.674" fill="white" transform="matrix(-1 0 0 1 273.789 0.696777)"/>
</clipPath>
</defs>
</svg>
