<svg width="81" height="79" viewBox="0 0 81 79" fill="none" xmlns="http://www.w3.org/2000/svg">
<rect x="13" width="54" height="54" rx="11.25" fill="#E2F8E8"/>
<circle cx="34.7689" cy="23.6029" r="13.1439" fill="#21C050"/>
<circle cx="44.8561" cy="30.0222" r="11.687" stroke="#21C050" stroke-width="2.91375"/>
<mask id="mask0" mask-type="alpha" maskUnits="userSpaceOnUse" x="31" y="16" width="17" height="21">
<path fill-rule="evenodd" clip-rule="evenodd" d="M34.7689 36.7467C42.0281 36.7467 47.9128 30.862 47.9128 23.6028C47.9128 21.1696 47.2516 18.8908 46.0992 16.9363C45.69 16.8979 45.2753 16.8783 44.8561 16.8783C37.5969 16.8783 31.7122 22.763 31.7122 30.0222C31.7122 32.4554 32.3733 34.7342 33.5258 36.6887C33.935 36.7271 34.3496 36.7467 34.7689 36.7467Z" fill="#C4C4C4"/>
</mask>
<g mask="url(#mask0)">
<rect opacity="0.2" x="18.7017" y="29.6835" width="1.96584" height="27.5218" transform="rotate(-62.8632 18.7017 29.6835)" fill="#191241"/>
<rect opacity="0.2" x="22.2881" y="22.6857" width="1.96584" height="27.5218" transform="rotate(-62.8632 22.2881 22.6857)" fill="#191241"/>
<rect opacity="0.2" x="25.875" y="15.688" width="1.96584" height="27.5218" transform="rotate(-62.8632 25.875 15.688)" fill="#191241"/>
<rect opacity="0.2" x="29.4614" y="8.69019" width="1.96584" height="27.5218" transform="rotate(-62.8632 29.4614 8.69019)" fill="#191241"/>
<rect opacity="0.2" x="20.4951" y="26.1843" width="1.96584" height="27.5218" transform="rotate(-62.8632 20.4951 26.1843)" fill="#191241"/>
<rect opacity="0.2" x="24.0818" y="19.1865" width="1.96584" height="27.5218" transform="rotate(-62.8632 24.0818 19.1865)" fill="#191241"/>
<rect opacity="0.2" x="27.6685" y="12.1888" width="1.96584" height="27.5218" transform="rotate(-62.8632 27.6685 12.1888)" fill="#191241"/>
<rect opacity="0.2" x="31.2551" y="5.19104" width="1.96584" height="27.5218" transform="rotate(-62.8632 31.2551 5.19104)" fill="#191241"/>
</g>
<path d="M0.616477 65.1406H3.78835V74H5.3196V65.1406H8.49645V63.8182H0.616477V65.1406ZM9.32546 74H10.812V69.3366C10.812 68.3374 11.5826 67.6165 12.6365 67.6165C12.9448 67.6165 13.2928 67.6712 13.4121 67.706V66.2841C13.263 66.2642 12.9696 66.2493 12.7807 66.2493C11.8858 66.2493 11.1202 66.7564 10.8418 67.5767H10.7623V66.3636H9.32546V74ZM16.8525 74.169C18.1152 74.169 18.8262 73.5277 19.1096 72.956H19.1692V74H20.6209V68.929C20.6209 66.7067 18.8709 66.2642 17.6578 66.2642C16.2757 66.2642 15.003 66.821 14.5059 68.2131L15.9029 68.5312C16.1216 67.9893 16.6784 67.4673 17.6777 67.4673C18.6373 67.4673 19.1294 67.9695 19.1294 68.8345V68.8693C19.1294 69.4112 18.5726 69.4013 17.2005 69.5604C15.7537 69.7294 14.2722 70.1072 14.2722 71.8423C14.2722 73.3438 15.4007 74.169 16.8525 74.169ZM17.1756 72.9759C16.3354 72.9759 15.7289 72.598 15.7289 71.8622C15.7289 71.0668 16.4348 70.7834 17.2949 70.669C17.7772 70.6044 18.9206 70.4751 19.1344 70.2614V71.2457C19.1344 72.1506 18.4135 72.9759 17.1756 72.9759ZM24.0874 69.4659C24.0874 68.2479 24.8331 67.5518 25.8672 67.5518C26.8764 67.5518 27.4879 68.2131 27.4879 69.3217V74H28.9744V69.1428C28.9744 67.2536 27.9354 66.2642 26.3743 66.2642C25.2259 66.2642 24.4751 66.7962 24.1222 67.6065H24.0277V66.3636H22.6009V74H24.0874V69.4659ZM36.6903 68.228C36.3821 67.0398 35.4524 66.2642 33.8018 66.2642C32.0767 66.2642 30.8537 67.174 30.8537 68.5263C30.8537 69.6101 31.5099 70.331 32.9418 70.6491L34.2344 70.9325C34.9702 71.0966 35.3132 71.4247 35.3132 71.902C35.3132 72.4936 34.6818 72.956 33.7074 72.956C32.8175 72.956 32.2457 72.5732 32.0668 71.8224L30.63 72.0412C30.8786 73.3935 32.0021 74.1541 33.7173 74.1541C35.5618 74.1541 36.8395 73.1747 36.8395 71.7926C36.8395 70.7138 36.1534 70.0476 34.7514 69.7244L33.5384 69.446C32.6982 69.2472 32.3352 68.9638 32.3402 68.4467C32.3352 67.8601 32.9716 67.4425 33.8168 67.4425C34.7415 67.4425 35.169 67.9545 35.343 68.4666L36.6903 68.228ZM38.4739 76.8636H39.9604V72.8118H40.0499C40.3184 73.299 40.8652 74.1491 42.2573 74.1491C44.1067 74.1491 45.449 72.6676 45.449 70.1967C45.449 67.7209 44.0868 66.2642 42.2424 66.2642C40.8255 66.2642 40.3134 67.1293 40.0499 67.6016H39.9256V66.3636H38.4739V76.8636ZM39.9306 70.1818C39.9306 68.5859 40.6266 67.527 41.9242 67.527C43.2715 67.527 43.9476 68.6655 43.9476 70.1818C43.9476 71.7131 43.2516 72.8814 41.9242 72.8814C40.6465 72.8814 39.9306 71.7876 39.9306 70.1818ZM49.3368 74.169C50.5996 74.169 51.3105 73.5277 51.5939 72.956H51.6536V74H53.1053V68.929C53.1053 66.7067 51.3553 66.2642 50.1422 66.2642C48.7601 66.2642 47.4874 66.821 46.9902 68.2131L48.3873 68.5312C48.606 67.9893 49.1628 67.4673 50.1621 67.4673C51.1216 67.4673 51.6138 67.9695 51.6138 68.8345V68.8693C51.6138 69.4112 51.057 69.4013 49.6848 69.5604C48.2381 69.7294 46.7566 70.1072 46.7566 71.8423C46.7566 73.3438 47.8851 74.169 49.3368 74.169ZM49.66 72.9759C48.8198 72.9759 48.2132 72.598 48.2132 71.8622C48.2132 71.0668 48.9192 70.7834 49.7793 70.669C50.2615 70.6044 51.405 70.4751 51.6188 70.2614V71.2457C51.6188 72.1506 50.8979 72.9759 49.66 72.9759ZM55.0852 74H56.5717V69.3366C56.5717 68.3374 57.3423 67.6165 58.3963 67.6165C58.7045 67.6165 59.0526 67.6712 59.1719 67.706V66.2841C59.0227 66.2642 58.7294 66.2493 58.5405 66.2493C57.6456 66.2493 56.88 66.7564 56.6016 67.5767H56.522V66.3636H55.0852V74ZM63.476 74.1541C65.1415 74.1541 66.3198 73.3338 66.6578 72.0909L65.2509 71.8374C64.9824 72.5582 64.3361 72.9261 63.4909 72.9261C62.2182 72.9261 61.3631 72.1009 61.3233 70.6293H66.7523V70.1023C66.7523 67.343 65.1017 66.2642 63.3716 66.2642C61.2438 66.2642 59.8418 67.8849 59.8418 70.2315C59.8418 72.603 61.2239 74.1541 63.476 74.1541ZM61.3283 69.5156C61.388 68.4318 62.1735 67.4922 63.3816 67.4922C64.535 67.4922 65.2907 68.3473 65.2956 69.5156H61.3283ZM69.8881 69.4659C69.8881 68.2479 70.6339 67.5518 71.668 67.5518C72.6772 67.5518 73.2887 68.2131 73.2887 69.3217V74H74.7752V69.1428C74.7752 67.2536 73.7362 66.2642 72.1751 66.2642C71.0266 66.2642 70.2759 66.7962 69.9229 67.6065H69.8285V66.3636H68.4016V74H69.8881V69.4659ZM80.3335 66.3636H78.7674V64.5341H77.2809V66.3636H76.1623V67.5568H77.2809V72.0661C77.2759 73.4531 78.3349 74.1243 79.5082 74.0994C79.9805 74.0945 80.2987 74.005 80.4727 73.9403L80.2042 72.7124C80.1048 72.7322 79.9208 72.777 79.6822 72.777C79.1999 72.777 78.7674 72.6179 78.7674 71.7578V67.5568H80.3335V66.3636Z" fill="black"/>
</svg>
