<svg width="54" height="80" viewBox="0 0 54 80" fill="none" xmlns="http://www.w3.org/2000/svg">
<rect width="54" height="54" rx="10" fill="#21C050" fill-opacity="0.1"/>
<g clip-path="url(#clip0)">
<path d="M19.1781 27.266C18.3031 26.391 16.8539 26.4457 16.0518 27.4301C15.3499 28.2869 15.5049 29.5538 16.2796 30.3285L18.5948 32.6437C19.0505 33.0994 19.0505 33.8377 18.5948 34.2934C18.139 34.7492 17.4007 34.7492 16.945 34.2934L14.6937 32.0421C13.8369 31.1853 13.3447 30.0551 13.2991 28.852L13.3174 23.4014C13.3174 22.0615 12.1689 20.9951 10.8017 21.1318C9.61679 21.2503 8.76001 22.335 8.76001 23.529V29.1436C8.76001 30.4379 9.21574 31.6866 10.0543 32.671L15.1768 38.7323C15.2588 38.8325 15.3864 38.8964 15.5231 38.8964L24.8839 38.9055C25.1391 38.9055 25.3396 38.7049 25.3396 38.4497V35.688C25.3396 34.2387 24.7654 32.8442 23.7354 31.8234L19.1781 27.266ZM42.9583 21.1318C41.5911 20.9951 40.4427 22.0615 40.4427 23.4014L40.4609 28.8611C40.4153 30.0642 39.9231 31.1944 39.0664 32.0512L36.815 34.3025C36.3593 34.7583 35.621 34.7583 35.1653 34.3025C34.7095 33.8468 34.7095 33.1085 35.1653 32.6528L37.4804 30.3377C38.2551 29.5629 38.4101 28.2869 37.7083 27.4392C36.9062 26.4548 35.4569 26.4092 34.5819 27.2751L30.0246 31.8325C28.9946 32.8624 28.4204 34.2479 28.4204 35.6971V38.4588C28.4204 38.7141 28.6209 38.9146 28.8761 38.9146L38.2369 38.9055C38.3736 38.9055 38.5012 38.8417 38.5833 38.7414L43.7057 32.6801C44.5443 31.6957 45 30.447 45 29.1528V23.529C45 22.335 44.1432 21.2503 42.9583 21.1318Z" fill="#21C050"/>
<path d="M25.1208 41.4211H15.7601C15.5048 41.4211 15.3043 41.6216 15.3043 41.8768V43.6998C15.3043 43.955 15.5048 44.1555 15.7601 44.1555H25.1208C25.3761 44.1555 25.5766 43.955 25.5766 43.6998V41.8768C25.5766 41.6307 25.3761 41.4211 25.1208 41.4211ZM32.604 18.9534C32.3488 15.4625 29.2771 13.5028 27.4451 10.1577C27.0987 9.51969 26.1964 9.51969 25.85 10.1577C24.018 13.5119 20.9463 15.4716 20.6911 18.9534C20.4359 22.4443 23.3161 25.279 26.643 25.279C29.979 25.279 32.8592 22.4443 32.604 18.9534ZM24.9021 21.1683C23.9542 21.1683 23.1885 20.4026 23.1885 19.4547C23.1885 18.5068 23.9542 17.7411 24.9021 17.7411C25.85 17.7411 26.6157 18.5068 26.6157 19.4547C26.6157 20.4026 25.85 21.1683 24.9021 21.1683ZM37.9999 41.4211H28.6391C28.3839 41.4211 28.1834 41.6216 28.1834 41.8768V43.6998C28.1834 43.955 28.3839 44.1555 28.6391 44.1555H37.9999C38.2551 44.1555 38.4556 43.955 38.4556 43.6998V41.8768C38.4556 41.6307 38.2551 41.4211 37.9999 41.4211Z" fill="#21C050"/>
</g>
<path d="M17.5753 68.1293C17.2273 65.9517 15.522 64.679 13.3693 64.679C10.7344 64.679 8.79048 66.6527 8.79048 69.9091C8.79048 73.1655 10.7244 75.1392 13.3693 75.1392C15.6065 75.1392 17.2422 73.7372 17.5753 71.7237L16.0241 71.7188C15.7607 73.0213 14.6669 73.7372 13.3793 73.7372C11.6342 73.7372 10.3168 72.3999 10.3168 69.9091C10.3168 67.4382 11.6293 66.081 13.3842 66.081C14.6818 66.081 15.7706 66.8118 16.0241 68.1293H17.5753ZM20.7807 64.8182H19.2942V75H20.7807V64.8182ZM26.0717 75.1541C27.7372 75.1541 28.9155 74.3338 29.2536 73.0909L27.8466 72.8374C27.5781 73.5582 26.9318 73.9261 26.0866 73.9261C24.8139 73.9261 23.9588 73.1009 23.919 71.6293H29.348V71.1023C29.348 68.343 27.6974 67.2642 25.9673 67.2642C23.8395 67.2642 22.4375 68.8849 22.4375 71.2315C22.4375 73.603 23.8196 75.1541 26.0717 75.1541ZM23.924 70.5156C23.9837 69.4318 24.7692 68.4922 25.9773 68.4922C27.1307 68.4922 27.8864 69.3473 27.8913 70.5156H23.924ZM33.2196 75.169C34.4824 75.169 35.1934 74.5277 35.4767 73.956H35.5364V75H36.9881V69.929C36.9881 67.7067 35.2381 67.2642 34.025 67.2642C32.6429 67.2642 31.3702 67.821 30.873 69.2131L32.2701 69.5312C32.4888 68.9893 33.0456 68.4673 34.0449 68.4673C35.0044 68.4673 35.4966 68.9695 35.4966 69.8345V69.8693C35.4966 70.4112 34.9398 70.4013 33.5676 70.5604C32.1209 70.7294 30.6394 71.1072 30.6394 72.8423C30.6394 74.3438 31.7679 75.169 33.2196 75.169ZM33.5428 73.9759C32.7026 73.9759 32.0961 73.598 32.0961 72.8622C32.0961 72.0668 32.802 71.7834 33.6621 71.669C34.1444 71.6044 35.2878 71.4751 35.5016 71.2614V72.2457C35.5016 73.1506 34.7807 73.9759 33.5428 73.9759ZM40.4545 70.4659C40.4545 69.2479 41.2003 68.5518 42.2344 68.5518C43.2436 68.5518 43.8551 69.2131 43.8551 70.3217V75H45.3416V70.1428C45.3416 68.2536 44.3026 67.2642 42.7415 67.2642C41.593 67.2642 40.8423 67.7962 40.4893 68.6065H40.3949V67.3636H38.968V75H40.4545V70.4659Z" fill="black"/>
<defs>
<clipPath id="clip0">
<rect width="36.24" height="34.4809" fill="white" transform="translate(8.76001 9.67493)"/>
</clipPath>
</defs>
</svg>
