<svg width="606" height="412" viewBox="0 0 606 412" fill="none" xmlns="http://www.w3.org/2000/svg">
<path d="M472.757 234.587C472.334 234.587 471.961 234.799 471.739 235.131L469.391 234.92C469.311 234.476 469.15 234.053 468.918 233.691L469.895 232.834C469.956 232.844 470.026 232.854 470.087 232.854C470.621 232.854 471.064 232.421 471.064 231.877C471.064 231.343 470.631 230.9 470.087 230.9C469.553 230.9 469.109 231.333 469.109 231.877C469.109 231.897 469.109 231.917 469.119 231.937L468.122 232.804C467.749 232.512 467.306 232.29 466.832 232.169L466.792 229.66C467.225 229.469 467.527 229.046 467.527 228.542C467.527 227.867 466.983 227.312 466.298 227.312C465.613 227.312 465.069 227.857 465.069 228.542C465.069 228.965 465.28 229.328 465.603 229.549L465.643 232.068C465.2 232.109 464.787 232.24 464.404 232.431L463.719 231.645C463.729 231.585 463.739 231.514 463.739 231.444C463.739 230.769 463.195 230.214 462.51 230.214C461.824 230.214 461.28 230.758 461.28 231.444C461.28 232.129 461.824 232.673 462.51 232.673C462.671 232.673 462.822 232.643 462.963 232.582L463.447 233.136C463.134 233.469 462.892 233.862 462.721 234.295L460.575 234.104C460.353 233.691 459.92 233.398 459.406 233.398C458.671 233.398 458.076 233.993 458.076 234.728C458.076 235.464 458.671 236.058 459.406 236.058C459.93 236.058 460.384 235.746 460.595 235.303L462.499 235.474C462.499 235.484 462.499 235.494 462.499 235.504C462.499 236.139 462.671 236.733 462.973 237.247L462.318 237.812C462.187 237.761 462.046 237.731 461.905 237.731C461.23 237.731 460.676 238.275 460.676 238.96C460.676 239.645 461.22 240.189 461.905 240.189C462.59 240.189 463.134 239.645 463.134 238.96C463.134 238.87 463.124 238.789 463.104 238.698L463.739 238.144C464.283 238.597 464.968 238.89 465.724 238.94L465.754 240.965C465.391 241.177 465.139 241.57 465.139 242.023C465.139 242.698 465.683 243.253 466.369 243.253C467.054 243.253 467.598 242.708 467.598 242.023C467.598 241.56 467.336 241.157 466.953 240.945L466.923 238.819C467.306 238.708 467.668 238.537 467.981 238.305L468.878 239.333C468.867 239.393 468.857 239.464 468.857 239.524C468.857 240.058 469.291 240.502 469.835 240.502C470.379 240.502 470.812 240.069 470.812 239.524C470.812 238.98 470.379 238.547 469.835 238.547C469.815 238.547 469.794 238.547 469.774 238.557L468.817 237.459C469.099 237.056 469.301 236.582 469.381 236.068L471.618 236.27C471.81 236.703 472.233 237.006 472.737 237.006C473.412 237.006 473.966 236.461 473.966 235.776C473.966 235.091 473.432 234.587 472.757 234.587Z" fill="#AEE0BD"/>
<path d="M105.511 81.8368C105.087 81.8368 104.715 82.0484 104.493 82.3809L102.145 82.1693C102.065 81.726 101.903 81.3028 101.672 80.94L102.649 80.0836C102.71 80.0937 102.78 80.1038 102.841 80.1038C103.375 80.1038 103.818 79.6705 103.818 79.1264C103.818 78.5924 103.385 78.149 102.841 78.149C102.307 78.149 101.863 78.5823 101.863 79.1264C101.863 79.1465 101.863 79.1667 101.873 79.1868L100.876 80.0534C100.503 79.7612 100.06 79.5395 99.586 79.4186L99.5457 76.9097C99.979 76.7182 100.281 76.2951 100.281 75.7913C100.281 75.1162 99.7372 74.562 99.052 74.562C98.3668 74.562 97.8227 75.1061 97.8227 75.7913C97.8227 76.2145 98.0343 76.5772 98.3568 76.7989L98.3971 79.3178C97.9537 79.3581 97.5406 79.4891 97.1577 79.6806L96.4726 78.8946C96.4827 78.8342 96.4927 78.7637 96.4927 78.6931C96.4927 78.018 95.9486 77.4639 95.2635 77.4639C94.5783 77.4639 94.0342 78.008 94.0342 78.6931C94.0342 79.3783 94.5783 79.9224 95.2635 79.9224C95.4247 79.9224 95.5758 79.8922 95.7169 79.8317L96.2005 80.3859C95.8882 80.7184 95.6464 81.1113 95.4751 81.5446L93.3289 81.3532C93.1072 80.94 92.674 80.6478 92.1601 80.6478C91.4246 80.6478 90.8301 81.2423 90.8301 81.9779C90.8301 82.7134 91.4246 83.3079 92.1601 83.3079C92.684 83.3079 93.1375 82.9955 93.3491 82.5522L95.2534 82.7235C95.2534 82.7336 95.2534 82.7436 95.2534 82.7537C95.2534 83.3885 95.4247 83.983 95.727 84.4968L95.072 85.0611C94.941 85.0107 94.8 84.9805 94.6589 84.9805C93.9838 84.9805 93.4297 85.5246 93.4297 86.2097C93.4297 86.8949 93.9738 87.439 94.6589 87.439C95.3441 87.439 95.8882 86.8949 95.8882 86.2097C95.8882 86.1191 95.8781 86.0384 95.8579 85.9478L96.4927 85.3936C97.0368 85.847 97.722 86.1392 98.4777 86.1896L98.5079 88.2148C98.1452 88.4264 97.8933 88.8194 97.8933 89.2728C97.8933 89.9479 98.4374 90.5021 99.1225 90.5021C99.8077 90.5021 100.352 89.958 100.352 89.2728C100.352 88.8093 100.09 88.4063 99.7069 88.1947L99.6767 86.0687C100.06 85.9578 100.422 85.7865 100.735 85.5548L101.631 86.5825C101.621 86.643 101.611 86.7135 101.611 86.774C101.611 87.308 102.045 87.7513 102.589 87.7513C103.133 87.7513 103.566 87.3181 103.566 86.774C103.566 86.2299 103.133 85.7966 102.589 85.7966C102.568 85.7966 102.548 85.7966 102.528 85.8067L101.571 84.7084C101.853 84.3054 102.055 83.8318 102.135 83.318L104.372 83.5195C104.564 83.9527 104.987 84.255 105.49 84.255C106.166 84.255 106.72 83.7109 106.72 83.0258C106.72 82.3406 106.186 81.8368 105.511 81.8368Z" fill="#AEE0BD"/>
<path d="M15.2912 212.289C14.868 212.289 14.4952 212.501 14.2735 212.834L11.9258 212.622C11.8452 212.179 11.684 211.755 11.4523 211.393L12.4296 210.536C12.4901 210.546 12.5606 210.556 12.6211 210.556C13.1551 210.556 13.5984 210.123 13.5984 209.579C13.5984 209.045 13.1652 208.602 12.6211 208.602C12.087 208.602 11.6437 209.035 11.6437 209.579C11.6437 209.599 11.6437 209.619 11.6538 209.639L10.6563 210.506C10.2835 210.214 9.84011 209.992 9.36654 209.871L9.32624 207.362C9.7595 207.171 10.0618 206.748 10.0618 206.244C10.0618 205.569 9.51768 205.015 8.83252 205.015C8.14736 205.015 7.60326 205.559 7.60326 206.244C7.60326 206.667 7.81486 207.03 8.13729 207.251L8.17759 209.77C7.73425 209.811 7.32114 209.942 6.93825 210.133L6.25309 209.347C6.26317 209.287 6.27325 209.216 6.27325 209.146C6.27325 208.471 5.72915 207.917 5.04399 207.917C4.35883 207.917 3.81473 208.461 3.81473 209.146C3.81473 209.831 4.35883 210.375 5.04399 210.375C5.2052 210.375 5.35634 210.345 5.4974 210.284L5.98104 210.839C5.66869 211.171 5.42687 211.564 5.25558 211.997L3.10942 211.806C2.88775 211.393 2.45448 211.1 1.94061 211.1C1.20507 211.1 0.610596 211.695 0.610596 212.431C0.610596 213.166 1.20507 213.761 1.94061 213.761C2.46456 213.761 2.91797 213.448 3.12957 213.005L5.03391 213.176C5.03391 213.186 5.03391 213.196 5.03391 213.206C5.03391 213.841 5.2052 214.436 5.50748 214.949L4.85255 215.514C4.72156 215.463 4.5805 215.433 4.43943 215.433C3.76435 215.433 3.21018 215.977 3.21018 216.662C3.21018 217.348 3.75427 217.892 4.43943 217.892C5.12459 217.892 5.66869 217.348 5.66869 216.662C5.66869 216.572 5.65862 216.491 5.63846 216.4L6.27325 215.846C6.81734 216.3 7.5025 216.592 8.2582 216.642L8.28842 218.667C7.92569 218.879 7.67379 219.272 7.67379 219.725C7.67379 220.401 8.21789 220.955 8.90305 220.955C9.58821 220.955 10.1323 220.411 10.1323 219.725C10.1323 219.262 9.87034 218.859 9.48746 218.647L9.45723 216.521C9.84011 216.41 10.2028 216.239 10.5152 216.007L11.412 217.035C11.4019 217.096 11.3918 217.166 11.3918 217.227C11.3918 217.761 11.8251 218.204 12.3692 218.204C12.9133 218.204 13.3465 217.771 13.3465 217.227C13.3465 216.683 12.9133 216.249 12.3692 216.249C12.349 216.249 12.3289 216.249 12.3087 216.259L11.3515 215.161C11.6336 214.758 11.8351 214.284 11.9157 213.771L14.1526 213.972C14.344 214.405 14.7672 214.708 15.271 214.708C15.9461 214.708 16.5003 214.164 16.5003 213.478C16.5003 212.793 15.9663 212.289 15.2912 212.289Z" fill="#AEE0BD"/>
<path d="M350.063 82.1488C349.257 82.1488 348.551 82.5518 348.128 83.1765L343.664 82.7735C343.513 81.9271 343.201 81.1311 342.758 80.4258L344.622 78.8036C344.743 78.8237 344.864 78.8439 344.994 78.8439C346.022 78.8439 346.848 78.0177 346.848 76.9899C346.848 75.9622 346.022 75.136 344.994 75.136C343.967 75.136 343.141 75.9622 343.141 76.9899C343.141 77.0302 343.151 77.0605 343.151 77.1008L341.256 78.7532C340.541 78.189 339.705 77.7758 338.798 77.5441L338.727 72.7681C339.543 72.4054 340.118 71.5892 340.118 70.632C340.118 69.3423 339.07 68.2944 337.78 68.2944C336.49 68.2944 335.443 69.3423 335.443 70.632C335.443 71.428 335.846 72.1333 336.46 72.5565L336.531 77.3627C335.684 77.4433 334.898 77.6852 334.173 78.058L332.883 76.5667C332.903 76.4458 332.924 76.3148 332.924 76.1939C332.924 74.9042 331.876 73.8563 330.586 73.8563C329.296 73.8563 328.248 74.9042 328.248 76.1939C328.248 77.4836 329.296 78.5315 330.586 78.5315C330.888 78.5315 331.18 78.4711 331.452 78.3602L332.379 79.4182C331.785 80.053 331.311 80.8087 331.009 81.6349L326.918 81.2621C326.495 80.4661 325.659 79.922 324.702 79.922C323.301 79.922 322.173 81.0505 322.173 82.4511C322.173 83.8516 323.301 84.9801 324.702 84.9801C325.709 84.9801 326.566 84.3856 326.979 83.5393L330.606 83.8617C330.606 83.8818 330.606 83.902 330.606 83.9221C330.606 85.1312 330.939 86.2698 331.513 87.2472L330.274 88.3253C330.022 88.2346 329.76 88.1742 329.478 88.1742C328.188 88.1742 327.14 89.2221 327.14 90.5118C327.14 91.8015 328.188 92.8494 329.478 92.8494C330.767 92.8494 331.815 91.8015 331.815 90.5118C331.815 90.3405 331.795 90.1793 331.765 90.018L332.974 88.9702C334.012 89.8367 335.322 90.3909 336.762 90.4916L336.823 94.3507C336.118 94.7537 335.644 95.4993 335.644 96.3659C335.644 97.6556 336.692 98.7035 337.982 98.7035C339.271 98.7035 340.319 97.6556 340.319 96.3659C340.319 95.4792 339.815 94.7134 339.08 94.3205L339.019 90.2699C339.755 90.0584 340.43 89.7258 341.035 89.3027L342.748 91.2574C342.727 91.3783 342.707 91.4992 342.707 91.6302C342.707 92.6579 343.533 93.4842 344.561 93.4842C345.589 93.4842 346.415 92.6579 346.415 91.6302C346.415 90.6024 345.589 89.7762 344.561 89.7762C344.521 89.7762 344.481 89.7863 344.45 89.7863L342.627 87.7006C343.171 86.9248 343.544 86.028 343.705 85.0506L347.967 85.4335C348.33 86.2497 349.146 86.824 350.103 86.824C351.393 86.824 352.441 85.7761 352.441 84.4864C352.441 83.1967 351.352 82.1488 350.063 82.1488Z" fill="#AEE0BD"/>
<path d="M486.379 152.559C485.593 152.559 484.908 152.952 484.505 153.557L480.173 153.164C480.032 152.338 479.719 151.572 479.296 150.887L481.1 149.315C481.22 149.335 481.341 149.355 481.462 149.355C482.46 149.355 483.266 148.549 483.266 147.552C483.266 146.554 482.46 145.748 481.462 145.748C480.465 145.748 479.659 146.554 479.659 147.552C479.659 147.592 479.669 147.622 479.669 147.662L477.825 149.264C477.13 148.72 476.324 148.317 475.447 148.096L475.376 143.471C476.172 143.118 476.727 142.322 476.727 141.405C476.727 140.156 475.709 139.138 474.46 139.138C473.21 139.138 472.192 140.156 472.192 141.405C472.192 142.181 472.585 142.866 473.18 143.269L473.25 147.934C472.434 148.015 471.669 148.247 470.963 148.61L469.704 147.169C469.724 147.048 469.744 146.927 469.744 146.806C469.744 145.557 468.726 144.539 467.477 144.539C466.228 144.539 465.21 145.557 465.21 146.806C465.21 148.055 466.228 149.073 467.477 149.073C467.779 149.073 468.061 149.013 468.313 148.912L469.21 149.94C468.636 150.554 468.172 151.28 467.88 152.086L463.91 151.733C463.497 150.957 462.691 150.433 461.754 150.433C460.404 150.433 459.305 151.532 459.305 152.882C459.305 154.232 460.404 155.33 461.754 155.33C462.731 155.33 463.568 154.756 463.96 153.93L467.477 154.242C467.477 154.262 467.477 154.282 467.477 154.302C467.477 155.481 467.799 156.58 468.354 157.527L467.155 158.575C466.913 158.484 466.661 158.434 466.389 158.434C465.139 158.434 464.122 159.451 464.122 160.701C464.122 161.95 465.139 162.968 466.389 162.968C467.638 162.968 468.656 161.95 468.656 160.701C468.656 160.539 468.636 160.378 468.605 160.227L469.774 159.209C470.782 160.056 472.051 160.59 473.442 160.68L473.492 164.419C472.817 164.812 472.354 165.537 472.354 166.373C472.354 167.623 473.371 168.64 474.621 168.64C475.87 168.64 476.888 167.623 476.888 166.373C476.888 165.507 476.394 164.771 475.689 164.388L475.628 160.459C476.344 160.257 476.999 159.935 477.583 159.522L479.246 161.416C479.225 161.527 479.205 161.648 479.205 161.779C479.205 162.776 480.011 163.582 481.009 163.582C482.006 163.582 482.812 162.776 482.812 161.779C482.812 160.781 482.006 159.975 481.009 159.975C480.969 159.975 480.938 159.985 480.898 159.985L479.125 157.96C479.649 157.204 480.011 156.338 480.173 155.391L484.304 155.763C484.656 156.559 485.452 157.114 486.369 157.114C487.619 157.114 488.636 156.096 488.636 154.846C488.646 153.577 487.629 152.559 486.379 152.559Z" fill="#AEE0BD"/>
<path d="M219.147 108.669C218.361 108.669 217.676 109.062 217.273 109.666L212.94 109.273C212.799 108.447 212.487 107.681 212.063 106.996L213.867 105.424C213.988 105.444 214.109 105.465 214.23 105.465C215.227 105.465 216.033 104.658 216.033 103.661C216.033 102.663 215.227 101.857 214.23 101.857C213.232 101.857 212.426 102.663 212.426 103.661C212.426 103.701 212.436 103.731 212.436 103.772L210.592 105.374C209.897 104.83 209.091 104.427 208.214 104.205L208.144 99.5802C208.94 99.2275 209.494 98.4315 209.494 97.5146C209.494 96.2652 208.476 95.2476 207.227 95.2476C205.977 95.2476 204.96 96.2652 204.96 97.5146C204.96 98.2905 205.353 98.9756 205.947 99.3787L206.018 104.044C205.202 104.124 204.436 104.356 203.731 104.719L202.471 103.278C202.491 103.157 202.511 103.036 202.511 102.915C202.511 101.666 201.494 100.648 200.244 100.648C198.995 100.648 197.977 101.666 197.977 102.915C197.977 104.165 198.995 105.182 200.244 105.182C200.547 105.182 200.829 105.122 201.081 105.021L201.977 106.049C201.403 106.664 200.94 107.389 200.647 108.195L196.677 107.842C196.264 107.067 195.458 106.543 194.521 106.543C193.171 106.543 192.073 107.641 192.073 108.991C192.073 110.341 193.171 111.44 194.521 111.44C195.499 111.44 196.335 110.865 196.728 110.039L200.244 110.351C200.244 110.371 200.244 110.392 200.244 110.412C200.244 111.591 200.567 112.689 201.121 113.636L199.922 114.684C199.68 114.593 199.428 114.543 199.156 114.543C197.907 114.543 196.889 115.561 196.889 116.81C196.889 118.059 197.907 119.077 199.156 119.077C200.406 119.077 201.423 118.059 201.423 116.81C201.423 116.649 201.403 116.488 201.373 116.336L202.542 115.319C203.549 116.165 204.819 116.699 206.209 116.79L206.26 120.528C205.585 120.921 205.121 121.646 205.121 122.483C205.121 123.732 206.139 124.75 207.388 124.75C208.638 124.75 209.655 123.732 209.655 122.483C209.655 121.616 209.161 120.881 208.456 120.498L208.396 116.568C209.111 116.367 209.766 116.044 210.35 115.631L212.013 117.525C211.993 117.636 211.973 117.757 211.973 117.888C211.973 118.886 212.779 119.692 213.776 119.692C214.774 119.692 215.58 118.886 215.58 117.888C215.58 116.891 214.774 116.084 213.776 116.084C213.736 116.084 213.706 116.095 213.665 116.095L211.892 114.069C212.416 113.314 212.779 112.447 212.94 111.5L217.071 111.873C217.424 112.669 218.22 113.223 219.137 113.223C220.386 113.223 221.404 112.205 221.404 110.956C221.404 109.676 220.396 108.669 219.147 108.669Z" fill="#AEE0BD"/>
<path d="M616.459 203.956C616.036 203.956 615.663 204.168 615.441 204.501L613.094 204.289C613.013 203.846 612.852 203.422 612.62 203.06L613.598 202.203C613.658 202.213 613.729 202.223 613.789 202.223C614.323 202.223 614.766 201.79 614.766 201.246C614.766 200.712 614.333 200.269 613.789 200.269C613.245 200.269 612.812 200.702 612.812 201.246C612.812 201.266 612.812 201.286 612.822 201.306L611.824 202.173C611.451 201.881 611.008 201.659 610.535 201.538L610.494 199.029C610.927 198.838 611.23 198.415 611.23 197.911C611.23 197.236 610.686 196.682 610.001 196.682C609.325 196.682 608.771 197.226 608.771 197.911C608.771 198.334 608.983 198.697 609.305 198.918L609.346 201.437C608.902 201.478 608.489 201.609 608.106 201.8L607.421 201.014C607.431 200.954 607.441 200.883 607.441 200.813C607.441 200.138 606.897 199.583 606.212 199.583C605.537 199.583 604.983 200.128 604.983 200.813C604.983 201.498 605.527 202.042 606.212 202.042C606.373 202.042 606.524 202.012 606.665 201.951L607.149 202.506C606.837 202.838 606.595 203.231 606.424 203.664L604.277 203.473C604.056 203.06 603.622 202.767 603.109 202.767C602.373 202.767 601.779 203.362 601.779 204.097C601.779 204.833 602.373 205.428 603.109 205.428C603.633 205.428 604.086 205.115 604.298 204.672L606.202 204.843C606.202 204.853 606.202 204.863 606.202 204.873C606.202 205.508 606.373 206.103 606.675 206.616L606.021 207.181C605.89 207.13 605.749 207.1 605.607 207.1C604.932 207.1 604.378 207.644 604.378 208.329C604.378 209.015 604.922 209.559 605.607 209.559C606.283 209.559 606.837 209.015 606.837 208.329C606.837 208.239 606.827 208.158 606.806 208.067L607.441 207.513C607.985 207.967 608.671 208.259 609.426 208.309L609.456 210.334C609.094 210.546 608.842 210.939 608.842 211.392C608.842 212.068 609.386 212.622 610.071 212.622C610.746 212.622 611.3 212.078 611.3 211.392C611.3 210.929 611.038 210.526 610.655 210.314L610.625 208.188C611.008 208.077 611.371 207.906 611.683 207.674L612.58 208.702C612.57 208.763 612.56 208.833 612.56 208.894C612.56 209.428 612.993 209.871 613.537 209.871C614.071 209.871 614.515 209.438 614.515 208.894C614.515 208.35 614.081 207.916 613.537 207.916C613.517 207.916 613.497 207.916 613.477 207.926L612.519 206.828C612.802 206.425 613.003 205.951 613.084 205.438L615.321 205.639C615.512 206.072 615.935 206.375 616.439 206.375C617.114 206.375 617.668 205.831 617.668 205.145C617.668 204.46 617.134 203.956 616.459 203.956Z" fill="#AEE0BD"/>
<path d="M425.541 99.1671C428.524 99.1671 430.942 96.7491 430.942 93.7664C430.942 90.7837 428.524 88.3657 425.541 88.3657C422.559 88.3657 420.141 90.7837 420.141 93.7664C420.141 96.7491 422.559 99.1671 425.541 99.1671Z" fill="#CDFEDC"/>
<path d="M596.469 46.8424C599.451 46.8424 601.869 44.4244 601.869 41.4417C601.869 38.459 599.451 36.041 596.469 36.041C593.486 36.041 591.068 38.459 591.068 41.4417C591.068 44.4244 593.486 46.8424 596.469 46.8424Z" fill="#CDFEDC"/>
<path d="M216.628 45.2808C219.61 45.2808 222.028 42.8629 222.028 39.8802C222.028 36.8975 219.61 34.4795 216.628 34.4795C213.645 34.4795 211.227 36.8975 211.227 39.8802C211.227 42.8629 213.645 45.2808 216.628 45.2808Z" fill="#CDFEDC"/>
<path d="M65.8421 52.2437C68.8248 52.2437 71.2428 49.8258 71.2428 46.8431C71.2428 43.8603 68.8248 41.4424 65.8421 41.4424C62.8594 41.4424 60.4414 43.8603 60.4414 46.8431C60.4414 49.8258 62.8594 52.2437 65.8421 52.2437Z" fill="#CDFEDC"/>
<path d="M6.92826 121.878C9.91098 121.878 12.3289 119.46 12.3289 116.477C12.3289 113.494 9.91098 111.076 6.92826 111.076C3.94555 111.076 1.52759 113.494 1.52759 116.477C1.52759 119.46 3.94555 121.878 6.92826 121.878Z" fill="#CDFEDC"/>
<path d="M58.0029 148.941L62.5069 146.674" stroke="#D9E2E8" stroke-width="3.02277" stroke-linecap="round" stroke-linejoin="round"/>
<path d="M71.3635 142.211L306.837 23.4565L528.547 74.9544" stroke="#D9E2E8" stroke-width="3.02277" stroke-linecap="round" stroke-linejoin="round" stroke-dasharray="9.93 9.93"/>
<path d="M533.383 76.0732L538.29 77.2118" stroke="#D9E2E8" stroke-width="3.02277" stroke-linecap="round" stroke-linejoin="round"/>
<path d="M322.374 14.3884C322.394 14.0962 322.394 13.9249 322.384 13.8644C322.384 13.8543 322.384 13.8443 322.384 13.8443C322.384 6.19667 315.421 0 306.837 0C298.252 0 291.29 6.19667 291.29 13.8443C291.29 13.8443 291.28 14.0458 291.31 14.4387C291.35 15.1944 291.461 15.93 291.612 16.6454C293.355 25.0184 299.28 34.2278 303.209 39.6486C304.953 42.0467 308.731 42.0668 310.494 39.6789C318.807 28.3838 321.326 20.5548 322.082 16.6655C322.243 15.9199 322.344 15.1642 322.374 14.3884Z" fill="#21C050"/>
<path d="M306.837 23.4569C312.09 23.4569 316.348 19.1984 316.348 13.9452C316.348 8.6921 312.09 4.43359 306.837 4.43359C301.584 4.43359 297.325 8.6921 297.325 13.9452C297.325 19.1984 301.584 23.4569 306.837 23.4569Z" fill="white"/>
<path d="M566.17 74.1585C566.19 73.7756 566.19 73.5439 566.19 73.4632C566.19 73.4532 566.19 73.4431 566.19 73.433C566.19 63.3068 556.971 55.105 545.605 55.105C534.24 55.105 525.02 63.3068 525.02 73.433C525.02 73.433 525.01 73.695 525.04 74.2089C525.091 75.2064 525.242 76.1837 525.443 77.1309C527.751 88.2143 535.59 100.406 540.789 107.58C543.086 110.754 548.104 110.774 550.421 107.621C561.424 92.678 564.759 82.3099 565.757 77.1611C565.989 76.1938 566.13 75.1862 566.17 74.1585Z" fill="#21C050"/>
<path d="M545.605 86.1692C552.561 86.1692 558.2 80.5303 558.2 73.5744C558.2 66.6184 552.561 60.9795 545.605 60.9795C538.649 60.9795 533.01 66.6184 533.01 73.5744C533.01 80.5303 538.649 86.1692 545.605 86.1692Z" fill="white"/>
<path d="M62.0029 149.234C62.0129 149.043 62.0129 148.922 62.0129 148.882C62.0129 148.872 62.0129 148.872 62.0129 148.862C62.0129 143.793 57.3982 139.672 51.6952 139.672C45.9923 139.672 41.3775 143.783 41.3775 148.862C41.3775 148.862 41.3674 148.993 41.3876 149.255C41.4077 149.758 41.4884 150.242 41.5891 150.716C42.7478 156.267 46.6774 162.383 49.277 165.97C50.4357 167.562 52.9446 167.572 54.1034 165.991C59.6149 158.504 61.2875 153.305 61.7913 150.726C61.9122 150.252 61.9827 149.748 62.0029 149.234Z" fill="#21C050"/>
<path d="M51.6952 155.249C55.1787 155.249 58.0027 152.425 58.0027 148.942C58.0027 145.458 55.1787 142.634 51.6952 142.634C48.2117 142.634 45.3877 145.458 45.3877 148.942C45.3877 152.425 48.2117 155.249 51.6952 155.249Z" fill="white"/>
<path d="M547.339 206.364H535.963V220.289H547.339V206.364Z" fill="#FEAC97"/>
<path d="M547.339 207.784L535.963 206.857V213.729C535.963 213.729 543.389 214.042 547.339 207.784Z" fill="#F97373"/>
<path d="M554.311 192.873C554.351 192.742 555.852 190.344 557.434 192.047C559.016 193.75 559.57 201.891 553.152 201.196C553.152 201.196 552.537 198.284 554.311 192.873Z" fill="#FEAC97"/>
<path d="M529.726 192.833C529.685 192.702 528.184 190.304 526.602 192.006C525.02 193.709 524.466 201.851 530.884 201.155C530.884 201.155 531.499 198.243 529.726 192.833Z" fill="#FEAC97"/>
<path d="M541.928 172.469C533.514 172.822 528.063 180.883 528.063 185.669C528.063 190.455 528.718 191.845 529.665 195.049C530.612 198.253 530.078 198.485 530.612 200.793C531.146 203.1 532.094 204.762 535.177 206.959C536.638 207.997 538.23 208.632 539.509 209.014C541.091 209.488 542.774 209.488 544.356 209.014C545.625 208.632 547.228 208.007 548.689 206.959C551.772 204.762 552.719 203.11 553.253 200.793C553.787 198.485 553.253 198.243 554.2 195.049C555.147 191.855 555.802 190.455 555.802 185.669C555.792 180.883 550.341 172.822 541.928 172.469Z" fill="#FEAC97"/>
<path d="M554.603 195.734C554.603 195.734 555.208 193.649 556.094 194.112C556.981 194.566 556.417 197.588 555.278 197.881C554.14 198.173 554.956 197.568 554.986 196.611C555.006 195.654 554.603 195.734 554.603 195.734Z" fill="#F97373"/>
<path d="M529.242 195.352C529.242 195.352 528.637 193.266 527.751 193.729C526.864 194.183 527.428 197.206 528.567 197.498C529.705 197.79 528.889 197.185 528.859 196.228C528.839 195.281 529.242 195.352 529.242 195.352Z" fill="#F97373"/>
<path d="M537.152 190.213C537.152 190.213 535.64 190.183 534.26 190.626C532.869 191.069 532.436 190.334 532.769 189.427C533.101 188.53 535.529 188.188 536.93 188.631C538.33 189.074 538.471 190.122 537.152 190.213Z" fill="#14313F"/>
<path d="M539.207 193.638C539.207 193.638 537.917 192.056 535.953 191.945C533.988 191.835 533.02 192.409 532.537 192.238C532.053 192.066 532.154 193.003 533.343 193.155C534.532 193.306 536.587 192.55 539.207 193.638Z" fill="#14313F"/>
<path d="M535.812 194.656C536.39 194.656 536.859 194.119 536.859 193.457C536.859 192.795 536.39 192.258 535.812 192.258C535.233 192.258 534.764 192.795 534.764 193.457C534.764 194.119 535.233 194.656 535.812 194.656Z" fill="#14313F"/>
<path d="M546.522 190.102C546.522 190.102 548.033 190.071 549.414 190.515C550.794 190.958 551.237 190.223 550.905 189.316C550.572 188.419 548.144 188.076 546.743 188.52C545.343 188.973 545.202 190.011 546.522 190.102Z" fill="#14313F"/>
<path d="M544.466 193.528C544.466 193.528 545.756 191.946 547.721 191.835C549.686 191.724 550.653 192.299 551.137 192.127C551.62 191.956 551.519 192.893 550.33 193.044C549.142 193.195 547.086 192.44 544.466 193.528Z" fill="#14313F"/>
<path d="M547.852 194.545C548.431 194.545 548.9 194.008 548.9 193.346C548.9 192.684 548.431 192.147 547.852 192.147C547.273 192.147 546.804 192.684 546.804 193.346C546.804 194.008 547.273 194.545 547.852 194.545Z" fill="#14313F"/>
<path d="M529.081 201.055C529.615 202.344 530.461 203.453 532.124 204.46C532.225 204.521 532.315 204.531 532.416 204.511C531.509 203.443 531.026 202.385 530.713 201.155C530.099 201.206 529.565 201.155 529.081 201.055Z" fill="#14313F"/>
<path d="M556.004 184.721C555.883 181.558 555.379 176.56 553.283 175.693C551.127 174.807 545.545 172.237 542.724 171.633C542.663 171.593 542.593 171.552 542.543 171.542C542.391 171.502 542.18 171.502 541.948 171.522C541.716 171.502 541.505 171.502 541.354 171.542C541.293 171.562 541.233 171.593 541.172 171.633C538.341 172.247 532.769 174.817 530.613 175.693C528.436 176.59 528.033 183.069 527.852 186.011L527.429 186.112C527.429 186.112 527.479 188.631 527.61 191.422C527.993 191.361 528.346 191.482 528.648 191.674C528.96 192.893 529.726 195.664 530.462 195.966C531.409 196.349 531.338 193.669 531.006 191.261C530.673 188.853 530.381 184.288 532.708 183.684C534.754 183.15 538.119 185.165 541.948 184.873C545.777 185.165 549.142 183.15 551.188 183.684C553.515 184.288 553.223 188.853 552.891 191.261C552.558 193.669 552.487 196.349 553.435 195.966C554.13 195.684 554.865 193.175 555.198 191.875C555.45 191.684 555.732 191.523 556.044 191.472C556.347 188.026 556.548 184.752 556.548 184.752L556.004 184.721Z" fill="#14313F"/>
<path d="M553.152 201.195C553.152 201.195 553.152 201.185 553.152 201.175C552.769 202.636 552.155 203.855 550.855 205.155C553.122 203.997 553.908 202.747 554.422 201.206C554.029 201.236 553.606 201.246 553.152 201.195Z" fill="#14313F"/>
<path d="M527.277 185.981C527.338 185.396 526.24 172.278 539.449 168.66C541.202 168.177 543.056 168.187 544.799 168.701C549.283 170.01 557.676 173.94 556.588 184.822L527.277 185.981Z" fill="#2C4351"/>
<path d="M529.021 183.401C528.981 183.401 528.94 183.401 528.89 183.391C528.477 183.321 528.205 182.928 528.275 182.525C528.316 182.293 529.293 176.751 533.031 173.205C536.789 169.638 541.465 169.315 541.666 169.305C542.069 169.275 542.442 169.597 542.462 170.011C542.482 170.424 542.17 170.786 541.757 170.817C541.717 170.817 537.414 171.129 534.069 174.303C530.704 177.497 529.777 182.726 529.766 182.787C529.696 183.139 529.384 183.401 529.021 183.401Z" fill="#3A5C6D"/>
<path d="M527.278 186.062C527.278 186.062 531.106 188.792 540.689 188.772C550.271 188.752 556.598 184.822 556.598 184.822L556.639 184.389C554.734 183.694 548.366 182.374 543.409 182.082C537.676 181.739 529.827 183.512 527.278 185.568V186.062Z" fill="#2C4351"/>
<path d="M527.278 185.567C527.278 185.567 531.177 187.915 540.759 187.895C550.342 187.875 556.639 184.388 556.639 184.388C556.639 184.388 549.535 181.567 543.48 181.215C537.424 180.852 529.353 183.431 527.278 185.567Z" fill="#2F4F5E"/>
<path d="M529.998 186.162C529.706 186.162 529.424 185.991 529.303 185.699C529.142 185.316 529.323 184.873 529.706 184.711C529.988 184.59 536.769 181.799 541.948 181.9C547.067 182.011 553.324 183.915 553.586 183.996C553.989 184.117 554.211 184.54 554.09 184.943C553.969 185.336 553.546 185.568 553.143 185.447C553.082 185.427 546.825 183.522 541.918 183.412C541.827 183.412 541.727 183.412 541.636 183.412C536.81 183.412 530.361 186.082 530.301 186.112C530.2 186.142 530.099 186.162 529.998 186.162Z" fill="#365C6B"/>
<path d="M531.872 198.676C531.872 198.676 531.308 203.059 533.222 205.377C534.522 206.948 537.907 209.125 541.928 209.367C545.948 209.598 550.945 205.961 551.772 204.359C552.598 202.757 552.558 198.384 551.913 197.971C551.268 197.558 543.61 194.092 541.928 194.061C540.235 194.001 533.413 197.266 531.872 198.676Z" fill="#E1E0F0"/>
<path d="M552.225 198.605C552.185 199.865 551.993 201.205 551.61 201.951C550.784 203.553 545.787 207.2 541.766 206.958C537.746 206.727 534.361 204.55 533.061 202.968C532.355 202.112 531.983 200.983 531.801 199.885C531.771 201.356 531.952 203.815 533.222 205.366C534.522 206.938 537.907 209.115 541.928 209.356C545.948 209.588 550.945 205.951 551.772 204.349C552.437 203.059 552.548 199.976 552.225 198.605Z" fill="#B7B7E2"/>
<path d="M554.452 194.243C554.452 194.243 552.739 197.628 552.024 198.585C551.61 199.129 552.024 198.364 552.024 198.364L550.502 197.427C550.502 197.427 552.789 195.331 554.452 194.243Z" fill="#E1E0F0"/>
<path d="M529.665 195.049C530.209 195.875 531.892 198.918 531.983 199.19C532.194 199.845 531.952 198.978 531.952 198.978L533.343 197.85C533.343 197.85 532.245 196.883 530.965 196.006L529.665 195.049Z" fill="#E1E0F0"/>
<path d="M567.329 379.68C566.039 366.561 564.367 344.243 564.78 331.497C565.284 316.05 558.795 286.508 557.253 279.747C537.394 284.916 521.363 280.462 517.685 279.273C517.343 282.478 517.141 285.48 517.03 288.019C517.03 288.019 514.35 318.197 517.433 335.527C519.519 347.255 521.01 367.377 521.696 380.717C521.685 380.778 521.675 380.848 521.675 380.909C521.786 384.395 520.638 397.574 521.665 398.31C522.693 399.046 525.444 398.239 528.094 397.806C529.011 397.655 529.988 394.935 530.855 391.448C533.837 382.41 536.991 361.18 536.144 358.238C535.076 354.52 533.817 341.129 533.867 339.588C533.887 338.943 534.532 331.295 535.328 322.046L539.479 303.667L547.147 328.414C548.215 333.28 548.961 336.696 549.031 337.129C549.314 338.661 549.979 352.082 549.455 355.87C549.183 357.815 551.691 367.216 554.644 375.962C554.644 375.962 560.377 397.111 563.057 397.202C565.737 397.302 568.569 397.756 569.496 396.899C570.433 396.053 567.672 383.176 567.329 379.68Z" fill="#2C4351"/>
<path d="M517.181 299.335C516.819 299.335 516.496 299.073 516.436 298.7C516.365 298.287 516.647 297.904 517.06 297.833C518.683 297.561 523.166 296.574 524.406 295.214C525.514 293.994 526.602 287.606 527.025 283.858C527.076 283.445 527.438 283.143 527.862 283.193C528.275 283.243 528.577 283.616 528.527 284.029C528.406 285.067 527.318 294.266 525.524 296.231C523.72 298.216 517.967 299.214 517.312 299.324C517.262 299.335 517.222 299.335 517.181 299.335Z" fill="#3A5C6D"/>
<path d="M560.205 299.334C560.145 299.334 560.085 299.324 560.014 299.314C559.772 299.254 554.029 297.772 552.387 296.896C550.704 295.999 549.666 288.442 549.203 284.019C549.162 283.606 549.465 283.233 549.878 283.193C550.291 283.152 550.664 283.455 550.704 283.868C551.248 288.996 552.316 294.931 553.112 295.576C554.321 296.211 558.775 297.43 560.377 297.843C560.78 297.944 561.022 298.357 560.921 298.76C560.85 299.102 560.548 299.334 560.205 299.334Z" fill="#3A5C6D"/>
<path d="M521.252 396.506C521.252 396.506 517.02 403.096 514.713 404.113C512.456 405.101 508.94 405.454 507.509 406.199C506.068 406.945 505.463 410.381 505.463 410.381C505.463 410.381 528.759 409.806 530.059 409.423C531.358 409.041 529.273 396.184 529.202 396.335C529.132 396.466 523.187 397.433 521.252 396.506Z" fill="#14313F"/>
<path d="M508.527 407.892C508.164 407.892 507.842 407.62 507.781 407.247C507.721 406.834 508.003 406.451 508.416 406.391C512.154 405.816 516.426 404.879 517.111 404.295C517.958 403.58 520.164 400.023 521.353 397.947C521.565 397.584 522.028 397.463 522.381 397.665C522.744 397.877 522.865 398.34 522.663 398.693C522.331 399.267 519.409 404.315 518.089 405.444C516.739 406.592 509.988 407.68 508.648 407.882C508.607 407.892 508.567 407.892 508.527 407.892Z" fill="#2C4351"/>
<path d="M569.748 396.587C569.748 396.587 574.131 403.076 576.468 404.033C578.745 404.97 582.262 405.232 583.723 405.947C585.184 406.663 585.859 410.079 585.859 410.079C585.859 410.079 562.553 410.038 561.243 409.686C559.934 409.323 561.727 396.436 561.798 396.577C561.868 396.718 567.823 397.564 569.748 396.587Z" fill="#14313F"/>
<path d="M582.927 407.892C582.887 407.892 582.846 407.892 582.816 407.882C581.476 407.68 574.725 406.592 573.375 405.444C572.055 404.325 569.133 399.267 568.801 398.693C568.589 398.33 568.72 397.867 569.083 397.665C569.445 397.453 569.909 397.584 570.11 397.947C571.35 400.103 573.506 403.57 574.352 404.295C575.038 404.879 579.31 405.816 583.048 406.391C583.461 406.451 583.743 406.844 583.683 407.247C583.612 407.63 583.29 407.892 582.927 407.892Z" fill="#2C4351"/>
<path d="M547.167 214.092C547.177 214.072 547.177 214.062 547.177 214.062L547.167 214.092Z" fill="#00AF9E"/>
<path d="M566.825 217.821C565.354 217.166 562.856 216.249 559.178 215.595C552.75 214.456 547.812 212.169 547.812 212.169C547.812 212.169 547.742 213.761 546.976 214.748C546.976 214.748 546.402 215.836 541.485 215.786C535.338 215.726 535.288 211.081 535.288 211.081C535.288 211.081 530.411 212.35 523.922 213.025C517.434 213.7 514.451 215.423 514.451 215.423L514.431 215.998C514.431 215.998 519.066 253.137 516.889 278.992C516.889 278.992 535.097 285.834 558.241 279.476C558.241 279.476 558.785 247.727 561.354 237.147C563.269 229.257 565.495 222.355 566.513 219.353C566.513 219.353 566.977 217.771 566.825 217.821Z" fill="#21C050"/>
<path d="M541.082 216.803C534.522 216.803 534.149 211.654 534.149 211.594C534.119 211.04 534.542 210.566 535.097 210.526C535.641 210.496 536.124 210.919 536.165 211.463C536.195 211.826 536.558 214.929 541.454 214.768C546.583 214.597 547.329 211.906 547.359 211.796C547.5 211.261 548.034 210.929 548.568 211.06C549.102 211.191 549.445 211.715 549.324 212.249C549.283 212.42 548.306 216.561 541.525 216.783C541.364 216.803 541.223 216.803 541.082 216.803Z" fill="#54848C"/>
<path d="M558.987 227.468L520.56 226.087L519.326 260.436L557.753 261.816L558.987 227.468Z" fill="#3F636D"/>
<path d="M558.966 227.443L551.399 224.38L526.482 223.453L520.547 226.063L558.966 227.443Z" fill="#4A757F"/>
<path d="M553.281 231.247L543.312 230.889L542.364 257.262L552.334 257.62L553.281 231.247Z" fill="#4A757F"/>
<path d="M522.19 236.542C521.776 236.542 521.434 236.199 521.434 235.786V228.612C521.434 228.411 521.514 228.209 521.666 228.068C521.807 227.927 522.008 227.856 522.21 227.856L555.369 228.612C555.783 228.622 556.115 228.965 556.105 229.388C556.095 229.801 555.702 230.124 555.329 230.124L522.945 229.388V235.796C522.945 236.199 522.613 236.542 522.19 236.542Z" fill="#4A757F"/>
<path d="M555.259 260.16C555.249 260.16 555.239 260.16 555.228 260.16L521.283 259.031C520.87 259.021 520.537 258.669 520.557 258.245C520.567 257.832 520.88 257.5 521.343 257.52L555.289 258.648C555.702 258.658 556.034 259.011 556.014 259.434C556.004 259.837 555.672 260.16 555.259 260.16Z" fill="#4A757F"/>
<path d="M514.239 215.503C514.239 215.503 510.239 217.982 507.952 225.045C505.675 232.098 500.133 249.217 500.335 254.205C500.536 259.182 505.121 259.082 508.536 257.973C511.952 256.875 516.466 241.771 517.826 237.338C519.197 232.894 517.524 217.025 514.239 215.503Z" fill="#54848C"/>
<path d="M517.454 240.34C517.454 240.34 503.438 244.623 500.778 250.235C499.579 252.764 498.864 263.293 503.478 263.082C508.093 262.87 516.607 252.169 519.257 249.288C521.917 246.396 520.295 240.28 517.454 240.34Z" fill="#578D93"/>
<path d="M522.935 238.779L523.187 238.739C523.187 238.739 522.865 239.434 521.182 239.787C519.499 240.139 517.404 241.469 517.404 241.469L523.852 240.966C523.852 240.966 523.57 241.802 522.945 241.933C522.311 242.054 517.867 243.535 517.867 243.535L517.001 244.905L523.691 243.354C523.691 243.354 523.207 244.311 522.17 244.643C521.122 244.976 518.381 246.145 517.948 246.185C517.514 246.235 523.308 246.124 523.308 246.124C523.308 246.124 523.096 246.779 522.19 247.041C521.283 247.293 520.084 248.029 519.731 248.452C519.368 248.885 516.739 246.185 516.739 246.185L516.698 245.087L516.87 242.336L517.474 240.331C517.454 240.341 520.557 238.618 522.935 238.779Z" fill="#E0877C"/>
<path d="M516.698 241.761C516.698 241.761 517.292 239.141 517.575 238.758C517.857 238.365 520.154 237.831 520.668 237.66C521.182 237.489 523.348 237.61 523.298 238.184C523.247 238.758 523.187 239.081 522.391 239.131C521.595 239.182 519.479 239.806 519.197 239.998C518.915 240.189 517.544 241.237 517.544 241.237C517.544 241.237 518.774 240.451 518.905 240.31C519.036 240.169 521.01 239.877 521.635 239.655C522.26 239.433 523.157 239.212 523.489 239.443C523.822 239.675 524.225 240.753 523.691 241.156C523.167 241.57 520.335 242.194 519.63 242.325C518.915 242.456 517.343 243.182 517.182 243.534C517.02 243.887 516.869 244.622 516.869 244.622C516.869 244.622 517.172 243.696 517.383 243.464C517.605 243.232 519.61 242.688 520.073 242.456C520.325 242.325 522.33 242.083 523.207 241.852C523.963 241.65 524.174 242.9 523.449 243.625C523.005 244.068 521.796 244.27 520.386 244.502C518.975 244.733 518.119 245.902 518.119 245.902C518.119 245.902 518.743 245.68 519.066 245.61C519.388 245.539 520.305 244.864 520.94 244.784C521.575 244.703 522.24 244.572 522.683 244.602C523.56 244.653 523.65 245.942 523.046 246.386C522.613 246.698 520.638 246.98 520.114 247.736C519.59 248.492 519.429 249.308 519.257 249.278C519.096 249.247 517.736 248.834 517.524 248.522C517.313 248.21 517.383 247.192 517.172 247.051C516.96 246.91 516.023 246.104 516.093 245.741C516.164 245.378 516.456 244.068 516.456 243.756C516.456 243.454 515.932 242.496 516.698 241.761Z" fill="#FEAC97"/>
<path d="M502.552 249.963C502.36 249.963 502.169 249.892 502.028 249.751C501.725 249.459 501.725 248.985 502.007 248.683C502.169 248.512 506.129 244.502 514.895 241.328C515.287 241.187 515.721 241.388 515.862 241.781C516.003 242.174 515.801 242.607 515.408 242.748C506.995 245.791 503.126 249.691 503.086 249.731C502.945 249.892 502.753 249.963 502.552 249.963Z" fill="#5A959B"/>
<path d="M566.755 217.791C566.755 217.791 570.574 220.551 572.337 227.756C574.11 234.96 578.402 252.431 577.848 257.379C577.294 262.326 572.72 261.893 569.395 260.553C566.07 259.213 562.654 243.827 561.616 239.303C560.568 234.778 563.379 219.08 566.755 217.791Z" fill="#54848C"/>
<path d="M561.767 242.335C561.767 242.335 575.44 247.605 577.687 253.398C578.705 256.008 578.664 266.558 574.07 266.024C569.475 265.49 561.757 254.194 559.319 251.131C556.88 248.058 558.946 242.063 561.767 242.335Z" fill="#578D93"/>
<path d="M556.417 240.381L556.165 240.32C556.165 240.32 556.437 241.036 558.089 241.509C559.742 241.983 561.737 243.464 561.737 243.464L555.339 242.497C555.339 242.497 555.56 243.353 556.175 243.524C556.79 243.696 561.132 245.489 561.132 245.489L561.898 246.91L555.339 244.875C555.339 244.875 555.752 245.862 556.759 246.275C557.777 246.678 560.427 248.038 560.86 248.119C561.293 248.2 555.52 247.676 555.52 247.676C555.52 247.676 555.681 248.351 556.568 248.663C557.455 248.986 558.593 249.802 558.916 250.255C559.248 250.709 562.059 248.21 562.059 248.21L562.18 247.111L562.21 244.361L561.747 242.325C561.767 242.335 558.805 240.391 556.417 240.381Z" fill="#E0877C"/>
<path d="M562.432 243.807C562.432 243.807 562.029 241.157 561.777 240.744C561.525 240.341 559.268 239.635 558.775 239.434C558.271 239.222 556.105 239.192 556.115 239.766C556.115 240.341 556.165 240.673 556.951 240.774C557.737 240.875 559.812 241.65 560.074 241.872C560.336 242.084 561.636 243.232 561.636 243.232C561.636 243.232 560.467 242.366 560.346 242.215C560.226 242.064 558.281 241.63 557.666 241.368C557.062 241.106 556.175 240.814 555.832 241.026C555.49 241.237 555.006 242.275 555.5 242.729C555.994 243.172 558.775 244.008 559.47 244.19C560.165 244.371 561.687 245.207 561.828 245.57C561.959 245.923 562.059 246.668 562.059 246.668C562.059 246.668 561.828 245.721 561.626 245.469C561.425 245.227 559.46 244.542 559.016 244.28C558.775 244.129 556.79 243.746 555.933 243.454C555.188 243.202 554.885 244.421 555.56 245.207C555.974 245.681 557.163 245.973 558.553 246.305C559.943 246.638 560.709 247.857 560.709 247.857C560.709 247.857 560.105 247.595 559.782 247.505C559.47 247.414 558.593 246.668 557.969 246.547C557.344 246.426 556.689 246.245 556.236 246.245C555.359 246.235 555.167 247.515 555.742 247.998C556.145 248.341 558.1 248.764 558.573 249.55C559.047 250.336 559.147 251.172 559.319 251.152C559.49 251.132 560.87 250.819 561.102 250.527C561.334 250.225 561.344 249.207 561.566 249.086C561.787 248.955 562.775 248.22 562.734 247.857C562.684 247.494 562.493 246.164 562.513 245.852C562.543 245.509 563.137 244.593 562.432 243.807Z" fill="#FEAC97"/>
<path d="M576.8 252.573C576.559 252.573 576.317 252.452 576.166 252.24C572.045 246.043 563.994 244.079 563.913 244.058C563.51 243.968 563.258 243.555 563.349 243.152C563.44 242.749 563.863 242.497 564.256 242.587C564.608 242.668 572.971 244.713 577.415 251.404C577.647 251.746 577.546 252.22 577.203 252.452C577.093 252.532 576.951 252.573 576.8 252.573Z" fill="#5A959B"/>
<path d="M374.527 409.457C394.015 409.457 409.813 393.659 409.813 374.171C409.813 354.684 394.015 338.886 374.527 338.886C355.039 338.886 339.241 354.684 339.241 374.171C339.241 393.659 355.039 409.457 374.527 409.457Z" fill="#2C4351"/>
<path d="M373.157 392.932C383.518 392.932 391.918 384.533 391.918 374.171C391.918 363.809 383.518 355.41 373.157 355.41C362.795 355.41 354.396 363.809 354.396 374.171C354.396 384.533 362.795 392.932 373.157 392.932Z" fill="#2C4351"/>
<path d="M150.57 410.354C170.058 410.354 185.856 394.556 185.856 375.069C185.856 355.581 170.058 339.783 150.57 339.783C131.083 339.783 115.285 355.581 115.285 375.069C115.285 394.556 131.083 410.354 150.57 410.354Z" fill="#2C4351"/>
<path d="M149.211 393.83C159.572 393.83 167.972 385.43 167.972 375.068C167.972 364.707 159.572 356.307 149.211 356.307C138.849 356.307 130.449 364.707 130.449 375.068C130.449 385.43 138.849 393.83 149.211 393.83Z" fill="#2C4351"/>
<path d="M433.007 342.594H310.253V372.116H433.007V342.594Z" fill="#456C75"/>
<path d="M428.584 347.117H313.527C312.691 347.117 312.016 346.442 312.016 345.606C312.016 344.769 312.691 344.094 313.527 344.094H428.584C429.42 344.094 430.095 344.769 430.095 345.606C430.095 346.442 429.42 347.117 428.584 347.117Z" fill="#55868E"/>
<path d="M314.897 354.393V362.957C314.897 365.466 316.641 367.511 318.797 367.511C320.953 367.511 322.696 365.476 322.696 362.957V354.393C322.696 351.884 320.953 349.838 318.797 349.838C316.641 349.838 314.897 351.874 314.897 354.393Z" fill="white"/>
<path d="M420.785 354.392V362.957C420.785 365.466 422.528 367.511 424.685 367.511C426.841 367.511 428.584 365.476 428.584 362.957V354.392C428.584 351.883 426.841 349.838 424.685 349.838C422.528 349.838 420.785 351.873 420.785 354.392Z" fill="white"/>
<path d="M428.584 169.913H313.527V342.604H428.584V169.913Z" fill="#138C37"/>
<path d="M424.684 278.36C423.848 278.36 423.173 277.685 423.173 276.849V174.417C423.173 173.581 423.848 172.906 424.684 172.906C425.521 172.906 426.196 173.581 426.196 174.417V276.849C426.196 277.685 425.521 278.36 424.684 278.36Z" fill="#299F4C"/>
<path d="M317.417 277.987C316.58 277.987 315.905 277.312 315.905 276.475V174.034C315.905 173.198 316.58 172.522 317.417 172.522C318.253 172.522 318.928 173.198 318.928 174.034V276.475C318.928 277.312 318.253 277.987 317.417 277.987Z" fill="#299F4C"/>
<path d="M321.316 303.489H313.527V324.397H321.316V303.489Z" fill="#385863"/>
<path d="M428.584 303.489H420.785V324.397H428.584V303.489Z" fill="#385863"/>
<path d="M420.785 178.397H321.316V332.266H420.785V178.397Z" fill="#125827"/>
<path d="M420.785 178.397L321.316 332.266V178.397H420.785Z" fill="#14692D"/>
<path d="M146.207 185.158H127.154C121.159 185.158 115.577 188.725 112.332 194.619L74.1344 264.193L27.2815 290.864L14.7068 343.228H146.207V185.158Z" fill="#2C4351"/>
<path d="M22.0822 310.411H31.0296L24.974 337.495L16.1777 337.072L22.0822 310.411Z" fill="#21C050"/>
<path d="M31.0298 295.298C30.5059 295.298 30.0021 295.026 29.72 294.552C29.2968 293.837 29.5386 292.91 30.2641 292.486L72.7339 267.609C73.4493 267.186 74.3763 267.428 74.7995 268.153C75.2227 268.869 74.9809 269.796 74.2554 270.219L31.7956 295.086C31.5538 295.227 31.2918 295.298 31.0298 295.298Z" fill="#3A5B68"/>
<path d="M115.325 206.156L81.1975 267.417H146.207V197.41L127.224 198.267C122.388 198.488 117.954 201.43 115.325 206.156Z" fill="#D9FFF8"/>
<path d="M106.256 234.49C105.772 234.49 105.309 234.258 105.017 233.835C104.543 233.15 104.714 232.202 105.4 231.729L139.859 207.889C140.544 207.416 141.491 207.587 141.965 208.272C142.439 208.957 142.267 209.904 141.582 210.378L107.123 234.218C106.851 234.399 106.548 234.49 106.256 234.49Z" fill="white"/>
<path d="M98.5178 253.684C98.0341 253.684 97.5707 253.452 97.2785 253.029C96.8049 252.344 96.9762 251.397 97.6613 250.923L132.121 227.084C132.806 226.61 133.753 226.781 134.227 227.467C134.7 228.152 134.529 229.099 133.844 229.572L99.3843 253.412C99.1123 253.593 98.8201 253.684 98.5178 253.684Z" fill="white"/>
<path d="M114.347 255.508C113.864 255.508 113.4 255.276 113.108 254.853C112.634 254.168 112.806 253.22 113.491 252.747L138.852 235.205C139.537 234.731 140.484 234.902 140.958 235.588C141.431 236.273 141.26 237.22 140.575 237.693L115.214 255.236C114.942 255.417 114.64 255.508 114.347 255.508Z" fill="white"/>
<path d="M313.527 169.913H146.207V342.604H313.527V169.913Z" fill="#21C050"/>
<path d="M152.676 265.705C151.839 265.705 151.164 265.029 151.164 264.193V175.102C151.164 174.276 151.829 173.601 152.666 173.591L229.857 172.896H229.867C230.693 172.896 231.368 173.561 231.378 174.397C231.389 175.233 230.713 175.918 229.877 175.918L154.187 176.593V264.183C154.187 265.029 153.512 265.705 152.676 265.705Z" fill="#299F4C"/>
<path d="M313.527 303.489H305.729V324.396H313.527V303.489Z" fill="#3F636D"/>
<path d="M310.253 342.594H9.22559V372.116H310.253V342.594Z" fill="#3F636D"/>
<path d="M228.296 348.951H107.657C106.821 348.951 106.146 348.276 106.146 347.44C106.146 346.604 106.821 345.929 107.657 345.929H228.296C229.132 345.929 229.807 346.604 229.807 347.44C229.807 348.276 229.132 348.951 228.296 348.951Z" fill="#55868E"/>
<path d="M42.6374 347.46H11.2006C10.3643 347.46 9.68921 346.785 9.68921 345.949C9.68921 345.113 10.3643 344.438 11.2006 344.438H42.6374C43.4737 344.438 44.1487 345.113 44.1487 345.949C44.1487 346.785 43.4737 347.46 42.6374 347.46Z" fill="#55868E"/>
<path d="M303.623 375.068C303.623 375.068 301.719 340.951 272.509 336.074C243.299 331.198 227.389 356.055 226.673 375.068H303.623Z" fill="#243F44"/>
<path d="M265.607 411.724C285.094 411.724 300.892 395.926 300.892 376.438C300.892 356.95 285.094 341.152 265.607 341.152C246.119 341.152 230.321 356.95 230.321 376.438C230.321 395.926 246.119 411.724 265.607 411.724Z" fill="#2C4351"/>
<path d="M264.236 395.2C274.598 395.2 282.998 386.8 282.998 376.439C282.998 366.077 274.598 357.677 264.236 357.677C253.875 357.677 245.475 366.077 245.475 376.439C245.475 386.8 253.875 395.2 264.236 395.2Z" fill="#3F636D"/>
<path d="M111.98 375.068C111.98 375.068 110.075 340.951 80.8653 336.074C51.6552 331.198 35.7454 356.055 35.03 375.068H111.98Z" fill="#243F44"/>
<path d="M73.4996 410.354C92.9874 410.354 108.785 394.556 108.785 375.069C108.785 355.581 92.9874 339.783 73.4996 339.783C54.0118 339.783 38.2139 355.581 38.2139 375.069C38.2139 394.556 54.0118 410.354 73.4996 410.354Z" fill="#2C4351"/>
<path d="M72.1395 393.829C82.5011 393.829 90.9008 385.43 90.9008 375.068C90.9008 364.706 82.5011 356.307 72.1395 356.307C61.7779 356.307 53.3782 364.706 53.3782 375.068C53.3782 385.43 61.7779 393.829 72.1395 393.829Z" fill="#3F636D"/>
</svg>
