<svg width="90" height="80" viewBox="0 0 90 80" fill="none" xmlns="http://www.w3.org/2000/svg">
<rect x="18" width="54" height="54" rx="10" fill="#21C050" fill-opacity="0.1"/>
<g clip-path="url(#clip0)">
<path d="M56.99 17.19C56.96 16.66 56.52 16.25 55.99 16.25H33.87C33.34 16.25 32.91 16.66 32.87 17.19L31 46.19C30.96 46.77 31.42 47.25 32 47.25H57.87C58.45 47.25 58.91 46.76 58.87 46.19L56.99 17.19ZM50.08 37.14C48.76 39.12 45.58 40.49 43.17 40.22C42.69 40.17 42.5 39.56 42.85 39.23C45.83 36.47 47.04 33.48 47.41 31.39C47.47 31.04 47.15 30.81 46.87 30.89C46.86 31.05 46.83 31.2 46.76 31.35C45.1 34.9 42.04 38.4 39.64 39.5C39.47 39.58 39.29 39.61 39.12 39.61C38.65 39.61 38.19 39.34 37.98 38.88C37.69 38.25 37.97 37.51 38.59 37.22C38.86 37.09 39.18 36.89 39.51 36.65C38.2 34.9 37.99 32.92 39.43 30.92C41.08 28.62 47.14 25.95 48.66 25.3C48.88 25.21 49.12 25.26 49.27 25.44C50.38 26.69 53.04 32.7 50.08 37.14Z" fill="#21C050"/>
<path d="M45.0399 6H44.8199C40.8199 6 37.5699 9.25 37.5699 13.25C37.5699 13.94 38.1299 14.5 38.8199 14.5C39.5099 14.5 40.0699 13.94 40.0699 13.25C40.0699 10.63 42.1999 8.5 44.8199 8.5H45.0399C47.6599 8.5 49.7899 10.63 49.7899 13.25C49.7899 13.94 50.3499 14.5 51.0399 14.5C51.7299 14.5 52.2899 13.94 52.2899 13.25C52.2899 9.25 49.0399 6 45.0399 6Z" fill="#21C050"/>
</g>
<path d="M7.66619 64.8182V71.3906C7.66619 72.7727 6.71165 73.767 5.16051 73.767C3.61435 73.767 2.65483 72.7727 2.65483 71.3906V64.8182H1.11861V71.5149C1.11861 73.6527 2.71946 75.169 5.16051 75.169C7.60156 75.169 9.20739 73.6527 9.20739 71.5149V64.8182H7.66619ZM12.8081 70.4659C12.8081 69.2479 13.5538 68.5518 14.5879 68.5518C15.5971 68.5518 16.2086 69.2131 16.2086 70.3217V75H17.6951V70.1428C17.6951 68.2536 16.6561 67.2642 15.095 67.2642C13.9466 67.2642 13.1958 67.7962 12.8429 68.6065H12.7484V67.3636H11.3216V75H12.8081V70.4659ZM19.6887 77.8636H21.1752V73.8118H21.2647C21.5332 74.299 22.0801 75.1491 23.4721 75.1491C25.3216 75.1491 26.6639 73.6676 26.6639 71.1967C26.6639 68.7209 25.3017 67.2642 23.4572 67.2642C22.0403 67.2642 21.5282 68.1293 21.2647 68.6016H21.1404V67.3636H19.6887V77.8636ZM21.1454 71.1818C21.1454 69.5859 21.8414 68.527 23.139 68.527C24.4863 68.527 25.1625 69.6655 25.1625 71.1818C25.1625 72.7131 24.4664 73.8814 23.139 73.8814C21.8613 73.8814 21.1454 72.7876 21.1454 71.1818ZM28.3294 75H29.8159V70.3366C29.8159 69.3374 30.5865 68.6165 31.6404 68.6165C31.9487 68.6165 32.2967 68.6712 32.416 68.706V67.2841C32.2669 67.2642 31.9735 67.2493 31.7846 67.2493C30.8897 67.2493 30.1241 67.7564 29.8457 68.5767H29.7662V67.3636H28.3294V75ZM36.6456 75.1541C38.7983 75.1541 40.2053 73.5781 40.2053 71.2166C40.2053 68.8402 38.7983 67.2642 36.6456 67.2642C34.4929 67.2642 33.0859 68.8402 33.0859 71.2166C33.0859 73.5781 34.4929 75.1541 36.6456 75.1541ZM36.6506 73.9062C35.2436 73.9062 34.5874 72.6783 34.5874 71.2116C34.5874 69.75 35.2436 68.5071 36.6506 68.5071C38.0476 68.5071 38.7038 69.75 38.7038 71.2116C38.7038 72.6783 38.0476 73.9062 36.6506 73.9062ZM45.0811 75.1541C46.8858 75.1541 48.0542 74.0703 48.2182 72.5838H46.7715C46.5826 73.4091 45.9412 73.8963 45.0911 73.8963C43.8333 73.8963 43.0229 72.8473 43.0229 71.1818C43.0229 69.5462 43.8482 68.517 45.0911 68.517C46.0357 68.517 46.6124 69.1136 46.7715 69.8295H48.2182C48.0591 68.2884 46.8013 67.2642 45.0662 67.2642C42.9135 67.2642 41.5215 68.8849 41.5215 71.2166C41.5215 73.5185 42.8638 75.1541 45.0811 75.1541ZM53.0991 75.1541C54.7646 75.1541 55.9428 74.3338 56.2809 73.0909L54.8739 72.8374C54.6055 73.5582 53.9592 73.9261 53.114 73.9261C51.8413 73.9261 50.9862 73.1009 50.9464 71.6293H56.3754V71.1023C56.3754 68.343 54.7248 67.2642 52.9947 67.2642C50.8668 67.2642 49.4648 68.8849 49.4648 71.2315C49.4648 73.603 50.8469 75.1541 53.0991 75.1541ZM50.9513 70.5156C51.011 69.4318 51.7965 68.4922 53.0046 68.4922C54.158 68.4922 54.9137 69.3473 54.9187 70.5156H50.9513ZM63.747 69.228C63.4387 68.0398 62.5091 67.2642 60.8585 67.2642C59.1333 67.2642 57.9103 68.174 57.9103 69.5263C57.9103 70.6101 58.5666 71.331 59.9984 71.6491L61.291 71.9325C62.0268 72.0966 62.3699 72.4247 62.3699 72.902C62.3699 73.4936 61.7385 73.956 60.764 73.956C59.8741 73.956 59.3024 73.5732 59.1234 72.8224L57.6866 73.0412C57.9352 74.3935 59.0588 75.1541 60.774 75.1541C62.6184 75.1541 63.8961 74.1747 63.8961 72.7926C63.8961 71.7138 63.21 71.0476 61.8081 70.7244L60.595 70.446C59.7548 70.2472 59.3919 69.9638 59.3968 69.4467C59.3919 68.8601 60.0282 68.4425 60.8734 68.4425C61.7981 68.4425 62.2257 68.9545 62.3997 69.4666L63.747 69.228ZM71.2528 69.228C70.9446 68.0398 70.0149 67.2642 68.3643 67.2642C66.6392 67.2642 65.4162 68.174 65.4162 69.5263C65.4162 70.6101 66.0724 71.331 67.5043 71.6491L68.7969 71.9325C69.5327 72.0966 69.8757 72.4247 69.8757 72.902C69.8757 73.4936 69.2443 73.956 68.2699 73.956C67.38 73.956 66.8082 73.5732 66.6293 72.8224L65.1925 73.0412C65.4411 74.3935 66.5646 75.1541 68.2798 75.1541C70.1243 75.1541 71.402 74.1747 71.402 72.7926C71.402 71.7138 70.7159 71.0476 69.3139 70.7244L68.1009 70.446C67.2607 70.2472 66.8977 69.9638 66.9027 69.4467C66.8977 68.8601 67.5341 68.4425 68.3793 68.4425C69.304 68.4425 69.7315 68.9545 69.9055 69.4666L71.2528 69.228ZM76.3276 75.1541C77.9931 75.1541 79.1713 74.3338 79.5094 73.0909L78.1025 72.8374C77.834 73.5582 77.1877 73.9261 76.3425 73.9261C75.0698 73.9261 74.2147 73.1009 74.1749 71.6293H79.6039V71.1023C79.6039 68.343 77.9533 67.2642 76.2232 67.2642C74.0953 67.2642 72.6934 68.8849 72.6934 71.2315C72.6934 73.603 74.0755 75.1541 76.3276 75.1541ZM74.1799 70.5156C74.2395 69.4318 75.025 68.4922 76.2331 68.4922C77.3865 68.4922 78.1422 69.3473 78.1472 70.5156H74.1799ZM84.1119 75.1491C85.5039 75.1491 86.0508 74.299 86.3192 73.8118H86.4435V75H87.8952V64.8182H86.4087V68.6016H86.3192C86.0508 68.1293 85.5437 67.2642 84.1218 67.2642C82.2773 67.2642 80.9201 68.7209 80.9201 71.1967C80.9201 73.6676 82.2575 75.1491 84.1119 75.1491ZM84.44 73.8814C83.1126 73.8814 82.4215 72.7131 82.4215 71.1818C82.4215 69.6655 83.0977 68.527 84.44 68.527C85.7376 68.527 86.4336 69.5859 86.4336 71.1818C86.4336 72.7876 85.7227 73.8814 84.44 73.8814Z" fill="black"/>
<defs>
<clipPath id="clip0">
<rect width="27.87" height="41.25" fill="white" transform="translate(31 6)"/>
</clipPath>
</defs>
</svg>
