<svg width="153" height="52" viewBox="0 0 153 52" fill="none" xmlns="http://www.w3.org/2000/svg">
<rect y="18" width="151" height="34" rx="8" fill="#D8F3E7"/>
<path d="M11.2784 40H13.0341V35.5966H15.4205C15.4602 35.5966 15.4943 35.5966 15.5341 35.5966L17.8977 40H19.8977L17.3182 35.2898C18.7443 34.7614 19.4545 33.5739 19.4545 32.0114C19.4545 29.8693 18.125 28.3636 15.4261 28.3636H11.2784V40ZM13.0341 34.0852V29.8693H15.2386C16.9716 29.8693 17.6875 30.6932 17.6875 32.0114C17.6875 33.3239 16.9716 34.0852 15.2614 34.0852H13.0341ZM25.1065 40.1761C27.0099 40.1761 28.3565 39.2386 28.7429 37.8182L27.1349 37.5284C26.8281 38.3523 26.0895 38.7727 25.1236 38.7727C23.669 38.7727 22.6918 37.8295 22.6463 36.1477H28.8509V35.5455C28.8509 32.392 26.9645 31.1591 24.9872 31.1591C22.5554 31.1591 20.9531 33.0114 20.9531 35.6932C20.9531 38.4034 22.5327 40.1761 25.1065 40.1761ZM22.652 34.875C22.7202 33.6364 23.6179 32.5625 24.9986 32.5625C26.3168 32.5625 27.1804 33.5398 27.1861 34.875H22.652ZM33.2756 40.1932C34.7188 40.1932 35.5312 39.4602 35.8551 38.8068H35.9233V40H37.5824V34.2045C37.5824 31.6648 35.5824 31.1591 34.196 31.1591C32.6165 31.1591 31.1619 31.7955 30.5938 33.3864L32.1903 33.75C32.4403 33.1307 33.0767 32.5341 34.2188 32.5341C35.3153 32.5341 35.8778 33.108 35.8778 34.0966V34.1364C35.8778 34.7557 35.2415 34.7443 33.6733 34.9261C32.0199 35.1193 30.3267 35.5511 30.3267 37.5341C30.3267 39.25 31.6165 40.1932 33.2756 40.1932ZM33.6449 38.8295C32.6847 38.8295 31.9915 38.3977 31.9915 37.5568C31.9915 36.6477 32.7983 36.3239 33.7812 36.1932C34.3324 36.1193 35.6392 35.9716 35.8835 35.7273V36.8523C35.8835 37.8864 35.0597 38.8295 33.6449 38.8295ZM43.5213 40.1761C45.5838 40.1761 46.919 38.9375 47.1065 37.2386H45.4531C45.2372 38.1818 44.5043 38.7386 43.5327 38.7386C42.0952 38.7386 41.169 37.5398 41.169 35.6364C41.169 33.767 42.1122 32.5909 43.5327 32.5909C44.6122 32.5909 45.2713 33.2727 45.4531 34.0909H47.1065C46.9247 32.3295 45.4872 31.1591 43.5043 31.1591C41.044 31.1591 39.4531 33.0114 39.4531 35.6761C39.4531 38.3068 40.9872 40.1761 43.5213 40.1761ZM50.6222 34.8182C50.6222 33.4261 51.5028 32.6307 52.7131 32.6307C53.8835 32.6307 54.5824 33.375 54.5824 34.6534V40H56.2812V34.4489C56.2812 32.2727 55.0881 31.1591 53.2926 31.1591C51.9347 31.1591 51.1165 31.75 50.7074 32.6932H50.5994V28.3636H48.9233V40H50.6222V34.8182ZM68.3111 36.3807C68.3168 37.8636 67.2145 38.5682 66.2599 38.5682C65.2088 38.5682 64.4815 37.8068 64.4815 36.6193V31.2727H62.7827V36.8239C62.7827 38.9886 63.9702 40.1136 65.6463 40.1136C66.9588 40.1136 67.8509 39.4205 68.2543 38.4886H68.3452V40H70.0156V31.2727H68.3111V36.3807ZM78.8381 33.4034C78.4858 32.0455 77.4233 31.1591 75.5369 31.1591C73.5653 31.1591 72.1676 32.1989 72.1676 33.7443C72.1676 34.983 72.9176 35.8068 74.554 36.1705L76.0312 36.4943C76.8722 36.6818 77.2642 37.0568 77.2642 37.6023C77.2642 38.2784 76.5426 38.8068 75.429 38.8068C74.4119 38.8068 73.7585 38.3693 73.554 37.5114L71.9119 37.7614C72.196 39.3068 73.4801 40.1761 75.4403 40.1761C77.5483 40.1761 79.0085 39.0568 79.0085 37.4773C79.0085 36.2443 78.2244 35.483 76.6222 35.1136L75.2358 34.7955C74.2756 34.5682 73.8608 34.2443 73.8665 33.6534C73.8608 32.983 74.5881 32.5057 75.554 32.5057C76.6108 32.5057 77.0994 33.0909 77.2983 33.6761L78.8381 33.4034ZM88.7869 40.1761C91.2472 40.1761 92.8551 38.375 92.8551 35.6761C92.8551 32.9602 91.2472 31.1591 88.7869 31.1591C86.3267 31.1591 84.7188 32.9602 84.7188 35.6761C84.7188 38.375 86.3267 40.1761 88.7869 40.1761ZM88.7926 38.75C87.1847 38.75 86.4347 37.3466 86.4347 35.6705C86.4347 34 87.1847 32.5795 88.7926 32.5795C90.3892 32.5795 91.1392 34 91.1392 35.6705C91.1392 37.3466 90.3892 38.75 88.7926 38.75ZM96.4503 34.8182C96.4503 33.4261 97.3026 32.6307 98.4844 32.6307C99.6378 32.6307 100.337 33.3864 100.337 34.6534V40H102.036V34.4489C102.036 32.2898 100.848 31.1591 99.0639 31.1591C97.7514 31.1591 96.8935 31.767 96.4901 32.6932H96.3821V31.2727H94.7514V40H96.4503V34.8182Z" fill="#00B836"/>
<g clip-path="url(#clip0)">
<g filter="url(#filter0_f)">
<path d="M111.058 41.9963L113.939 31.5234C112.168 28.4589 111.223 24.9777 111.233 21.4189C111.233 10.267 120.345 1.2002 131.54 1.2002C136.973 1.2002 142.074 3.30452 145.9 7.12516C149.735 10.9458 151.848 16.0272 151.838 21.4286C151.838 32.5803 142.726 41.6473 131.531 41.6473H131.521C128.123 41.6473 124.784 40.794 121.815 39.1841L111.058 41.9963ZM122.321 35.5185L122.935 35.8871C125.524 37.4192 128.493 38.224 131.521 38.2337H131.531C140.828 38.2337 148.402 30.699 148.402 21.4286C148.402 16.9387 146.649 12.7205 143.466 9.53969C140.283 6.35902 136.038 4.61359 131.531 4.61359C122.224 4.61359 114.65 12.1483 114.65 21.4187C114.65 24.5899 115.536 27.6832 117.23 30.3597L117.629 30.9997L115.925 37.1962L122.321 35.5185Z" fill="black" fill-opacity="0.24"/>
</g>
<path d="M111.979 40.915L114.729 30.9263C113.033 27.9965 112.141 24.6739 112.142 21.2921C112.142 10.6618 120.834 2.01392 131.496 2.01392C136.678 2.01392 141.533 4.02504 145.187 7.66415C148.84 11.3034 150.849 16.1494 150.849 21.3017C150.849 31.9319 142.158 40.5797 131.496 40.5797H131.486C128.246 40.5797 125.064 39.7657 122.237 38.2335L111.979 40.9152V40.915Z" fill="url(#paint0_linear)"/>
<path d="M111.277 41.6141L114.123 31.2712C112.373 28.245 111.44 24.8068 111.45 21.2922C111.45 10.2788 120.449 1.32446 131.506 1.32446C136.87 1.32446 141.908 3.40252 145.687 7.17581C149.474 10.9491 151.561 15.9674 151.551 21.3017C151.551 32.3151 142.552 41.2695 131.496 41.2695H131.486C128.137 41.2681 124.842 40.4319 121.901 38.8369L111.277 41.6143V41.6141ZM122.401 35.2168L123.006 35.5807C125.564 37.0939 128.496 37.8889 131.486 37.8984H131.496C140.677 37.8984 148.157 30.4572 148.157 21.3017C148.157 16.8677 146.427 12.7017 143.283 9.56055C140.139 6.41938 135.947 4.69553 131.496 4.69553C122.305 4.69553 114.825 12.1367 114.825 21.2922C114.825 24.4238 115.7 27.4788 117.373 30.1219L117.767 30.754L116.084 36.8736L122.401 35.2168Z" fill="white"/>
<path d="M126.487 12.9314C126.112 12.0981 125.718 12.0789 125.362 12.0694C125.074 12.0598 124.737 12.0598 124.401 12.0598C124.064 12.0598 123.526 12.1843 123.064 12.6822C122.603 13.1803 121.314 14.387 121.314 16.8484C121.314 19.2999 123.112 21.6749 123.362 22.01C123.612 22.3453 126.833 27.5455 131.919 29.5471C136.149 31.2135 137.015 30.8782 137.928 30.7921C138.851 30.7059 140.889 29.5854 141.312 28.417C141.726 27.2487 141.726 26.2527 141.601 26.042C141.476 25.8312 141.139 25.7069 140.639 25.4577C140.139 25.2088 137.678 24.0021 137.217 23.8298C136.755 23.6574 136.419 23.5808 136.092 24.0787C135.755 24.5767 134.794 25.6972 134.505 26.0325C134.217 26.3676 133.919 26.4059 133.419 26.157C132.919 25.908 131.304 25.3811 129.391 23.6765C127.9 22.3549 126.891 20.7172 126.602 20.2193C126.314 19.7213 126.574 19.453 126.823 19.2042C127.045 18.9838 127.323 18.6199 127.573 18.3326C127.823 18.0453 127.91 17.8347 128.073 17.4994C128.237 17.1643 128.16 16.877 128.035 16.628C127.91 16.3789 126.929 13.9177 126.487 12.9314Z" fill="white"/>
</g>
<defs>
<filter id="filter0_f" x="106.758" y="-3.09981" width="49.3803" height="49.3961" filterUnits="userSpaceOnUse" color-interpolation-filters="sRGB">
<feFlood flood-opacity="0" result="BackgroundImageFix"/>
<feBlend mode="normal" in="SourceGraphic" in2="BackgroundImageFix" result="shape"/>
<feGaussianBlur stdDeviation="2.15" result="effect1_foregroundBlur"/>
</filter>
<linearGradient id="paint0_linear" x1="131.413" y1="40.9125" x2="131.413" y2="2.01158" gradientUnits="userSpaceOnUse">
<stop stop-color="#20B038"/>
<stop offset="1" stop-color="#60D66A"/>
</linearGradient>
<clipPath id="clip0">
<rect width="43" height="43" fill="white" transform="translate(110)"/>
</clipPath>
</defs>
</svg>
