<svg width="302" height="274" viewBox="0 0 302 274" fill="none" xmlns="http://www.w3.org/2000/svg">
<g clip-path="url(#clip0)">
<path d="M241.017 99.422C234.694 84.4799 225.658 71.0667 214.131 59.549C202.614 48.0312 189.2 38.9859 174.267 32.6716C158.799 26.1238 142.366 22.8079 125.436 22.8079C108.502 22.8079 92.078 26.1238 76.6099 32.6716C61.6721 38.9859 48.2545 48.0312 36.7368 59.549C25.2191 71.0667 16.178 84.4805 9.86002 99.422C3.3159 114.891 0 131.319 0 148.249C0 165.179 3.3159 181.607 9.85949 197.076C16.178 212.009 25.2191 225.431 36.7368 236.949C48.254 248.466 61.6721 257.503 76.6099 263.825C92.078 270.365 108.502 273.681 125.436 273.681C142.366 273.681 158.799 270.365 174.267 263.825C189.201 257.503 202.614 248.466 214.131 236.949C225.657 225.431 234.694 212.009 241.017 197.076C247.556 181.607 250.873 165.179 250.873 148.249C250.872 131.319 247.556 114.891 241.017 99.422Z" fill="#00B836"/>
<path d="M185.911 87.7714C169.757 71.6185 148.284 62.7234 125.437 62.7234C102.59 62.7234 81.1126 71.6185 64.9592 87.7714C48.8057 103.924 39.9111 125.406 39.9111 148.249C39.9111 171.092 48.8063 192.565 64.9592 208.727C81.1121 224.88 102.59 233.775 125.437 233.775C148.284 233.775 169.757 224.88 185.911 208.727C202.072 192.566 210.967 171.092 210.967 148.249C210.967 125.406 202.072 103.924 185.911 87.7714Z" fill="#F7FEF9"/>
<path d="M125.435 102.629C100.282 102.629 79.8193 123.092 79.8193 148.249C79.8193 173.397 100.282 193.86 125.435 193.86C150.587 193.86 171.05 173.397 171.05 148.249C171.05 123.092 150.587 102.629 125.435 102.629Z" fill="#39DC69"/>
</g>
<g clip-path="url(#clip1)">
<path d="M153.39 133.093L109.532 158.479L104.768 150.248L148.626 124.862L153.39 133.093Z" fill="#6E6E6E"/>
<path d="M107.148 154.365L104.766 150.25L148.624 124.863L151.007 128.979L107.148 154.365Z" fill="#444444"/>
<path d="M149.52 94.6735L162.991 98.9643L183.05 133.616L180.012 147.352C164.659 154.811 147.792 148.64 140.073 135.306C132.116 121.561 135.769 103.951 149.52 94.6735Z" fill="#FFD400"/>
<path d="M162.99 98.9642L172.995 116.249L140.071 135.306C132.115 121.56 135.768 103.951 149.518 94.6746L162.99 98.9642Z" fill="#FF9F00"/>
<path d="M173.092 115.361L180.011 111.337L181.811 111.337L197.319 120.301L194.948 135.189L187.812 141.847C185.98 143.237 186.01 144.428 180.011 147.352L164.373 120.301C170.06 116.46 169.725 116.76 173.092 115.361Z" fill="#FFD400"/>
<path d="M181.646 93.2211L189.46 106.721L164.767 121.013L149.521 94.674C155.209 90.8326 154.862 92.132 158.228 90.7331L167.555 87.8615L181.646 93.2211Z" fill="#FF9F00"/>
<path d="M167.601 87.9443C170.733 86.9011 222.089 71.0191 223.467 70.5524L238.844 78.134L237.759 95.2454C237.759 95.2454 196.274 133.873 194.949 135.19L167.601 87.9443Z" fill="#FFD400"/>
<path d="M181.227 111.484L167.6 87.9438C170.733 86.9006 222.089 71.0198 223.467 70.5519L238.844 78.1335L181.227 111.484Z" fill="#FF9F00"/>
<path d="M222.167 49.3256L256.209 29.6209L264.654 63.1932L289.559 87.2377L255.517 106.942L237.757 95.2454L223.465 70.5524L222.167 49.3256Z" fill="#FFD400"/>
<path d="M221.135 49.677L255.177 29.9723L263.622 63.5446L229.579 83.2502L222.433 70.9038L221.135 49.677Z" fill="#FF9F00"/>
</g>
<defs>
<clipPath id="clip0">
<rect width="273.683" height="273.683" fill="white"/>
</clipPath>
<clipPath id="clip1">
<rect width="162.311" height="162.311" fill="white" transform="translate(260.165 198.662) rotate(-165.064)"/>
</clipPath>
</defs>
</svg>
