<svg width="297" height="249" viewBox="0 0 297 249" fill="none" xmlns="http://www.w3.org/2000/svg">
<path d="M27.2236 121.365C27.2236 54.3832 81.5229 0.0839844 148.504 0.0839844C215.486 0.0839844 269.785 54.3832 269.785 121.365V124.09H27.2236V121.365Z" fill="#00B836"/>
<path d="M27.2217 124.09C24.3499 56.4718 79.6207 0.0842285 147.3 0.0842285C214.283 0.0842285 269.783 54.3849 269.783 121.368V124.09H27.2217Z" fill="#00B836"/>
<path d="M170.104 105.326C175.299 85.6453 142.883 68.1858 111.748 86.9684C111.748 86.9684 134.794 136.471 168.122 109.565C168.122 109.565 168.219 109.211 169.02 107.764C169.821 106.317 170.104 105.326 170.104 105.326Z" fill="#3FE900"/>
<path d="M266.834 23.2504L283.967 32.1079L204.476 169.791L164.294 146.591L266.834 23.2504Z" fill="#302A1A"/>
<ellipse cx="272.964" cy="32.5615" rx="19.9476" ry="11.9997" transform="rotate(22.7733 272.964 32.5615)" fill="#302A1A"/>
<path d="M182.752 97.6214C162.519 95.3953 157.878 58.8698 186.596 36.5664C186.596 36.5664 224.507 75.8649 187.42 97.2948C187.42 97.2948 187.055 97.2586 185.417 97.486C183.778 97.7134 182.752 97.6214 182.752 97.6214Z" fill="#EBED06"/>
<path d="M27.2236 124.092H269.785V126.817C269.785 193.799 215.486 248.098 148.504 248.098C81.5229 248.098 27.2236 193.799 27.2236 126.817V124.092Z" fill="#302A1A"/>
<path d="M57.976 37.7015C54.8953 40.1936 52.0594 45.8654 48.3673 50.727C45.2393 56.3008 41.4113 64.9288 39.0057 70.8573C34.1721 82.7106 30.8671 95.18 29.0286 107.87C27.2547 120.569 26.9394 133.5 28.2923 146.286C29.6724 159.067 32.6537 171.676 37.0939 183.76L40.3271 182.544C35.845 170.777 32.8192 158.457 31.2835 145.945C29.7228 133.431 29.7925 120.718 31.3066 108.174C32.8854 95.6367 35.9168 83.2591 40.4811 71.4401C42.7524 65.5289 45.3678 59.7422 48.3673 54.1583C56.3133 42.2193 56.921 40.8013 57.976 37.7015Z" fill="#3FE900"/>
<path d="M45.0885 57.1844C39.4512 53.863 32.5997 37.8496 45.3335 23.2622C55.2116 33.0984 51.3325 50.3036 45.0885 57.1844Z" fill="#3FE900"/>
<path d="M46.1958 58.2367C51.8981 61.4449 69.1868 59.3285 75.4087 40.9908C61.9403 37.3868 49.0099 49.3815 46.1958 58.2367Z" fill="#3FE900"/>
<path d="M34.6877 83.3018C28.564 80.9976 19.0697 66.3941 29.1144 49.8403C40.5337 57.8379 39.6604 75.4528 34.6877 83.3018Z" fill="#3FE900"/>
<path d="M35.7898 84.3902C41.8404 86.8797 58.7416 82.6709 62.681 63.7106C48.8739 61.7779 37.5036 75.2586 35.7898 84.3902Z" fill="#3FE900"/>
<path d="M28.3047 114.342C21.8665 113.172 9.90978 100.508 16.8244 82.4205C29.4918 88.2433 31.7906 105.73 28.3047 114.342Z" fill="#3FE900"/>
<path d="M30.8336 114.896C37.2535 116.153 53.0054 108.72 53.1603 89.3564C39.2411 90.1608 30.727 105.605 30.8336 114.896Z" fill="#3FE900"/>
<path d="M28.289 143.845C21.7509 144.051 7.40209 134.177 10.3687 115.042C23.9754 118.077 29.8915 134.693 28.289 143.845Z" fill="#3FE900"/>
<path d="M31.0535 144.009C37.5958 143.952 51.5366 133.512 47.8062 114.511C34.3317 118.09 29.0867 134.929 31.0535 144.009Z" fill="#3FE900"/>
<path d="M34.4463 175.351C28.0516 176.733 12.1593 169.607 11.6272 150.25C25.5588 150.784 34.3726 166.061 34.4463 175.351Z" fill="#3FE900"/>
<path d="M37.3643 174.342C43.7305 172.834 55.0033 159.558 47.1444 141.86C34.8006 148.343 33.4289 165.926 37.3643 174.342Z" fill="#3FE900"/>
<path d="M54.9188 42.3847C52.4209 36.3392 56.6011 19.4301 75.5537 15.4616C77.5105 29.2654 64.0469 40.6586 54.9188 42.3847Z" fill="#3FE900"/>
<path d="M259.659 159.519C227.684 269.655 77.511 273.305 32.7688 164.289C28.9507 138.486 28.3386 86.2224 48.7808 49.8217" stroke="url(#paint0_linear)" stroke-width="7.88865"/>
<path d="M259.657 159.522C235.314 243.371 142.46 265.499 79.7799 223.179C60.1299 209.912 43.4453 190.311 32.7666 164.291" stroke="url(#paint1_linear)" stroke-width="7.88865"/>
<defs>
<linearGradient id="paint0_linear" x1="242.398" y1="161.791" x2="43.8975" y2="172.011" gradientUnits="userSpaceOnUse">
<stop stop-color="#302A1A"/>
<stop offset="0.304637" stop-color="#3FE900"/>
</linearGradient>
<linearGradient id="paint1_linear" x1="242.396" y1="161.793" x2="43.8953" y2="172.013" gradientUnits="userSpaceOnUse">
<stop stop-color="#302A1A"/>
<stop offset="0.304637" stop-color="#3FE900"/>
</linearGradient>
</defs>
</svg>
